<svg width="147" height="51" viewBox="0 0 147 51" fill="none" xmlns="http://www.w3.org/2000/svg">
<g clip-path="url(#clip0_57_95814)">
<path fill-rule="evenodd" clip-rule="evenodd" d="M89.9605 15.3175C88.0943 15.3175 86.3047 16.0588 84.9851 17.3783C83.6656 18.6979 82.9243 20.4876 82.9243 22.3537C82.9243 24.2198 83.6656 26.0095 84.9851 27.329C86.3047 28.6486 88.0943 29.3899 89.9605 29.3899C91.8266 29.3899 93.6163 28.6486 94.9358 27.329C96.2554 26.0095 96.9967 24.2198 96.9967 22.3537C96.9967 20.4876 96.2554 18.6979 94.9358 17.3783C93.6163 16.0588 91.8266 15.3175 89.9605 15.3175ZM89.9605 27.3881C88.6257 27.3866 87.3461 26.8557 86.4023 25.9119C85.4585 24.9681 84.9276 23.6884 84.9261 22.3537C84.9276 21.0189 85.4585 19.7393 86.4023 18.7955C87.3461 17.8517 88.6257 17.3208 89.9605 17.3193C91.2952 17.3208 92.5748 17.8517 93.5187 18.7955C94.4625 19.7393 94.9934 21.0189 94.9948 22.3537C94.9934 23.6884 94.4625 24.9681 93.5187 25.9119C92.5748 26.8557 91.2952 27.3866 89.9605 27.3881ZM114.941 19.3663C114.94 18.3503 114.537 17.376 113.818 16.6577C113.1 15.9394 112.125 15.5359 111.109 15.5359H105.039V29.1715H107.041V23.1982H110.208L113.397 29.1723H115.666L112.364 22.9871C113.116 22.7262 113.769 22.2374 114.231 21.5886C114.692 20.9399 114.94 20.1626 114.941 19.3663ZM107.041 21.1956V17.5369H111.109C111.594 17.5375 112.059 17.7305 112.402 18.0734C112.745 18.4163 112.938 18.8813 112.939 19.3663C112.938 19.8512 112.745 20.3162 112.402 20.6591C112.059 21.002 111.594 21.195 111.109 21.1956H107.041ZM69.1057 23.1982H73.6823V24.2886C73.4506 24.9558 73.0646 25.5589 72.5557 26.0487C71.6523 26.9126 70.3774 27.3881 68.9671 27.3881C67.6323 27.3866 66.3527 26.8557 65.4089 25.9119C64.4651 24.9681 63.9342 23.6884 63.9327 22.3537C63.9342 21.0189 64.4651 19.7393 65.4089 18.7955C66.3527 17.8517 67.6323 17.3208 68.9671 17.3193C70.3605 17.3193 71.6225 17.8891 72.5347 18.807L73.8943 17.3322C73.0706 16.5236 72.0605 15.9301 70.9533 15.604C69.846 15.278 68.6755 15.2293 67.545 15.4624C66.4146 15.6955 65.3588 16.2032 64.4708 16.9407C63.5829 17.6782 62.89 18.6228 62.4533 19.6913C62.0166 20.7598 61.8496 21.9193 61.9668 23.0676C62.0841 24.2159 62.4821 25.3177 63.1257 26.2759C63.7693 27.234 64.6388 28.0191 65.6575 28.5619C66.6762 29.1047 67.8128 29.3885 68.9671 29.3883C72.1149 29.3899 74.7888 27.6065 75.6834 24.6174V21.1964H69.1057V23.1974V23.1982ZM130.411 15.5359H128.264L122.564 29.1715H124.734L126.109 25.8827H132.566L133.941 29.1715H136.11L130.411 15.5359ZM126.945 23.8808L129.337 18.1566L131.73 23.8808H126.945ZM53.3909 10.8682H49.6435L48.8441 12.7781H53.3909V10.8682ZM47.6973 15.5359L41.998 29.1715H44.1675L45.5423 25.8827H51.9999L53.3748 29.1715H55.5442L49.845 15.5359H47.6973ZM46.3789 23.8808L48.7707 18.1566L51.1642 23.8808H46.3789Z" fill="white"/>
<path d="M75.3457 40.0143H75.7849V35.873H75.3457V40.0143Z" fill="white"/>
<path d="M81.307 35.873V40.0143H80.9932L78.6716 36.626V40.0143H78.2324V35.873H78.6089L80.9305 39.2613V35.873H81.307Z" fill="white"/>
<path d="M83.4395 35.873H83.8787L85.1336 39.4496L86.4513 35.873H86.8905L85.3846 40.0143H84.9454L83.4395 35.873Z" fill="white"/>
<path d="M91.408 39.6378V40.0143H88.9609V35.873H91.408V36.2495H89.4002V37.7554H91.2198V38.1319H89.4002V39.6378H91.408Z" fill="white"/>
<path d="M93.416 39.0733L93.7925 38.8851C93.918 39.3871 94.3572 39.7008 94.9847 39.7008C95.6121 39.7008 95.9886 39.3871 95.9886 38.9478C95.9886 38.4459 95.5494 38.3204 94.9847 38.1321C94.2945 37.8812 93.667 37.7557 93.667 36.94C93.667 36.187 94.2317 35.8105 94.9219 35.8105C95.6121 35.8105 96.0513 36.187 96.3023 36.689L95.9259 36.8772C95.8004 36.5008 95.4239 36.187 94.9219 36.187C94.42 36.187 94.0435 36.438 94.0435 36.8772C94.0435 37.3164 94.42 37.4419 94.9847 37.6302C95.7376 37.8812 96.4278 38.0694 96.4278 38.8851C96.4278 39.5753 95.8631 40.0773 95.0474 40.0773C94.2317 40.0773 93.667 39.7008 93.416 39.0733Z" fill="white"/>
<path d="M101.072 36.2495H99.8172V40.0143H99.378V36.2495H98.123V35.873H101.072V36.2495Z" fill="white"/>
<path d="M103.205 40.0143H103.644V35.873H103.205V40.0143Z" fill="white"/>
<path d="M109.919 40.0143H109.543V36.5005L108.037 38.9476L106.531 36.5005V40.0143H106.154V35.873H106.656L108.037 38.1946L109.417 35.873H109.919V40.0143Z" fill="white"/>
<path d="M114.875 39.6378V40.0143H112.428V35.873H114.812V36.2495H112.867V37.7554H114.687V38.1319H112.867V39.6378H114.875Z" fill="white"/>
<path d="M120.209 35.873V40.0143H119.833L117.511 36.626V40.0143H117.135V35.873H117.448L119.77 39.2613V35.873H120.209Z" fill="white"/>
<path d="M125.291 36.2495H124.036V40.0143H123.597V36.2495H122.342V35.873H125.291V36.2495Z" fill="white"/>
<path d="M126.984 37.9439C126.984 36.7517 127.926 35.8105 129.118 35.8105C130.31 35.8105 131.251 36.7517 131.251 37.9439C131.251 39.1361 130.31 40.0773 129.118 40.0773C127.926 40.0773 126.984 39.1361 126.984 37.9439ZM130.875 37.9439C130.875 37.0027 130.122 36.187 129.118 36.187C128.114 36.187 127.361 36.94 127.361 37.9439C127.361 38.8851 128.114 39.7008 129.118 39.7008C130.122 39.7008 130.875 38.9478 130.875 37.9439Z" fill="white"/>
<path d="M133.135 39.0733L133.511 38.8851C133.637 39.3871 134.076 39.7008 134.703 39.7008C135.331 39.7008 135.707 39.3871 135.707 38.9478C135.707 38.4459 135.268 38.3204 134.703 38.1321C134.013 37.8812 133.386 37.7557 133.386 36.94C133.386 36.187 133.95 35.8105 134.641 35.8105C135.331 35.8105 135.77 36.187 136.021 36.689L135.645 36.8772C135.519 36.5008 135.143 36.187 134.641 36.187C134.139 36.187 133.762 36.438 133.762 36.8772C133.762 37.3164 134.139 37.4419 134.703 37.6302C135.456 37.8812 136.147 38.0694 136.147 38.8851C136.147 39.5753 135.582 40.0773 134.766 40.0773C133.888 40.0773 133.323 39.7008 133.135 39.0733Z" fill="white"/>
<rect width="28.0725" height="28.1941" transform="translate(0 11.1514)" fill="white"/>
<path fill-rule="evenodd" clip-rule="evenodd" d="M12.9872 18.5645L7.41406 31.9323H9.5355L10.8799 28.7081H17.1946L18.539 31.9323H20.6604L15.0873 18.5645H12.9872ZM11.6979 26.7456L14.0368 21.1337L17.1946 28.7081H10.8799L11.6979 26.7456Z" fill="#0B0B0B"/>
</g>
<defs>
<clipPath id="clip0_57_95814">
<rect width="147" height="50.2174" fill="white"/>
</clipPath>
</defs>
</svg>
