<svg width="179" height="61" viewBox="0 0 179 61" fill="none" xmlns="http://www.w3.org/2000/svg">
<g clip-path="url(#clip0_57_95845)">
<path fill-rule="evenodd" clip-rule="evenodd" d="M0.862691 47.0995C0.638913 46.9543 0.448347 46.7634 0.303484 46.5394C0.15862 46.3154 0.0627284 46.0633 0.0220938 45.7997C-0.0185408 45.536 -0.00300137 45.2667 0.0676938 45.0095C0.138389 44.7523 0.262644 44.5129 0.432315 44.3071C1.75138 42.7115 3.30617 41.3266 5.043 40.2001C6.92286 38.9663 9.21105 38.5173 11.4178 38.9495C13.6245 39.3816 15.5743 40.6604 16.85 42.5122C17.2832 43.1289 17.8585 43.6323 18.5273 43.9798C19.1961 44.3274 19.9388 44.5088 20.6925 44.5088C21.4462 44.5088 22.1888 44.3274 22.8576 43.9798C23.5264 43.6323 24.1018 43.1289 24.535 42.5122C25.8106 40.6604 27.7605 39.3816 29.9672 38.9495C32.1739 38.5173 34.4621 38.9663 36.342 40.2001C38.0725 41.3238 39.6226 42.7035 40.9393 44.292C41.1099 44.4992 41.2346 44.7402 41.305 44.9992C41.3754 45.2581 41.3899 45.5291 41.3476 45.7941C41.3053 46.0591 41.2072 46.312 41.0598 46.5362C40.9123 46.7604 40.7189 46.9507 40.4923 47.0945L40.3838 47.1629C39.9912 47.409 39.5223 47.5035 39.065 47.4285C38.6077 47.3536 38.1935 47.1144 37.9 46.7559C36.8184 45.4663 35.5466 44.3492 34.1284 43.443C33.3797 42.9702 32.5117 42.7208 31.6262 42.724C30.8745 42.7264 30.1341 42.9082 29.4668 43.2544C28.7995 43.6005 28.2245 44.1009 27.7895 44.7141C26.9989 45.8577 25.9423 46.792 24.7104 47.4365C23.4786 48.081 22.1086 48.4165 20.7183 48.414H20.6666C19.2764 48.4165 17.9064 48.081 16.6745 47.4365C15.4427 46.792 14.386 45.8577 13.5955 44.7141C13.1593 44.0999 12.5826 43.5989 11.9135 43.253C11.2443 42.9071 10.5021 42.7263 9.74878 42.7257C8.86669 42.7242 8.00237 42.9736 7.2566 43.4446C5.83023 44.3552 4.55298 45.4806 3.46996 46.7809C3.17668 47.1411 2.76108 47.3809 2.30239 47.4544C1.8437 47.5279 1.37399 47.4301 0.982795 47.1796L0.862691 47.0995Z" fill="white"/>
<path d="M34.437 49.3115V50.3825C34.4372 50.5628 34.4018 50.7414 34.3329 50.9081C34.264 51.0748 34.1629 51.2262 34.0353 51.3537C33.9078 51.4812 33.7564 51.5824 33.5897 51.6513C33.4231 51.7202 33.2444 51.7556 33.0641 51.7553H8.33419C8.15384 51.7556 7.97522 51.7202 7.80856 51.6513C7.64189 51.5824 7.49046 51.4812 7.36294 51.3537C7.23541 51.2262 7.13429 51.0748 7.06538 50.9081C6.99646 50.7414 6.9611 50.5628 6.96132 50.3825V49.2982C6.96132 47.9954 5.2932 47.4132 4.50752 48.4491C4.48917 48.4758 4.46915 48.5008 4.4508 48.5258C4.27696 48.7602 4.18388 49.0447 4.18557 49.3366V53.1582C4.18601 53.5225 4.33102 53.8717 4.58875 54.1291C4.84648 54.3865 5.19584 54.5311 5.5601 54.5311H35.8398C36.2038 54.5306 36.5528 54.3859 36.8101 54.1285C37.0675 53.8711 37.2123 53.5222 37.2127 53.1582V49.3499C37.2144 49.0576 37.1213 48.7725 36.9475 48.5375L36.8908 48.4625C36.1001 47.4249 34.437 48.0071 34.437 49.3115Z" fill="white"/>
<path d="M6.9613 36.3285V10.8913C6.96108 10.7109 6.99644 10.5323 7.06536 10.3657C7.13427 10.199 7.23539 10.0476 7.36292 9.92004C7.49044 9.79252 7.64187 9.6914 7.80853 9.62249C7.9752 9.55357 8.15382 9.51821 8.33417 9.51843H33.0641C33.2444 9.51821 33.423 9.55357 33.5897 9.62249C33.7564 9.6914 33.9078 9.79252 34.0353 9.92004C34.1628 10.0476 34.264 10.199 34.3329 10.3657C34.4018 10.5323 34.4372 10.7109 34.4369 10.8913V36.3335C34.4371 36.6119 34.5219 36.8837 34.6801 37.1128C34.8383 37.3419 35.0624 37.5175 35.3227 37.6163L35.3544 37.628C35.5621 37.7065 35.7857 37.7334 36.0061 37.7065C36.2265 37.6796 36.437 37.5997 36.6197 37.4736C36.8025 37.3475 36.9519 37.1789 37.0551 36.9824C37.1584 36.7858 37.2125 36.5672 37.2127 36.3452V8.11721C37.2127 7.75295 37.0681 7.40358 36.8107 7.14586C36.5533 6.88813 36.2041 6.74312 35.8398 6.74268H5.56008C5.19553 6.74268 4.84591 6.88749 4.58814 7.14527C4.33036 7.40304 4.18555 7.75266 4.18555 8.11721V36.3385C4.18522 36.5606 4.23883 36.7794 4.34179 36.9762C4.44475 37.173 4.59397 37.3418 4.77661 37.4682C4.95926 37.5945 5.16986 37.6747 5.39031 37.7016C5.61076 37.7286 5.83446 37.7016 6.04217 37.6229L6.07386 37.6113C6.33461 37.513 6.55922 37.3375 6.71776 37.1084C6.8763 36.8792 6.96125 36.6071 6.9613 36.3285Z" fill="white"/>
<path d="M29.6594 30.1783L29.6911 30.2734C29.7333 32.5921 28.9799 34.4654 27.4308 35.8933C25.8816 37.3212 23.7887 38.0352 21.1519 38.0352C18.4741 38.0352 16.3027 37.1316 14.6379 35.3245C12.9731 33.5173 12.1391 31.2064 12.1357 28.3917V24.0129C12.1357 21.2105 12.9576 18.9001 14.6012 17.0819C16.2449 15.2636 18.3895 14.3545 21.0352 14.3545C23.7442 14.3545 25.8761 15.0451 27.4308 16.4263C28.9854 17.8075 29.7411 19.698 29.6977 22.0979L29.666 22.1913H28.4333C27.8137 22.1841 27.2117 21.9841 26.711 21.6191C26.2103 21.2541 25.8356 20.7422 25.6392 20.1546C25.4476 19.5884 25.1273 19.0745 24.7034 18.6532C23.8704 17.837 22.6471 17.4288 21.0335 17.4288C19.4766 17.4288 18.2411 18.0477 17.3269 19.2855C16.4128 20.5232 15.9569 22.0857 15.9591 23.9729V28.3834C15.9591 30.2917 16.4228 31.8648 17.3503 33.1025C18.2778 34.3403 19.545 34.9619 21.1519 34.9675C22.7222 34.9675 23.9155 34.5566 24.7317 33.7347C25.1483 33.3107 25.4626 32.7972 25.6509 32.2334C25.8406 31.6436 26.2107 31.1283 26.7091 30.7601C27.2074 30.392 27.8088 30.1896 28.4283 30.1816L29.6594 30.1783Z" fill="white"/>
<path d="M56.4512 31.9099L56.4729 31.9766C56.5029 33.588 55.9797 34.8892 54.9032 35.88C53.8267 36.8709 52.3732 37.3675 50.5427 37.3697C48.6833 37.3697 47.1748 36.7419 46.0171 35.4864C44.8594 34.2308 44.2811 32.625 44.2822 30.6688V27.6278C44.2822 25.6795 44.8533 24.0736 45.9954 22.8103C47.1375 21.547 48.6277 20.9159 50.466 20.917C52.3476 20.917 53.8283 21.3963 54.9082 22.3549C55.988 23.3135 56.5135 24.628 56.4845 26.2984L56.4629 26.3634H54.2509C54.1541 26.3632 54.0609 26.3262 53.9903 26.2599C53.9197 26.1937 53.8769 26.1031 53.8706 26.0064C53.8128 25.1101 53.527 24.4112 53.0132 23.9096C52.436 23.3424 51.5869 23.0589 50.466 23.0589C49.9634 23.0434 49.4649 23.1532 49.0153 23.3783C48.5657 23.6034 48.1791 23.9367 47.8904 24.3483C47.2565 25.2091 46.9395 26.2945 46.9395 27.6045V30.6688C46.9395 31.9955 47.2621 33.0887 47.9071 33.9484C48.2066 34.3633 48.6038 34.698 49.0635 34.9229C49.5232 35.1478 50.0312 35.256 50.5427 35.2378C51.6336 35.2378 52.4627 34.9526 53.0299 34.3821C53.5336 33.875 53.8117 33.1682 53.8639 32.2619C53.8711 32.1657 53.9146 32.0759 53.9855 32.0105C54.0564 31.9452 54.1495 31.9092 54.2459 31.9099H56.4512Z" fill="white"/>
<path d="M65.8977 37.1376C65.8154 37.1379 65.7352 37.1115 65.6691 37.0625C65.603 37.0135 65.5544 36.9445 65.5307 36.8657C65.4707 36.6605 65.4206 36.4587 65.3772 36.2602C65.3625 36.1902 65.3287 36.1257 65.2796 36.0737C65.2306 36.0217 65.1681 35.9843 65.0991 35.9655C65.0302 35.9467 64.9574 35.9473 64.8887 35.9672C64.82 35.9871 64.7582 36.0256 64.71 36.0783C64.4395 36.3557 64.1365 36.5993 63.8075 36.804C63.2081 37.1801 62.5134 37.3764 61.8058 37.3695C60.568 37.3695 59.6178 37.0509 58.955 36.4136C58.2922 35.7764 57.9585 34.9012 57.9541 33.788C57.9541 32.6381 58.4084 31.7429 59.317 31.1023C60.2255 30.4618 61.5044 30.1415 63.1536 30.1415H64.8468C64.9482 30.1415 65.0456 30.1013 65.1175 30.0297C65.1894 29.9581 65.23 29.861 65.2304 29.7595V29.0922C65.2304 28.4706 65.0492 27.9835 64.6866 27.631C64.3241 27.2784 63.7986 27.1027 63.1103 27.1038C62.5031 27.1038 62.0199 27.2484 61.6607 27.5376C61.4031 27.7371 61.2256 28.0224 61.1602 28.3416C61.1442 28.4306 61.0979 28.5114 61.0292 28.5704C60.9606 28.6293 60.8737 28.6628 60.7832 28.6652L58.558 28.6752L58.5463 28.6085C58.494 27.671 58.9133 26.8397 59.804 26.1146C60.6948 25.3896 61.8514 25.0326 63.2737 25.0437C64.6583 25.0437 65.7748 25.3951 66.6233 26.098C67.4718 26.8008 67.8967 27.8111 67.8978 29.1289V34.4119C67.8959 34.8841 67.9288 35.3558 67.9962 35.8231C68.0358 36.1069 68.0914 36.3881 68.163 36.6655C68.1784 36.7221 68.1806 36.7814 68.1693 36.839C68.158 36.8965 68.1335 36.9506 68.0978 36.9971C68.0621 37.0437 68.0162 37.0813 67.9635 37.1071C67.9109 37.1329 67.853 37.1462 67.7944 37.1459L65.8977 37.1376ZM62.3546 35.2276C62.9923 35.2369 63.6192 35.0632 64.1612 34.7272C64.6038 34.4764 64.9642 34.1026 65.1988 33.6512C65.2222 33.5988 65.2336 33.5418 65.2321 33.4844V32.1949C65.2321 32.1446 65.2222 32.0947 65.2029 32.0481C65.1836 32.0016 65.1554 31.9593 65.1197 31.9237C65.0841 31.888 65.0418 31.8598 64.9953 31.8405C64.9487 31.8212 64.8988 31.8113 64.8485 31.8113H63.1086C62.3301 31.8113 61.7224 32.0037 61.2853 32.3884C61.0815 32.5512 60.9165 32.7574 60.8025 32.992C60.6885 33.2266 60.6283 33.4838 60.6264 33.7446C60.6171 33.9464 60.6522 34.1478 60.7291 34.3346C60.8061 34.5213 60.9231 34.6889 61.0718 34.8256C61.3687 35.0941 61.7941 35.2276 62.3546 35.2276Z" fill="white"/>
<path d="M80.7408 31.5913C80.7408 33.3195 80.3349 34.7146 79.5231 35.7767C78.7113 36.8387 77.5797 37.3697 76.1285 37.3697C75.5124 37.3815 74.9012 37.2573 74.3386 37.0061C74.0795 36.887 73.8358 36.7368 73.6129 36.559C73.559 36.5128 73.4929 36.483 73.4225 36.4732C73.3521 36.4634 73.2804 36.4739 73.2158 36.5036C73.1512 36.5332 73.0965 36.5808 73.0581 36.6406C73.0197 36.7003 72.9992 36.7699 72.9991 36.8409V41.3232C72.9991 41.4249 72.9587 41.5225 72.8867 41.5945C72.8147 41.6664 72.7172 41.7068 72.6154 41.7068H70.7137C70.612 41.7068 70.5144 41.6664 70.4425 41.5945C70.3705 41.5225 70.3301 41.4249 70.3301 41.3232V25.6428C70.3301 25.5411 70.3705 25.4435 70.4425 25.3715C70.5144 25.2996 70.612 25.2592 70.7137 25.2592H72.2601C72.3501 25.2594 72.4372 25.2912 72.5062 25.3492C72.5751 25.4071 72.6214 25.4874 72.6371 25.5761L72.7005 25.9364C72.7132 26.0061 72.745 26.0708 72.7923 26.1236C72.8396 26.1763 72.9005 26.2149 72.9684 26.2351C73.0363 26.2553 73.1084 26.2563 73.1768 26.238C73.2452 26.2198 73.3073 26.1829 73.3561 26.1316C73.6121 25.8733 73.9043 25.6536 74.2235 25.4794C74.8007 25.1789 75.4445 25.0291 76.0951 25.044C77.5597 25.044 78.7002 25.6239 79.5164 26.7838C80.3327 27.9437 80.7408 29.4723 80.7408 31.3695V31.5913ZM78.0835 31.3611C78.0835 30.1468 77.855 29.1531 77.3979 28.3802C77.1981 28.0156 76.9005 27.7139 76.5386 27.5091C76.1768 27.3043 75.7649 27.2045 75.3495 27.2209C74.8528 27.205 74.3615 27.3287 73.9316 27.5778C73.5691 27.8015 73.2673 28.1109 73.0525 28.4786C73.0166 28.5392 72.9982 28.6084 72.9991 28.6788V33.8333C72.9985 33.9049 73.0175 33.9753 73.0541 34.0368C73.2675 34.3959 73.5697 34.694 73.9316 34.9026C74.3737 35.1386 74.8703 35.2537 75.3711 35.2362C76.2786 35.2362 76.9575 34.9026 77.4079 34.2353C77.8583 33.5681 78.0807 32.6873 78.0752 31.593L78.0835 31.3611Z" fill="white"/>
<path d="M85.1261 22.3448H83.2245C83.1227 22.3448 83.0251 22.3043 82.9532 22.2324C82.8812 22.1604 82.8408 22.0629 82.8408 21.9611V20.3881C82.8408 20.2863 82.8812 20.1887 82.9532 20.1168C83.0251 20.0448 83.1227 20.0044 83.2245 20.0044H85.1261C85.2279 20.0044 85.3255 20.0448 85.3974 20.1168C85.4694 20.1887 85.5098 20.2863 85.5098 20.3881V21.9611C85.5098 22.0629 85.4694 22.1604 85.3974 22.2324C85.3255 22.3043 85.2279 22.3448 85.1261 22.3448ZM85.1261 37.1377H83.2245C83.123 37.1377 83.0257 37.0975 82.9538 37.0259C82.8819 36.9543 82.8413 36.8571 82.8408 36.7557V25.6376C82.8408 25.5873 82.8507 25.5374 82.87 25.4908C82.8893 25.4443 82.9176 25.402 82.9532 25.3663C82.9888 25.3307 83.0311 25.3025 83.0777 25.2832C83.1242 25.2639 83.1741 25.254 83.2245 25.254H85.1261C85.2279 25.254 85.3255 25.2944 85.3974 25.3663C85.4694 25.4383 85.5098 25.5359 85.5098 25.6376V36.7557C85.5094 36.8571 85.4688 36.9543 85.3969 37.0259C85.3249 37.0975 85.2276 37.1377 85.1261 37.1377Z" fill="white"/>
<path d="M91.4407 22.7504V24.8772C91.4407 24.9275 91.4507 24.9773 91.47 25.0238C91.4893 25.0703 91.5176 25.1124 91.5532 25.1479C91.5889 25.1834 91.6312 25.2115 91.6777 25.2306C91.7243 25.2497 91.7741 25.2594 91.8244 25.2592H93.1889C93.2393 25.2592 93.2891 25.2692 93.3355 25.2885C93.382 25.3078 93.4242 25.336 93.4596 25.3717C93.4951 25.4073 93.5232 25.4497 93.5423 25.4962C93.5614 25.5427 93.5712 25.5926 93.5709 25.6429V26.8539C93.5712 26.9043 93.5614 26.9541 93.5423 27.0006C93.5232 27.0472 93.4951 27.0895 93.4596 27.1251C93.4242 27.1608 93.382 27.1891 93.3355 27.2084C93.2891 27.2277 93.2393 27.2376 93.1889 27.2376H91.8244C91.7741 27.2374 91.7243 27.2471 91.6777 27.2662C91.6312 27.2853 91.5889 27.3134 91.5532 27.3489C91.5176 27.3844 91.4893 27.4266 91.47 27.473C91.4507 27.5195 91.4407 27.5693 91.4407 27.6196V33.805C91.4407 34.2954 91.547 34.6452 91.7594 34.8543C91.8721 34.9604 92.0052 35.0427 92.1505 35.0963C92.2958 35.1499 92.4504 35.1737 92.6051 35.1662C92.7489 35.167 92.8924 35.1541 93.0338 35.1278C93.1681 35.1036 93.3002 35.0691 93.4292 35.0244L93.6727 36.6925C93.6858 36.7775 93.6699 36.8643 93.6275 36.9391C93.5851 37.0139 93.5188 37.0722 93.4392 37.1046C93.2666 37.1745 93.0886 37.2302 92.907 37.2714C92.5877 37.3423 92.2616 37.3775 91.9345 37.3765C90.9537 37.3765 90.1835 37.089 89.6242 36.514C89.0648 35.9391 88.7868 35.0366 88.7901 33.8067V27.6146C88.7901 27.5643 88.7802 27.5145 88.7609 27.468C88.7416 27.4216 88.7133 27.3794 88.6776 27.3439C88.642 27.3084 88.5997 27.2803 88.5531 27.2612C88.5066 27.2421 88.4567 27.2324 88.4064 27.2326H87.3605C87.3102 27.2326 87.2604 27.2227 87.214 27.2034C87.1675 27.1841 87.1253 27.1558 87.0898 27.1201C87.0543 27.0845 87.0262 27.0422 87.0071 26.9956C86.988 26.9491 86.9783 26.8992 86.9785 26.8489V25.6379C86.9783 25.5876 86.988 25.5377 87.0071 25.4912C87.0262 25.4447 87.0543 25.4023 87.0898 25.3667C87.1253 25.331 87.1675 25.3028 87.214 25.2835C87.2604 25.2642 87.3102 25.2542 87.3605 25.2542H88.4064C88.4567 25.2544 88.5066 25.2447 88.5531 25.2256C88.5997 25.2065 88.642 25.1784 88.6776 25.1429C88.7133 25.1074 88.7416 25.0652 88.7609 25.0188C88.7802 24.9723 88.7901 24.9225 88.7901 24.8722V22.7504C88.7901 22.7 88.8 22.6501 88.8193 22.6035C88.8386 22.557 88.8669 22.5147 88.9025 22.4791C88.9381 22.4434 88.9804 22.4152 89.0269 22.3959C89.0735 22.3766 89.1234 22.3667 89.1738 22.3667H91.0637C91.1643 22.3684 91.2602 22.4096 91.3307 22.4814C91.4013 22.5532 91.4408 22.6498 91.4407 22.7504Z" fill="white"/>
<path d="M102.749 37.1376C102.666 37.1379 102.586 37.1115 102.52 37.0625C102.454 37.0135 102.405 36.9445 102.382 36.8657C102.323 36.6605 102.271 36.4587 102.228 36.2602C102.213 36.1902 102.18 36.1257 102.131 36.0737C102.081 36.0217 102.019 35.9843 101.95 35.9655C101.881 35.9467 101.808 35.9473 101.74 35.9672C101.671 35.9871 101.609 36.0256 101.561 36.0783C101.291 36.3553 100.988 36.5989 100.66 36.804C100.061 37.1798 99.3659 37.376 98.6583 37.3695C97.4206 37.3695 96.4703 37.0509 95.8075 36.4136C95.1447 35.7764 94.8111 34.9012 94.8066 33.788C94.8066 32.6381 95.2604 31.7429 96.1678 31.1023C97.0753 30.4618 98.3542 30.1415 100.005 30.1415H101.696C101.797 30.1415 101.895 30.1013 101.967 30.0297C102.039 29.9581 102.079 29.861 102.08 29.7595V29.0922C102.08 28.4706 101.898 27.9835 101.536 27.631C101.173 27.2784 100.648 27.1027 99.9595 27.1038C99.3523 27.1038 98.8691 27.2484 98.5099 27.5376C98.2534 27.7381 98.0761 28.0229 98.0094 28.3416C97.9934 28.4306 97.9471 28.5114 97.8784 28.5704C97.8098 28.6293 97.7229 28.6628 97.6324 28.6652L95.4072 28.6752L95.3955 28.6085C95.3454 27.671 95.7647 26.8397 96.6533 26.1146C97.5418 25.3896 98.6989 25.0326 100.125 25.0437C101.509 25.0437 102.626 25.3951 103.474 26.098C104.323 26.8008 104.748 27.8111 104.749 29.1289V34.4119C104.748 34.884 104.781 35.3557 104.847 35.8231C104.887 36.1069 104.942 36.3881 105.014 36.6655C105.029 36.7221 105.031 36.7814 105.02 36.839C105.009 36.8965 104.984 36.9506 104.949 36.9971C104.913 37.0437 104.867 37.0813 104.814 37.1071C104.762 37.1329 104.704 37.1462 104.645 37.1459L102.749 37.1376ZM99.2021 35.2276C99.8398 35.2369 100.467 35.0632 101.009 34.7272C101.452 34.4774 101.813 34.1034 102.046 33.6512C102.07 33.5988 102.081 33.5418 102.08 33.4844V32.1949C102.08 32.0932 102.039 31.9956 101.967 31.9237C101.895 31.8517 101.798 31.8113 101.696 31.8113H99.9595C99.181 31.8113 98.5738 32.0037 98.1379 32.3884C97.9323 32.5502 97.7656 32.756 97.6501 32.9907C97.5346 33.2254 97.4733 33.4831 97.4706 33.7446C97.4613 33.9464 97.4964 34.1478 97.5733 34.3346C97.6503 34.5213 97.7673 34.6889 97.916 34.8256C98.2174 35.0947 98.6461 35.2287 99.2021 35.2276Z" fill="white"/>
<path d="M109.529 37.1377H107.628C107.526 37.1377 107.429 37.0975 107.357 37.0259C107.285 36.9543 107.245 36.8571 107.244 36.7557V20.3881C107.244 20.2863 107.285 20.1887 107.357 20.1168C107.428 20.0448 107.526 20.0044 107.628 20.0044H109.529C109.631 20.0044 109.729 20.0448 109.801 20.1168C109.873 20.1887 109.913 20.2863 109.913 20.3881V36.7557C109.913 36.8571 109.872 36.9543 109.8 37.0259C109.728 37.0975 109.631 37.1377 109.529 37.1377Z" fill="white"/>
</g>
<defs>
<clipPath id="clip0_57_95845">
<rect width="178.564" height="61" fill="white"/>
</clipPath>
</defs>
</svg>
