<svg width="116" height="37" viewBox="0 0 116 37" fill="none" xmlns="http://www.w3.org/2000/svg">
<path d="M114.547 3.57754C112.069 3.57754 109.989 4.84471 108.992 6.39372H108.65L107.111 3.66166H105.516V21.4905H109.049V12.8442C109.049 9.46438 111.186 7.46424 114.832 7.46424H115.658V3.66166C115.29 3.60563 114.919 3.57751 114.547 3.57754ZM98.4236 6.39372H98.0811C96.7709 4.64806 94.2641 3.32305 91.8138 3.32305C86.8578 3.32305 82.5845 7.38012 82.5845 12.5908C82.5845 17.6321 86.6865 21.8575 91.8138 21.8575C94.4354 21.8575 96.7709 20.5619 97.996 18.5344V21.4915H101.528V3.66166H99.9327L98.4225 6.39372H98.4236ZM92.0424 18.4492C91.2634 18.4523 90.4916 18.3029 89.7713 18.0096C89.051 17.7163 88.3965 17.2848 87.8457 16.7402C87.2948 16.1957 86.8584 15.5486 86.5616 14.8364C86.2649 14.1242 86.1135 13.3611 86.1165 12.5908C86.116 11.8212 86.2688 11.059 86.5665 10.3479C86.8641 9.63686 87.3006 8.99075 87.851 8.44663C88.4014 7.9025 89.0549 7.47101 89.7741 7.17685C90.4933 6.88269 91.2642 6.73164 92.0424 6.73233C92.8227 6.72887 93.596 6.8778 94.3181 7.17057C95.04 7.46335 95.6964 7.8942 96.2495 8.43841C96.8027 8.98263 97.2417 9.62949 97.5414 10.3418C97.8411 11.0543 97.9956 11.8182 97.996 12.5897C97.9982 13.3621 97.8454 14.1273 97.5466 14.8409C97.2478 15.5545 96.8089 16.2025 96.2554 16.7474C95.7017 17.2923 95.0443 17.7232 94.3211 18.0153C93.5981 18.3075 92.8236 18.4549 92.0424 18.4492ZM70.705 3.32305C65.5203 3.32305 61.5321 7.49264 61.5321 12.5624C61.5321 17.8015 65.6054 21.8575 71.0188 21.8575C74.1519 21.8575 76.8011 20.5325 78.9101 17.8856L76.1162 15.774C74.9485 17.3514 73.0682 18.4219 71.0177 18.4219C68.2823 18.4219 65.7469 16.5069 65.263 13.859H79.7056V12.5634C79.6769 7.29599 75.8025 3.32515 70.7039 3.32515L70.705 3.32305ZM65.2917 10.8157C65.8904 8.19721 68.2547 6.64715 70.7337 6.64715C73.2692 6.64715 75.2909 8.22455 75.8323 10.8157H65.2928H65.2917ZM44.8104 18.3925C44.0374 18.3964 43.2712 18.2493 42.5558 17.9596C41.8405 17.6698 41.1903 17.2431 40.6423 16.7039C40.0943 16.1647 39.6596 15.5238 39.363 14.8179C39.0664 14.112 38.9139 13.3552 38.9142 12.5908C38.9142 9.3792 41.421 6.78807 44.8104 6.78807C46.4344 6.78807 47.6883 7.46424 48.7135 8.36546L51.3915 5.97097C49.7962 4.36624 47.4596 3.3241 44.8391 3.3241C39.7395 3.3241 35.3812 7.49264 35.3812 12.5908C35.3812 17.7447 39.6257 21.8575 44.8391 21.8575C48.3147 21.8575 50.9639 20.2801 52.6156 17.6889L49.6537 15.8581C48.5136 17.3514 46.947 18.3925 44.8104 18.3925ZM54.8383 2.81618V21.4915H58.3692V0H57.9438L54.8383 2.81618ZM12.4198 0.0283932L10.313 9.88502L8.06149 11.7169L5.95359 21.4631H9.65677L14.2725 0.0283932H12.4198ZM18.3745 0.0283932L17.5194 3.94349L15.2966 5.77327L11.8785 21.4631H13.7311L14.5851 17.548L16.8355 15.7172L20.226 0.0273416H18.3745V0.0283932ZM6.49492 0.0273416L3.07677 15.8287L0.826356 17.6879L0 21.4631H3.70318L8.34651 0.0262899H6.49599L6.49492 0.0273416ZM28.4024 0.0283932L23.7867 21.4631H25.6107L29.0288 5.6618L31.2792 3.83097L32.1056 0.0283932H28.4024ZM26.152 0.0283932H22.4477L17.8331 21.4631H19.6847L21.8224 11.6044L24.0717 9.7746L26.152 0.0273416V0.0283932ZM43.0726 33.4335C42.5313 34.1096 41.6773 34.4472 40.6233 34.4472C38.743 34.4472 37.4604 33.1516 37.4604 31.2083C37.4604 29.2933 38.743 27.9978 40.6233 27.9978C41.8761 27.9978 42.5589 28.5887 42.9312 29.0672L42.9588 29.124H43.3289L43.1864 27.2648L43.13 27.2364C42.5026 26.7579 41.5348 26.4761 40.5372 26.4761C37.7454 26.4761 35.7226 28.4762 35.7226 31.2367C35.7226 33.9971 37.7454 36.0246 40.5372 36.0246C41.6198 36.0246 42.6451 35.7154 43.2725 35.2359L43.3002 35.2075L43.4714 33.4335H43.0726ZM49.1113 26.4477C46.2919 26.4477 44.3542 28.3921 44.3542 31.2083C44.3542 33.9687 46.3483 35.9962 49.1113 35.9962C51.8754 35.9962 53.8971 33.9971 53.8971 31.2083C53.8971 28.4205 51.9317 26.4487 49.1113 26.4487V26.4477ZM52.188 31.2083C52.188 33.1516 50.9629 34.4472 49.14 34.4472C47.3171 34.4472 46.0919 33.1516 46.0919 31.2083C46.0919 29.2933 47.3171 27.9978 49.14 27.9978C50.9629 27.9978 52.188 29.2649 52.188 31.2083ZM60.7058 26.5329C60.592 26.4761 60.4208 26.4487 60.1932 26.4487C59.5994 26.4457 59.0154 26.5978 58.5001 26.8895C57.9849 27.1812 57.5567 27.6024 57.2589 28.1103L56.8601 26.5613H55.7498V35.8563H57.4599V30.8139C57.4599 29.1808 58.4852 28.0819 59.9943 28.0819C60.2793 28.0819 60.5643 28.1103 60.7643 28.166L60.9344 28.2228L60.793 26.5613L60.7079 26.5329H60.7058ZM67.4007 26.5329C67.2869 26.4761 67.1156 26.4487 66.888 26.4487C66.2943 26.4457 65.7103 26.5978 65.195 26.8895C64.6797 27.1812 64.2516 27.6024 63.9538 28.1103L63.555 26.5613H62.4436V35.8563H64.1537V30.8139C64.1537 29.1808 65.179 28.0819 66.6881 28.0819C66.9731 28.0819 67.2581 28.1103 67.4581 28.166L67.6282 28.2228L67.4857 26.5613L67.4007 26.5329ZM72.614 26.4477C69.9935 26.4477 68.0271 28.5046 68.0271 31.2367C68.0271 34.0812 70.0212 35.9962 72.9841 35.9962C74.2657 35.9962 75.577 35.6029 76.3172 35.0109L76.3459 34.9825L76.631 33.2652H76.2598L76.2321 33.2925C75.4909 34.0255 74.2944 34.4472 73.0692 34.4472C71.19 34.4472 70.0212 33.5186 69.7649 31.8287H76.8873V31.7152C76.9149 31.4628 76.9149 31.2651 76.9149 31.04C76.9149 28.3069 75.1782 26.4487 72.614 26.4487V26.4477ZM72.5853 27.9978C74.0955 27.9978 75.1208 28.9547 75.2345 30.448H69.7936C70.0499 28.9547 71.1613 27.9978 72.5853 27.9978ZM83.0685 34.2789C82.8983 34.4199 82.5845 34.504 82.2144 34.504C81.2169 34.504 80.733 33.9971 80.733 32.9266V28.0261H83.3535V26.5897H80.7606V24.702L77.3712 27.6886V28.0251H79.0515V33.0675C79.0515 34.8973 80.1629 35.9962 81.9868 35.9962C82.4133 35.9962 82.9546 35.9121 83.211 35.7438L83.2684 35.7154L83.4386 34.2789H83.0685ZM88.9944 26.4477C86.1739 26.4477 84.2373 28.3921 84.2373 31.2083C84.2373 33.9687 86.2314 35.9962 88.9944 35.9962C91.7574 35.9962 93.7802 33.9971 93.7802 31.2083C93.7802 28.4205 91.8148 26.4487 88.9944 26.4487V26.4477ZM92.0424 31.2083C92.0424 33.1516 90.8173 34.4472 88.9944 34.4472C87.1704 34.4472 85.9463 33.1516 85.9463 31.2083C85.9463 29.2933 87.1704 27.9978 88.9944 27.9978C90.8449 27.9978 92.0424 29.2649 92.0424 31.2083ZM100.56 26.5329C100.397 26.4705 100.222 26.4418 100.048 26.4487C99.4536 26.4455 98.8694 26.5974 98.3539 26.8892C97.8385 27.181 97.4101 27.6022 97.1122 28.1103L96.7145 26.5613H95.6031V35.8563H97.3122V30.8139C97.3122 29.1808 98.3385 28.0819 99.8476 28.0819C100.133 28.0819 100.418 28.1103 100.617 28.166L100.788 28.2228L100.645 26.5613L100.56 26.5329ZM105.118 26.4477C103.921 26.4477 102.753 26.8147 102.183 27.1807L102.127 27.2091L101.899 28.8422H102.269L102.298 28.8148C103.038 28.2512 103.893 27.9978 105.004 27.9978C106.542 27.9978 107.369 28.6739 107.369 29.9411V30.4196C106.789 30.2894 106.197 30.2234 105.602 30.2229C102.896 30.2229 101.387 31.2935 101.387 33.2368C101.387 34.8699 102.697 36.0246 104.577 36.0246C105.83 36.0246 106.941 35.4336 107.568 34.3915L107.967 35.9121H109.049V29.857C109.049 27.7159 107.568 26.4487 105.117 26.4487L105.118 26.4477ZM105.574 31.631C106.144 31.631 106.741 31.7151 107.34 31.8561C107.34 33.4619 106.343 34.4756 104.862 34.4756C103.751 34.4756 103.038 33.9403 103.038 33.1243C103.038 32.1379 103.893 31.631 105.574 31.631Z" fill="white"/>
</svg>
