<svg width="150" height="51" viewBox="0 0 150 51" fill="none" xmlns="http://www.w3.org/2000/svg">
<g clip-path="url(#clip0_57_96077)">
<path fill-rule="evenodd" clip-rule="evenodd" d="M102.5 32.1883C102.5 32.4354 102.705 32.6358 102.959 32.6358H106.693C106.946 32.6358 107.151 32.4354 107.151 32.1883V5.95634C107.151 5.70916 106.946 5.50879 106.693 5.50879H102.959C102.705 5.50879 102.5 5.70916 102.5 5.95634V32.1883ZM33.8841 28.9651C35.74 28.9651 37.6684 28.2883 39.0213 27.084C39.1423 26.9763 39.3102 26.932 39.4682 26.9739L42.7351 27.8414C43.0194 27.9169 43.1582 28.2314 42.9992 28.4737C41.1644 31.271 37.3534 32.9385 33.8841 32.9385C28.0258 32.9385 23.4981 28.2957 23.4981 22.7969C23.4981 17.075 28.2154 12.6173 33.8841 12.6173C38.9039 12.6173 43.1279 16.1829 44.0411 20.8644L44.0422 20.8695C44.2734 21.9017 44.3601 22.983 44.1829 24.0678C44.1489 24.2765 43.9604 24.4241 43.744 24.4241H28.3036C28.1804 24.4241 28.0886 24.5347 28.114 24.6524C28.7173 27.4408 31.0567 28.9651 33.8841 28.9651ZM28.1152 20.8225C28.0858 20.9415 28.1782 21.0561 28.3036 21.0561H39.3485C39.4739 21.0561 39.5663 20.9415 39.5369 20.8225C38.9746 18.5479 36.8856 16.5907 33.8454 16.5907C30.8069 16.5907 28.6779 18.5463 28.1152 20.8225ZM66.1817 20.4506V32.1883C66.1817 32.4354 65.9765 32.6358 65.7234 32.6358H61.9896C61.7365 32.6358 61.5313 32.4354 61.5313 32.1883V21.7372C61.5313 18.721 59.3539 16.8178 56.8032 16.8178C53.6113 16.8178 51.5327 19.3488 51.5327 22.494V32.1883C51.5327 32.4354 51.3275 32.6358 51.0744 32.6358H47.3405C47.0874 32.6358 46.8822 32.4354 46.8822 32.1883V13.4054C46.8822 13.1582 47.0874 12.9579 47.3405 12.9579H51.0744C51.3275 12.9579 51.5327 13.1582 51.5327 13.4054V14.6492C51.5327 14.8241 51.7548 14.9054 51.8726 14.7736C52.7166 13.8282 55.1197 12.6173 57.8109 12.6173C62.1825 12.6173 66.1817 15.5423 66.1817 20.4506ZM94.0686 32.1883C94.0686 32.4354 94.2738 32.6358 94.5269 32.6358H98.2608C98.5139 32.6358 98.7188 32.4354 98.7188 32.1883V13.4054C98.7188 13.1582 98.5139 12.9579 98.2608 12.9579H94.5269C94.2738 12.9579 94.0686 13.1582 94.0686 13.4054V14.7408C94.0686 14.9118 93.8549 14.9951 93.7343 14.8712C92.2963 13.3931 90.2536 12.6173 87.713 12.6173C82.2449 12.6173 77.7144 17.068 77.7144 22.7969C77.7144 28.3004 82.2468 32.9385 87.713 32.9385C90.256 32.9385 92.299 32.3529 93.736 30.9128C93.8573 30.7912 94.0686 30.8751 94.0686 31.0449V32.1883ZM88.2167 28.8516C84.6945 28.8516 82.0548 26.0753 82.0548 22.7969C82.0548 19.52 84.6929 16.7042 88.2167 16.7042C91.6219 16.7042 94.3786 19.5175 94.3786 22.7969C94.3786 26.0784 91.5807 28.8516 88.2167 28.8516ZM74.4932 13.4054C74.4932 13.1582 74.288 12.9579 74.0349 12.9579H70.3011C70.048 12.9579 69.8428 13.1582 69.8428 13.4054V32.1883C69.8428 32.4354 70.048 32.6358 70.3011 32.6358H74.0349C74.288 32.6358 74.4932 32.4354 74.4932 32.1883V13.4054ZM14.5567 32.1806C14.6224 32.153 14.6985 32.1638 14.7534 32.2086C15.716 32.995 16.3166 34.0548 16.3166 35.2305C16.3166 36.4772 15.6414 37.5933 14.5752 38.3916C13.5093 39.1899 12.0449 39.6784 10.435 39.6784C8.82523 39.6784 7.36083 39.1899 6.29488 38.3916C5.22874 37.5933 4.55349 36.4772 4.55349 35.2305C4.55349 35.1314 4.47322 35.0484 4.37185 35.0484H0.192158C0.0865691 35.0484 0 35.1307 0 35.2338C0 40.0187 4.64344 43.9443 10.435 43.9443C16.2266 43.9443 20.8702 40.0187 20.8702 35.2338C20.8702 33.104 19.9538 31.149 18.4248 29.6313C18.3561 29.5631 18.3517 29.455 18.415 29.3818C19.947 27.6077 20.8702 25.3161 20.8702 22.8134C20.8702 17.1838 16.1982 12.6202 10.435 12.6202C4.67193 12.6202 0 17.1838 0 22.8134C0 28.4429 4.67193 33.0065 10.435 33.0065C11.8993 33.0065 13.2926 32.7121 14.5567 32.1806ZM16.6961 22.8134C16.6961 26.191 13.8929 28.9293 10.435 28.9293C6.97718 28.9293 4.17402 26.191 4.17402 22.8134C4.17402 19.4357 6.97718 16.6975 10.435 16.6975C13.8929 16.6975 16.6961 19.4357 16.6961 22.8134Z" fill="white"/>
<path fill-rule="evenodd" clip-rule="evenodd" d="M16.6622 5.50879C15.6525 5.50879 14.834 6.31234 14.834 7.30357V7.54557C14.834 8.5368 15.6525 9.34036 16.6622 9.34036H20.0723V12.6879C20.0723 13.6792 20.8909 14.4827 21.9006 14.4827H22.1471C23.1568 14.4827 23.9755 13.6792 23.9755 12.6879V9.34036V7.30357C23.9755 6.33632 23.196 5.54778 22.2201 5.51019C22.205 5.50961 22.1898 5.50921 22.1746 5.50899C22.1655 5.50886 22.1563 5.50879 22.1471 5.50879H20.0723H16.6622Z" fill="white"/>
<path d="M26.3652 43.9445V37.9229H27.2952V43.9445H26.3652Z" fill="white"/>
<path d="M33.698 43.9447V40.4086C33.698 39.879 33.5364 39.4519 33.2134 39.1274C32.8991 38.7943 32.48 38.6277 31.9561 38.6277C31.5981 38.6277 31.2837 38.7046 31.0131 38.8583C30.7423 39.0121 30.5285 39.2213 30.3713 39.4861C30.2142 39.7509 30.1355 40.0541 30.1355 40.3958L29.7165 40.1651C29.7165 39.7125 29.8256 39.3067 30.0439 38.948C30.2622 38.5892 30.5547 38.3074 30.9214 38.1025C31.2968 37.8974 31.7247 37.7949 32.2049 37.7949C32.6764 37.7949 33.0955 37.906 33.4622 38.128C33.829 38.3501 34.1128 38.6491 34.3136 39.0249C34.5231 39.4007 34.628 39.8106 34.628 40.2548V43.9447H33.698ZM29.2188 43.9447V37.923H30.1355V43.9447H29.2188Z" fill="white"/>
<path d="M38.5569 43.9445L35.7148 37.9229H36.7365L39.1333 43.1885H38.5569L40.9669 37.9229H41.9623L39.094 43.9445H38.5569Z" fill="white"/>
<path d="M45.7618 44.0728C45.1419 44.0728 44.5874 43.9361 44.0985 43.6628C43.6095 43.3894 43.2209 43.0136 42.9328 42.5354C42.6534 42.057 42.5137 41.5189 42.5137 40.9211C42.5137 40.3317 42.6534 39.8022 42.9328 39.3324C43.2122 38.8541 43.5921 38.4783 44.0723 38.205C44.5525 37.9316 45.0895 37.7949 45.6833 37.7949C46.2421 37.7949 46.7354 37.9188 47.1632 38.1665C47.5998 38.4142 47.9403 38.7601 48.1848 39.2042C48.438 39.6399 48.5647 40.1438 48.5647 40.716C48.5647 40.7844 48.5602 40.8655 48.5516 40.9595C48.5428 41.0449 48.5254 41.1474 48.4991 41.267H43.1686V40.4982H48.0014L47.674 40.7801C47.6828 40.336 47.6041 39.9558 47.4383 39.6399C47.2811 39.3153 47.0498 39.0676 46.7441 38.8968C46.4473 38.7174 46.0849 38.6277 45.6571 38.6277C45.2118 38.6277 44.8232 38.7217 44.4914 38.9096C44.1596 39.0975 43.8976 39.3622 43.7055 39.7039C43.5222 40.037 43.4305 40.4342 43.4305 40.8954C43.4305 41.3567 43.5265 41.7623 43.7186 42.1125C43.9195 42.4628 44.1945 42.7361 44.5438 42.9325C44.9018 43.1289 45.3121 43.2272 45.7749 43.2272C46.1503 43.2272 46.4953 43.1631 46.8096 43.0349C47.124 42.8983 47.3903 42.6976 47.6086 42.4329L48.198 43.0222C47.9098 43.3553 47.5518 43.6158 47.124 43.8037C46.7048 43.983 46.2508 44.0728 45.7618 44.0728Z" fill="white"/>
<path d="M51.9186 44.0728C51.5867 44.0728 51.2681 44.0301 50.9625 43.9447C50.6568 43.8507 50.3774 43.7225 50.1242 43.5603C49.8797 43.398 49.6658 43.2058 49.4824 42.9838L50.0718 42.3944C50.3163 42.6848 50.5914 42.9026 50.8969 43.0478C51.2113 43.1845 51.5606 43.2528 51.9448 43.2528C52.3552 43.2528 52.6738 43.1759 52.9009 43.0222C53.1366 42.8685 53.2545 42.6549 53.2545 42.3816C53.2545 42.1253 53.1715 41.9246 53.0056 41.7794C52.8398 41.6342 52.6258 41.5189 52.3638 41.4335C52.1106 41.3481 51.84 41.267 51.5518 41.1901C51.2636 41.1046 50.9887 41.0022 50.7267 40.8826C50.4647 40.7545 50.2509 40.5794 50.0849 40.3573C49.9278 40.1353 49.8492 39.8449 49.8492 39.4861C49.8492 39.1445 49.9321 38.8498 50.098 38.6021C50.2727 38.3459 50.5172 38.1494 50.8315 38.0127C51.1545 37.8675 51.5344 37.7949 51.9709 37.7949C52.4337 37.7949 52.8528 37.8761 53.2283 38.0384C53.6037 38.2006 53.905 38.4398 54.132 38.7558L53.5426 39.3324C53.3593 39.1017 53.1279 38.9267 52.8484 38.8071C52.5778 38.679 52.2722 38.6149 51.9317 38.6149C51.5387 38.6149 51.2375 38.6918 51.0279 38.8455C50.8271 38.9907 50.7267 39.1829 50.7267 39.422C50.7267 39.6526 50.8097 39.8363 50.9756 39.973C51.1414 40.1011 51.351 40.2078 51.6043 40.2933C51.8661 40.3701 52.1412 40.4513 52.4294 40.5367C52.7175 40.6135 52.9925 40.7204 53.2545 40.857C53.5165 40.9851 53.726 41.1644 53.8832 41.395C54.0491 41.6172 54.132 41.9204 54.132 42.3047C54.132 42.8428 53.9312 43.2741 53.5295 43.5987C53.1366 43.9148 52.5996 44.0728 51.9186 44.0728Z" fill="white"/>
<path d="M58.5177 44.0722C58.1596 44.0722 57.8322 43.9996 57.5353 43.8543C57.2472 43.7006 57.0202 43.4829 56.8543 43.201C56.6883 42.9106 56.6055 42.5561 56.6055 42.1376V35.3857H57.5353V42.1119C57.5353 42.4792 57.627 42.7568 57.8104 42.9447C57.9937 43.1326 58.2469 43.2266 58.57 43.2266C58.7709 43.2266 58.9498 43.1924 59.107 43.1241C59.2642 43.0558 59.4127 42.949 59.5523 42.8037L60.1286 43.3675C59.919 43.5982 59.6876 43.7732 59.4344 43.8928C59.1812 44.0123 58.8756 44.0722 58.5177 44.0722ZM55.0469 38.7552V37.9225H59.9059V38.7552H55.0469Z" fill="white"/>
<path d="M61.4844 43.9445V37.9229H62.4143V43.9445H61.4844Z" fill="white"/>
<path d="M64.3379 43.9447V37.923H65.2547V43.9447H64.3379ZM68.5683 43.9447V40.2548C68.5683 39.7594 68.4155 39.3666 68.1099 39.0761C67.8042 38.7772 67.4201 38.6277 66.9573 38.6277C66.6429 38.6277 66.3549 38.6961 66.0929 38.8327C65.8397 38.9608 65.6345 39.1445 65.4773 39.3836C65.3289 39.6227 65.2547 39.9089 65.2547 40.242L64.8356 40.0755C64.8356 39.6143 64.9404 39.2128 65.1499 38.8711C65.3594 38.5295 65.6388 38.2647 65.9881 38.0768C66.3461 37.8889 66.7478 37.7949 67.1931 37.7949C67.6297 37.7949 68.0182 37.8889 68.3587 38.0768C68.708 38.2647 68.9831 38.5295 69.1838 38.8711C69.3934 39.2128 69.4982 39.6185 69.4982 40.0883V43.9447H68.5683ZM72.8118 43.9447V40.2548C72.8118 39.7594 72.659 39.3666 72.3534 39.0761C72.0478 38.7772 71.6592 38.6277 71.1877 38.6277C70.8822 38.6277 70.5983 38.6961 70.3365 38.8327C70.0832 38.9608 69.878 39.1445 69.7209 39.3836C69.5725 39.6227 69.4982 39.9089 69.4982 40.242L68.9481 40.0755C68.9743 39.6143 69.0965 39.2128 69.3148 38.8711C69.5419 38.5295 69.8343 38.2647 70.1924 38.0768C70.5591 37.8889 70.9607 37.7949 71.3973 37.7949C71.8339 37.7949 72.2268 37.8889 72.5761 38.0768C72.934 38.2647 73.2135 38.5295 73.4143 38.8711C73.6238 39.2128 73.7286 39.6185 73.7286 40.0883V43.9447H72.8118Z" fill="white"/>
<path d="M78.3595 44.0728C77.7395 44.0728 77.1851 43.9361 76.696 43.6628C76.2071 43.3894 75.8186 43.0136 75.5304 42.5354C75.251 42.057 75.1113 41.5189 75.1113 40.9211C75.1113 40.3317 75.251 39.8022 75.5304 39.3324C75.8098 38.8541 76.1896 38.4783 76.6699 38.205C77.1501 37.9316 77.6871 37.7949 78.2808 37.7949C78.8397 37.7949 79.333 37.9188 79.7609 38.1665C80.1974 38.4142 80.538 38.7601 80.7824 39.2042C81.0356 39.6399 81.1622 40.1438 81.1622 40.716C81.1622 40.7844 81.1579 40.8655 81.1491 40.9595C81.1405 41.0449 81.1229 41.1474 81.0968 41.267H75.7661V40.4982H80.5991L80.2717 40.7801C80.2804 40.336 80.2018 39.9558 80.0358 39.6399C79.8787 39.3153 79.6473 39.0676 79.3417 38.8968C79.0448 38.7174 78.6825 38.6277 78.2546 38.6277C77.8093 38.6277 77.4208 38.7217 77.089 38.9096C76.7572 39.0975 76.4953 39.3622 76.3032 39.7039C76.1198 40.037 76.0281 40.4342 76.0281 40.8954C76.0281 41.3567 76.1242 41.7623 76.3163 42.1125C76.5171 42.4628 76.7921 42.7361 77.1414 42.9325C77.4994 43.1289 77.9098 43.2272 78.3725 43.2272C78.748 43.2272 79.0928 43.1631 79.4072 43.0349C79.7215 42.8983 79.9878 42.6976 80.2061 42.4329L80.7955 43.0222C80.5074 43.3553 80.1494 43.6158 79.7215 43.8037C79.3025 43.983 78.8484 44.0728 78.3595 44.0728Z" fill="white"/>
<path d="M87.1102 43.9447V40.4086C87.1102 39.879 86.9486 39.4519 86.6256 39.1274C86.3112 38.7943 85.8921 38.6277 85.3682 38.6277C85.0102 38.6277 84.6959 38.7046 84.4252 38.8583C84.1545 39.0121 83.9406 39.2213 83.7835 39.4861C83.6263 39.7509 83.5477 40.0541 83.5477 40.3958L83.1286 40.1651C83.1286 39.7125 83.2377 39.3067 83.456 38.948C83.6743 38.5892 83.9668 38.3074 84.3335 38.1025C84.7089 37.8974 85.1369 37.7949 85.617 37.7949C86.0885 37.7949 86.5077 37.906 86.8744 38.128C87.2412 38.3501 87.5249 38.6491 87.7258 39.0249C87.9353 39.4007 88.0401 39.8106 88.0401 40.2548V43.9447H87.1102ZM82.6309 43.9447V37.923H83.5477V43.9447H82.6309Z" fill="white"/>
<path d="M92.6895 44.0722C92.3315 44.0722 92.0041 43.9996 91.7072 43.8543C91.419 43.7006 91.1921 43.4829 91.0262 43.201C90.8602 42.9106 90.7773 42.5561 90.7773 42.1376V35.3857H91.7072V42.1119C91.7072 42.4792 91.7989 42.7568 91.9823 42.9447C92.1656 43.1326 92.4188 43.2266 92.7419 43.2266C92.9427 43.2266 93.1217 43.1924 93.2789 43.1241C93.436 43.0558 93.5845 42.949 93.7242 42.8037L94.3005 43.3675C94.0909 43.5982 93.8595 43.7732 93.6063 43.8928C93.3531 44.0123 93.0475 44.0722 92.6895 44.0722ZM89.2188 38.7552V37.9225H94.0778V38.7552H89.2188Z" fill="white"/>
<path d="M98.4439 44.0728C97.8501 44.0728 97.3088 43.9318 96.8197 43.6499C96.3396 43.3681 95.9553 42.988 95.6672 42.5097C95.3878 42.0314 95.248 41.4976 95.248 40.9083C95.248 40.3274 95.3878 39.8022 95.6672 39.3324C95.9553 38.8626 96.3396 38.4911 96.8197 38.2178C97.3088 37.9359 97.8501 37.7949 98.4439 37.7949C99.0459 37.7949 99.588 37.9316 100.068 38.205C100.548 38.4783 100.928 38.8541 101.207 39.3324C101.495 39.8022 101.64 40.3274 101.64 40.9083C101.64 41.5061 101.495 42.0442 101.207 42.5225C100.928 42.9922 100.548 43.3681 100.068 43.6499C99.588 43.9318 99.0459 44.0728 98.4439 44.0728ZM98.4439 43.2015C98.8804 43.2015 99.2647 43.1033 99.5959 42.9069C99.9369 42.7104 100.203 42.4371 100.395 42.087C100.596 41.7367 100.697 41.3438 100.697 40.9083C100.697 40.4726 100.596 40.0883 100.395 39.7552C100.203 39.4135 99.9369 39.1445 99.5959 38.948C99.2647 38.7516 98.8804 38.6533 98.4439 38.6533C98.016 38.6533 97.6317 38.7516 97.2912 38.948C96.9507 39.1445 96.6844 39.4135 96.4923 39.7552C96.3002 40.0883 96.2042 40.4726 96.2042 40.9083C96.2042 41.3524 96.3002 41.7495 96.4923 42.0997C96.6844 42.4414 96.9507 42.7104 97.2912 42.9069C97.6317 43.1033 98.016 43.2015 98.4439 43.2015Z" fill="white"/>
<path d="M105.05 44.0728C104.717 44.0728 104.398 44.0301 104.093 43.9447C103.787 43.8507 103.508 43.7225 103.255 43.5603C103.01 43.398 102.797 43.2058 102.613 42.9838L103.203 42.3944C103.447 42.6848 103.722 42.9026 104.028 43.0478C104.342 43.1845 104.691 43.2528 105.075 43.2528C105.485 43.2528 105.805 43.1759 106.031 43.0222C106.267 42.8685 106.385 42.6549 106.385 42.3816C106.385 42.1253 106.302 41.9246 106.137 41.7794C105.97 41.6342 105.756 41.5189 105.494 41.4335C105.241 41.3481 104.971 41.267 104.682 41.1901C104.394 41.1046 104.119 41.0022 103.857 40.8826C103.595 40.7545 103.381 40.5794 103.215 40.3573C103.059 40.1353 102.98 39.8449 102.98 39.4861C102.98 39.1445 103.063 38.8498 103.228 38.6021C103.404 38.3459 103.648 38.1494 103.963 38.0127C104.285 37.8675 104.665 37.7949 105.102 37.7949C105.564 37.7949 105.983 37.8761 106.358 38.0384C106.734 38.2006 107.036 38.4398 107.262 38.7558L106.673 39.3324C106.49 39.1017 106.259 38.9267 105.979 38.8071C105.708 38.679 105.402 38.6149 105.062 38.6149C104.669 38.6149 104.368 38.6918 104.159 38.8455C103.958 38.9907 103.857 39.1829 103.857 39.422C103.857 39.6526 103.94 39.8363 104.106 39.973C104.272 40.1011 104.482 40.2078 104.735 40.2933C104.996 40.3701 105.271 40.4513 105.56 40.5367C105.848 40.6135 106.123 40.7204 106.385 40.857C106.647 40.9851 106.856 41.1644 107.014 41.395C107.179 41.6172 107.262 41.9204 107.262 42.3047C107.262 42.8428 107.062 43.2741 106.66 43.5987C106.267 43.9148 105.731 44.0728 105.05 44.0728Z" fill="white"/>
</g>
<defs>
<clipPath id="clip0_57_96077">
<rect width="107.427" height="38.5636" fill="white" transform="translate(0 5.50879)"/>
</clipPath>
</defs>
</svg>
