<svg width="133" height="45" viewBox="0 0 133 45" fill="none" xmlns="http://www.w3.org/2000/svg">
<g clip-path="url(#clip0_57_96043)">
<path d="M64.0724 28.2V11.3809H59.4199V28.2H64.0724Z" fill="white"/>
<path d="M64.0724 8.65875V4.89746H59.4199V8.65875H64.0724Z" fill="white"/>
<path d="M26.8209 19.4538H15.8616V15.2037H31.7231V18.1704C31.7231 25.7238 25.572 28.598 15.8616 28.598C6.151 28.598 0 25.7238 0 18.1704V16.6092C0 9.05573 6.151 6.18164 15.8616 6.18164C23.8548 6.18164 29.4437 8.13837 31.1611 13.0323H25.6032C23.6361 10.9514 19.7645 10.4318 15.8616 10.4318C10.2726 10.4318 4.77725 11.5027 4.77725 16.6092V18.1704C4.77725 23.2768 10.2726 24.3478 15.8616 24.3478C20.951 24.3478 25.9466 23.4598 26.8209 19.4538Z" fill="white"/>
<path d="M50.7806 24.4995C49.1569 26.5799 46.1594 28.5982 42.7872 28.5982C37.7914 28.5982 34.8564 25.4485 34.8564 20.4941V11.3809H39.5088V19.5761C39.5088 23.2458 40.7263 24.3772 44.2548 24.3772C46.5652 24.3772 49.0945 23.4303 50.7806 22.3901V11.3809H55.4328V28.2003H50.7806V24.4995Z" fill="white"/>
<path fill-rule="evenodd" clip-rule="evenodd" d="M85.2187 24.5931C83.4702 26.6711 80.2855 28.5993 76.1326 28.5993C70.9184 28.5993 67.2344 25.3259 67.2344 20.2489V19.2711C67.2344 14.194 70.9184 10.9227 76.1326 10.9227C80.2855 10.9227 83.4702 12.8488 85.2187 14.929V4.89746H89.8712V28.2002H85.2187V24.5931ZM77.9748 24.3777C80.5977 24.3777 83.5325 23.4294 85.2187 22.4516V17.0683C83.5325 16.0905 80.5977 15.1423 77.9748 15.1423C74.3846 15.1423 71.6365 16.3968 71.6365 19.2711V20.2489C71.6365 23.1253 74.3846 24.3777 77.9748 24.3777Z" fill="white"/>
<path fill-rule="evenodd" clip-rule="evenodd" d="M114.202 20.9231V19.4229C114.202 13.7957 110.205 10.9219 103.805 10.9219C97.1539 10.9219 92.751 13.9492 92.751 19.5765V20.2488C92.751 25.876 96.5917 28.1999 104.024 28.1999H109.081V24.2243H103.867C99.9332 24.2243 97.5598 23.3072 97.2168 20.9231H114.202ZM109.081 17.7422H97.4978C98.2782 15.9059 100.308 14.775 103.711 14.775C106.771 14.775 108.613 15.7233 109.081 17.7422Z" fill="white"/>
<path fill-rule="evenodd" clip-rule="evenodd" d="M115.468 27.3039V25.123H116.362C116.86 25.123 117.11 25.3025 117.11 25.6633C117.11 25.9523 116.951 26.1597 116.635 26.2852L117.29 27.3039H116.709L116.207 26.4128H115.924V27.3039H115.468ZM115.924 26.1138H116.043C116.427 26.1138 116.619 25.9802 116.619 25.7151C116.619 25.5197 116.447 25.424 116.102 25.424H115.924V26.1138Z" fill="white"/>
<path fill-rule="evenodd" clip-rule="evenodd" d="M116.264 28.2369C115.707 28.2369 115.228 28.0376 114.828 27.6409C114.427 27.2422 114.228 26.7697 114.228 26.2176C114.228 25.6614 114.429 25.1849 114.832 24.7902C115.235 24.3975 115.72 24.2002 116.288 24.2002C116.855 24.2002 117.341 24.3975 117.744 24.7902C118.147 25.1849 118.348 25.6594 118.348 26.2135C118.348 26.7777 118.146 27.2562 117.742 27.6489C117.339 28.0396 116.846 28.2369 116.264 28.2369ZM116.264 27.902C116.825 27.902 117.27 27.7007 117.6 27.2961C117.871 26.9671 118.006 26.6062 118.006 26.2156C118.006 25.8289 117.871 25.47 117.6 25.1411C117.27 24.7364 116.832 24.5351 116.288 24.5351C115.743 24.5351 115.306 24.7364 114.976 25.1411C114.705 25.47 114.57 25.8289 114.57 26.2176C114.57 26.6761 114.737 27.0708 115.072 27.4037C115.407 27.7346 115.804 27.902 116.264 27.902Z" fill="white"/>
<path d="M34.876 34.7285V39.8385H36.3647V34.7285H34.876Z" fill="white"/>
<path d="M34.8555 32.792V34.0438H36.3842V32.792H34.8555Z" fill="white"/>
<path d="M42.1001 39.8378V36.8041C42.1001 36.4259 42.0082 36.1518 41.8252 35.982C41.6419 35.8121 41.3504 35.7273 40.9508 35.7273C40.7376 35.7273 40.5264 35.7678 40.3161 35.845C40.1063 35.9241 39.9249 36.0341 39.7717 36.1788C39.4921 36.4394 39.3521 36.7327 39.3521 37.0589V39.8378H37.8633V34.7295H39.3223V35.5517C39.8817 34.8994 40.6012 34.5732 41.4804 34.5732C42.16 34.5732 42.6811 34.7412 43.0442 35.0769C43.4072 35.4127 43.5887 35.8952 43.5887 36.5204V39.8378H42.1001Z" fill="white"/>
<path d="M44.2686 34.7295L46.6466 39.8372H48.2551L50.6332 34.7295H49.0545L47.4757 38.4869L45.9073 34.7295H44.2686Z" fill="white"/>
<path fill-rule="evenodd" clip-rule="evenodd" d="M52.4215 37.6349C52.428 37.8896 52.4995 38.1154 52.6361 38.3103C52.7726 38.5072 52.9623 38.6596 53.2057 38.7715C53.4488 38.8815 53.7305 38.9375 54.05 38.9375C54.8294 38.9375 55.3125 38.706 55.4991 38.2428H56.888C56.748 38.8353 56.4396 39.2772 55.9633 39.5628C55.4871 39.8504 54.8326 39.9932 54.0003 39.9932C53.0544 39.9932 52.3198 39.7616 51.7968 39.2985C51.2738 38.8353 51.0127 38.1868 51.0127 37.3513C51.0127 36.8167 51.1339 36.3381 51.3772 35.9174C51.6203 35.4966 51.9698 35.1685 52.4262 34.9292C52.8825 34.6919 53.4173 34.5723 54.03 34.5723C54.9627 34.5723 55.6839 34.8019 56.1935 35.2631C56.7028 35.7224 56.9576 36.367 56.9576 37.1949V37.6349H52.4215ZM55.5689 36.7452C55.5553 36.3863 55.4125 36.1064 55.1393 35.9077C54.866 35.7089 54.4864 35.6105 54.0003 35.6105C53.5871 35.6105 53.2358 35.7166 52.9462 35.9328C52.6563 36.147 52.4945 36.4191 52.4614 36.7452H55.5689Z" fill="white"/>
<path d="M61.544 35.7321C61.7571 35.8324 61.9005 35.9907 61.9738 36.2068L63.3826 36.0505C63.2429 35.541 62.9532 35.1685 62.5133 34.9292C62.0736 34.6919 61.4506 34.5723 60.6448 34.5723C59.8121 34.5723 59.1645 34.7092 58.7013 34.9833C58.2384 35.2573 58.0069 35.6433 58.0069 36.1374C58.0069 36.6217 58.1754 36.9846 58.5114 37.2296C58.848 37.4747 59.4324 37.6581 60.2651 37.7816L60.9047 37.8703C61.3376 37.9282 61.6392 37.9977 61.809 38.0768C61.9789 38.154 62.0638 38.266 62.0638 38.4088C62.0638 38.5979 61.9604 38.7349 61.7539 38.8198C61.5472 38.9047 61.2144 38.9472 60.7549 38.9472C59.8687 38.9472 59.3692 38.7021 59.2558 38.2119H57.8271C57.9069 38.814 58.1901 39.2598 58.6766 39.5532C59.1626 39.8465 59.8622 39.9932 60.7749 39.9932C61.6738 39.9932 62.3534 39.8561 62.8131 39.5783C63.2726 39.3004 63.5023 38.8912 63.5023 38.3489C63.5023 38.0363 63.4342 37.7777 63.2976 37.5713C63.1613 37.3667 62.9295 37.1968 62.6032 37.0636C62.2769 36.9285 61.8104 36.8205 61.2045 36.7356L60.5149 36.6371C60.0819 36.5716 59.7889 36.504 59.6357 36.4327C59.4824 36.3593 59.4058 36.2531 59.4058 36.1084C59.4058 35.7571 59.8186 35.5796 60.6448 35.5796C61.0311 35.5796 61.3308 35.6317 61.544 35.7321Z" fill="white"/>
<path d="M68.4882 39.7213C68.0222 39.8647 67.5325 39.9363 67.0195 39.9363C66.3602 39.9363 65.8804 39.791 65.5809 39.5005C65.2811 39.2099 65.1312 38.7489 65.1312 38.1154V35.8158H64.1221V34.729H65.1312V33.3691H66.6199V34.729H68.3286V35.8158H66.6199V38.0669C66.6199 38.3207 66.683 38.5086 66.8098 38.6287C66.9364 38.7508 67.136 38.8108 67.4093 38.8108C67.6959 38.8108 67.9888 38.7643 68.2887 38.6733L68.4882 39.7213Z" fill="white"/>
<path d="M69.4482 34.7285V39.8385H70.937V34.7285H69.4482Z" fill="white"/>
<path d="M69.4277 32.792V34.0438H70.9565V32.792H69.4277Z" fill="white"/>
<path d="M80.1695 39.8368V36.7742C80.1695 36.4017 80.0911 36.1354 79.9347 35.9714C79.7779 35.8092 79.5298 35.7263 79.1901 35.7263C78.8105 35.7263 78.4674 35.8671 78.161 36.147C78.0477 36.2531 77.9577 36.3747 77.8912 36.5156C77.8245 36.6546 77.7914 36.8013 77.7914 36.9499V39.8368H76.3024V36.7742C76.3024 36.4095 76.224 36.1431 76.0676 35.9771C75.9111 35.8112 75.6632 35.7263 75.3233 35.7263C74.9237 35.7263 74.5803 35.8768 74.2942 36.1778C74.0473 36.4326 73.9243 36.726 73.9243 37.0579V39.8368H72.4355V34.7285H73.8947V35.5507C74.4205 34.8984 75.0737 34.5723 75.853 34.5723C76.2857 34.5723 76.6523 34.6591 76.9518 34.8309C77.2517 35.0045 77.4715 35.2535 77.6114 35.5796C77.8912 35.2419 78.2042 34.9891 78.5509 34.8212C78.8967 34.6552 79.29 34.5723 79.73 34.5723C80.3493 34.5723 80.8255 34.7402 81.1586 35.0759C81.4917 35.4117 81.6581 35.8942 81.6581 36.5195V39.8368H80.1695Z" fill="white"/>
<path fill-rule="evenodd" clip-rule="evenodd" d="M84.4704 38.3103C84.3339 38.1154 84.2623 37.8896 84.2555 37.6349H88.792V37.1949C88.792 36.367 88.5372 35.7224 88.0275 35.2631C87.5181 34.8019 86.797 34.5723 85.8645 34.5723C85.2516 34.5723 84.7169 34.6919 84.2606 34.9292C83.8043 35.1685 83.4547 35.4966 83.2116 35.9174C82.9683 36.3381 82.8467 36.8167 82.8467 37.3513C82.8467 38.1868 83.108 38.8353 83.6311 39.2985C84.1541 39.7616 84.8886 39.9932 85.8345 39.9932C86.6669 39.9932 87.3215 39.8504 87.7977 39.5628C88.274 39.2772 88.5821 38.8353 88.722 38.2428H87.3331C87.1465 38.706 86.6636 38.9375 85.8843 38.9375C85.5645 38.9375 85.2832 38.8815 85.04 38.7715C84.7967 38.6596 84.607 38.5072 84.4704 38.3103ZM86.9733 35.9077C87.2466 36.1064 87.3897 36.3863 87.4031 36.7452H84.2959C84.3287 36.4191 84.4903 36.147 84.7804 35.9328C85.07 35.7166 85.4215 35.6105 85.8345 35.6105C86.3206 35.6105 86.7003 35.7089 86.9733 35.9077Z" fill="white"/>
<path d="M94.2681 39.8378V36.8041C94.2681 36.4259 94.1757 36.1518 93.9935 35.982C93.8095 35.8121 93.5183 35.7273 93.1188 35.7273C92.9053 35.7273 92.6945 35.7678 92.4846 35.845C92.2746 35.9241 92.0927 36.0341 91.9395 36.1788C91.6601 36.4394 91.52 36.7327 91.52 37.0589V39.8378H90.0312V34.7295H91.4903V35.5517C92.0496 34.8994 92.7694 34.5732 93.6477 34.5732C94.3273 34.5732 94.8488 34.7412 95.2121 35.0769C95.5755 35.4127 95.7567 35.8952 95.7567 36.5204V39.8378H94.2681Z" fill="white"/>
<path d="M99.4631 39.9363C99.9763 39.9363 100.466 39.8647 100.932 39.7213L100.733 38.6733C100.432 38.7643 100.14 38.8108 99.8533 38.8108C99.5796 38.8108 99.3799 38.7508 99.2532 38.6287C99.1266 38.5086 99.0637 38.3207 99.0637 38.0669V35.8158H100.772V34.729H99.0637V33.3691H97.5751V34.729H96.5654V35.8158H97.5751V38.1154C97.5751 38.7489 97.7249 39.2099 98.0244 39.5005C98.324 39.791 98.8039 39.9363 99.4631 39.9363Z" fill="white"/>
<path fill-rule="evenodd" clip-rule="evenodd" d="M107.657 37.2653C107.657 38.099 107.37 38.7629 106.797 39.2569C106.225 39.749 105.452 39.9942 104.479 39.9942C103.507 39.9942 102.747 39.7568 102.201 39.2801C101.656 38.8035 101.382 38.1453 101.382 37.3039C101.382 36.7617 101.509 36.285 101.762 35.8739C102.014 35.4628 102.379 35.1445 102.856 34.9148C103.332 34.6871 103.897 34.5732 104.549 34.5732C105.522 34.5732 106.283 34.8106 106.833 35.2834C107.382 35.7562 107.657 36.4162 107.657 37.2653ZM106.118 37.2846C106.118 36.7752 105.98 36.3814 105.703 36.1055C105.427 35.8277 105.032 35.6887 104.519 35.6887C104.013 35.6887 103.62 35.8295 103.34 36.1094C103.061 36.3911 102.92 36.781 102.92 37.2846C102.92 37.7922 103.059 38.1859 103.336 38.4638C103.612 38.7417 104.003 38.8787 104.51 38.8787C105.015 38.8787 105.41 38.7417 105.693 38.4638C105.976 38.1859 106.118 37.7922 106.118 37.2846Z" fill="white"/>
<path d="M112.243 35.7331C112.457 35.8334 112.6 35.9917 112.673 36.2078L114.082 36.0514C113.943 35.542 113.652 35.1695 113.212 34.9302C112.773 34.6928 112.15 34.5732 111.345 34.5732C110.511 34.5732 109.864 34.7102 109.401 34.9842C108.938 35.2583 108.706 35.6442 108.706 36.1384C108.706 36.6227 108.875 36.9856 109.211 37.2306C109.547 37.4757 110.131 37.659 110.965 37.7825L111.604 37.8713C112.037 37.9292 112.338 37.9986 112.509 38.0778C112.678 38.155 112.763 38.267 112.763 38.4097C112.763 38.5989 112.66 38.7359 112.453 38.8208C112.247 38.9057 111.914 38.9482 111.455 38.9482C110.568 38.9482 110.069 38.7031 109.955 38.2129H108.526C108.607 38.815 108.89 39.2608 109.376 39.5542C109.861 39.8475 110.561 39.9942 111.474 39.9942C112.374 39.9942 113.053 39.8571 113.513 39.5793C113.972 39.3014 114.202 38.8922 114.202 38.3499C114.202 38.0373 114.133 37.7787 113.997 37.5722C113.86 37.3677 113.629 37.1978 113.303 37.0646C112.976 36.9295 112.51 36.8214 111.904 36.7366L111.214 36.6381C110.781 36.5725 110.488 36.505 110.335 36.4336C110.182 36.3603 110.106 36.2541 110.106 36.1094C110.106 35.7581 110.518 35.5806 111.345 35.5806C111.73 35.5806 112.031 35.6327 112.243 35.7331Z" fill="white"/>
</g>
<defs>
<clipPath id="clip0_57_96043">
<rect width="118.348" height="35.0964" fill="white" transform="translate(0 4.89746)"/>
</clipPath>
</defs>
</svg>
