<svg width="234" height="62" viewBox="0 0 234 62" fill="none" xmlns="http://www.w3.org/2000/svg">
<g clip-path="url(#clip0_57_95966)">
<path d="M190.816 24.8564C186.002 24.8564 182.383 28.4941 182.383 33.3259C182.383 38.2312 185.91 41.7953 190.779 41.7953C195.592 41.7953 199.211 38.1577 199.211 33.3259C199.211 28.4206 195.684 24.8564 190.816 24.8564ZM196.217 33.3259C196.217 36.6512 193.939 39.0579 190.779 39.0579C187.656 39.0579 185.377 36.6512 185.377 33.3259C185.377 30.0006 187.656 27.5939 190.779 27.5939C193.92 27.5939 196.217 30.0006 196.217 33.3259Z" fill="white"/>
<path d="M179.424 25.2607H176.484V41.4096H179.424V25.2607Z" fill="white"/>
<path d="M203.4 45.0293H202.15V51.6248H203.4V45.0293Z" fill="white"/>
<path d="M206.431 51.6983C205.879 51.6983 205.475 51.5513 205.2 51.2574C204.924 50.9634 204.777 50.5409 204.777 49.9713V47.4728H203.969V46.5358H204.777V45.0293H205.99V46.5358H207.129V47.4728H205.99V49.8611C205.99 50.155 206.045 50.3755 206.173 50.5041C206.284 50.6511 206.467 50.7062 206.725 50.7062C206.908 50.7062 207.092 50.6695 207.276 50.596V51.5513C206.982 51.6615 206.706 51.6983 206.431 51.6983Z" fill="white"/>
<path d="M209.389 51.7353C208.893 51.7353 208.489 51.6066 208.195 51.3311C207.901 51.0555 207.754 50.7064 207.754 50.2655C207.754 49.696 207.974 49.255 208.434 48.9244C208.893 48.612 209.536 48.4467 210.381 48.4467H210.602C210.675 48.4467 210.749 48.4467 210.804 48.4651C210.785 48.0976 210.675 47.822 210.491 47.6567C210.308 47.473 210.014 47.3995 209.646 47.3995C209.169 47.3995 208.691 47.5281 208.195 47.8037V46.83C208.728 46.5544 209.26 46.4258 209.83 46.4258C210.51 46.4258 211.042 46.6095 211.41 46.9953C211.777 47.3627 211.961 47.8955 211.961 48.5937V51.625H210.951L210.877 51.0371C210.712 51.2576 210.51 51.4413 210.252 51.5515C209.995 51.6801 209.701 51.7353 209.389 51.7353ZM209.72 50.8718C210.014 50.8718 210.271 50.7615 210.491 50.5411C210.712 50.3206 210.804 50.0634 210.804 49.7511V49.2551C210.73 49.2551 210.675 49.2551 210.602 49.2551C210.528 49.2551 210.455 49.2551 210.399 49.2551C209.922 49.2551 209.554 49.3285 209.297 49.4755C209.04 49.6225 208.911 49.8429 208.911 50.1185C208.911 50.339 208.985 50.5227 209.132 50.6697C209.279 50.8167 209.481 50.8718 209.72 50.8718Z" fill="white"/>
<path d="M214.552 51.7349C214.038 51.7349 213.615 51.5512 213.303 51.2021C212.991 50.8347 212.844 50.357 212.844 49.7508V46.5541H214.056V49.567C214.056 49.9528 214.13 50.2468 214.295 50.4489C214.46 50.651 214.681 50.7612 214.975 50.7612C215.269 50.7612 215.508 50.651 215.691 50.4305C215.875 50.2101 215.967 49.9345 215.967 49.567V46.5541H217.18V51.6247H216.132L216.059 51.0368C215.893 51.2756 215.691 51.441 215.434 51.5696C215.159 51.6798 214.865 51.7349 214.552 51.7349ZM215.434 45.8559H214.369L215.416 44.3311H216.739L215.434 45.8559Z" fill="white"/>
<path d="M210.399 24.8564C208.819 24.8564 206.413 25.5913 205.072 27.5204V25.2423H202.15V41.3911H205.09V32.1685C205.09 29.6515 207.129 27.6122 209.646 27.6122C212.163 27.6122 214.202 29.6515 214.202 32.1685V41.3911H217.142V31.3233C217.16 27.6306 214.257 24.8564 210.399 24.8564Z" fill="white"/>
<path d="M190.763 17.263L175.98 21.501L176.497 23.3024L191.279 19.0644L190.763 17.263Z" fill="white"/>
<mask id="mask0_57_95966" style="mask-type:luminance" maskUnits="userSpaceOnUse" x="-2" y="19" width="142" height="28">
<path d="M139.062 19.6025H-1.28125V46.4438H139.062V19.6025Z" fill="white"/>
</mask>
<g mask="url(#mask0_57_95966)">
<mask id="mask1_57_95966" style="mask-type:luminance" maskUnits="userSpaceOnUse" x="-2" y="19" width="142" height="28">
<path d="M139.062 19.6025H-1.28125V46.4438H139.062V19.6025Z" fill="white"/>
</mask>
<g mask="url(#mask1_57_95966)">
<path d="M0.132812 39.9956V23.5527H3.95416V39.9956H0.132812Z" fill="white"/>
<path d="M11.9825 40.2345C10.4944 40.2345 9.35535 39.8487 8.6021 39.0771C7.83048 38.3055 7.46305 37.1664 7.46305 35.6232V30.0932H5.51562V27.264H7.46305V23.957H11.1558V27.264H13.8381V30.0932H11.1558V35.2741C11.1558 35.9539 11.2844 36.4683 11.5783 36.7806C11.8539 37.1113 12.2765 37.2766 12.8644 37.2766C13.3237 37.2766 13.7462 37.2032 14.132 37.0378V39.8854C13.3604 40.1243 12.6439 40.2345 11.9825 40.2345Z" fill="white"/>
<path d="M19.6616 40.3075C18.394 40.3075 17.3835 39.9585 16.6303 39.2787C15.877 38.5989 15.4912 37.6987 15.4912 36.578C15.4912 35.1267 16.0424 34.006 17.163 33.1976C18.2837 32.3892 19.8637 31.9851 21.903 31.9851C22.0867 31.9851 22.2521 31.9851 22.4358 32.0034C22.6195 32.0034 22.7848 32.0218 22.9686 32.0402C22.8951 31.3053 22.6195 30.7725 22.1786 30.4235C21.7376 30.0744 21.0763 29.8907 20.2128 29.8907C19.0186 29.8907 17.8244 30.203 16.6119 30.846V27.9433C17.9163 27.2819 19.3126 26.9512 20.8191 26.9512C22.6195 26.9512 24.0158 27.4288 24.9895 28.3842C25.9632 29.3395 26.4592 30.7174 26.4592 32.4995V39.9768H23.4462L23.2441 38.6357C22.8767 39.1501 22.3623 39.5543 21.7193 39.8482C21.1314 40.1606 20.4332 40.3075 19.6616 40.3075ZM20.7639 37.7906C21.3886 37.7906 21.9397 37.5701 22.3623 37.1108C22.8032 36.6515 23.0237 36.1004 23.0237 35.439V34.355C22.8767 34.3367 22.7297 34.3367 22.5644 34.3367C22.4174 34.3367 22.2521 34.3367 22.0867 34.3367C21.0946 34.3367 20.323 34.502 19.7902 34.8143C19.2391 35.1267 18.9819 35.586 18.9819 36.1739C18.9819 36.6699 19.1472 37.0741 19.4779 37.368C19.7902 37.6436 20.2312 37.7906 20.7639 37.7906Z" fill="white"/>
<path d="M32.9084 40.3075C31.604 40.3075 30.5752 39.8482 29.7852 38.948C29.0136 38.0477 28.6094 36.8536 28.6094 35.3471V27.2635H32.3021V34.7408C32.3021 35.5492 32.4675 36.1738 32.7982 36.6147C33.1289 37.0557 33.6065 37.2761 34.2312 37.2761C34.8558 37.2761 35.3335 37.0557 35.7009 36.6147C36.0684 36.1738 36.2521 35.5492 36.2521 34.7776V27.2818H39.9448V39.9952H36.7114L36.5093 38.5989C36.0867 39.1501 35.5723 39.5726 34.9293 39.8666C34.3414 40.1605 33.6616 40.3075 32.9084 40.3075ZM35.6091 25.7202H32.394L35.0395 21.8438H39.0079L35.6091 25.7202Z" fill="white"/>
</g>
</g>
<mask id="mask2_57_95966" style="mask-type:luminance" maskUnits="userSpaceOnUse" x="-2" y="19" width="142" height="28">
<path d="M139.062 19.6025H-1.28125V46.4438H139.062V19.6025Z" fill="white"/>
</mask>
<g mask="url(#mask2_57_95966)">
<mask id="mask3_57_95966" style="mask-type:luminance" maskUnits="userSpaceOnUse" x="-2" y="19" width="142" height="28">
<path d="M139.062 19.6025H-1.28125V46.4438H139.062V19.6025Z" fill="white"/>
</mask>
<g mask="url(#mask3_57_95966)">
<path d="M51.6479 40.3077C50.1598 40.3077 48.8554 39.9586 47.7531 39.2421C46.6508 38.5256 45.8057 37.5336 45.2178 36.2659C44.6299 34.9982 44.3359 33.5101 44.3359 31.8383C44.3359 30.0929 44.6483 28.5864 45.2913 27.282C45.9159 25.9776 46.7978 24.9856 47.9001 24.2874C49.0024 23.5893 50.2701 23.2402 51.7031 23.2402C52.4747 23.2402 53.2096 23.3505 53.9444 23.5893C54.6793 23.8098 55.2856 24.1221 55.8 24.5079V25.996C55.3407 25.5551 54.7528 25.206 54.0179 24.9304C53.283 24.6549 52.5298 24.5263 51.7949 24.5263C50.564 24.5263 49.4984 24.8202 48.5982 25.4265C47.698 26.0328 47.0182 26.8779 46.5589 27.9618C46.0813 29.0457 45.8608 30.3134 45.8608 31.7648C45.8608 33.2529 46.118 34.5573 46.6141 35.6412C47.1101 36.7252 47.8082 37.5703 48.7084 38.1398C49.6087 38.7094 50.6375 39.0033 51.7949 39.0033C53.3933 39.0033 54.8447 38.4705 56.1123 37.405V38.8931C54.8263 39.83 53.3382 40.3077 51.6479 40.3077Z" fill="white"/>
<path d="M63.7737 40.3079C62.6713 40.3079 61.6976 40.0324 60.8709 39.4628C60.0442 38.8933 59.4011 38.1217 58.9602 37.1296C58.5193 36.1559 58.2988 35.0352 58.2988 33.7859C58.2988 32.4632 58.5377 31.2874 59.0153 30.2953C59.493 29.3032 60.1544 28.5499 60.9811 27.9988C61.8079 27.466 62.7448 27.1904 63.8104 27.1904C64.9127 27.1904 65.8864 27.466 66.7132 28.0355C67.5583 28.5867 68.1829 29.3583 68.6238 30.3504C69.0648 31.3241 69.2852 32.4632 69.2852 33.7308C69.2852 35.0536 69.0464 36.2294 68.5687 37.2215C68.091 38.2136 67.4297 38.9668 66.6029 39.518C65.7578 40.0507 64.8208 40.3079 63.7737 40.3079ZM63.792 39.0403C65.0229 39.0403 66.015 38.5626 66.7315 37.6073C67.4664 36.6519 67.8338 35.3659 67.8338 33.7676C67.8338 32.1692 67.4664 30.9015 66.7315 29.9278C65.9966 28.9541 65.0046 28.4765 63.7737 28.4765C62.5427 28.4765 61.5507 28.9541 60.8342 29.9095C60.0993 30.8648 59.7318 32.1508 59.7318 33.7676C59.7318 35.3659 60.0993 36.6336 60.8342 37.6073C61.569 38.5626 62.5611 39.0403 63.792 39.0403Z" fill="white"/>
<path d="M72.0039 27.5211H73.2532L73.3451 29.4501C73.639 28.7703 74.0616 28.2376 74.6311 27.8518C75.1822 27.4659 75.8253 27.2822 76.5234 27.2822C76.9459 27.2822 77.3134 27.3373 77.6441 27.4476V28.7336C77.3134 28.6234 76.9459 28.5683 76.505 28.5683C75.5864 28.5683 74.8332 28.9357 74.282 29.6889C73.7309 30.4422 73.4369 31.4343 73.4369 32.6652V39.9956H72.0223L72.0039 27.5211Z" fill="white"/>
<path d="M80.2168 27.5211H81.4661L81.558 29.4501C81.8519 28.7703 82.2745 28.2376 82.844 27.8518C83.3951 27.4659 84.0382 27.2822 84.7363 27.2822C85.1588 27.2822 85.5263 27.3373 85.857 27.4476V28.7336C85.5263 28.6234 85.1588 28.5683 84.7179 28.5683C83.7993 28.5683 83.0461 28.9357 82.4949 29.6889C81.9438 30.4422 81.6498 31.4343 81.6498 32.6652V39.9956H80.2352L80.2168 27.5211Z" fill="white"/>
<path d="M92.8197 40.3072C91.0743 40.3072 89.7148 39.7193 88.686 38.5251C87.6755 37.3493 87.1611 35.7326 87.1611 33.7117C87.1611 32.3889 87.3816 31.2314 87.8225 30.2394C88.2634 29.2657 88.8881 28.5124 89.6781 27.9796C90.4681 27.4652 91.3867 27.208 92.4339 27.208C93.922 27.208 95.0978 27.7408 95.9613 28.8064C96.8064 29.8719 97.2473 31.36 97.2473 33.234V34.0791H88.5574C88.6309 35.6223 89.0534 36.8349 89.8251 37.6983C90.5967 38.5618 91.6255 39.0028 92.9483 39.0028C94.2894 39.0028 95.4836 38.6353 96.5308 37.8821V39.2232C95.4652 39.9581 94.2343 40.3072 92.8197 40.3072ZM92.3787 28.4573C91.2581 28.4573 90.3762 28.8431 89.7148 29.6331C89.0534 30.4047 88.686 31.5254 88.5758 32.94H95.9061C95.8694 31.5254 95.5571 30.4231 94.9324 29.6331C94.3262 28.8431 93.4811 28.4573 92.3787 28.4573Z" fill="white"/>
<path d="M103.806 40.2341C102.758 40.2341 101.95 39.9218 101.399 39.2971C100.848 38.6725 100.59 37.7723 100.59 36.5781V28.6782H98.4961V27.5024H100.59V24.0117H102.005V27.5024H105.22V28.6782H102.005V36.523C102.005 37.3864 102.17 38.0111 102.501 38.4153C102.832 38.8195 103.328 39.0032 104.008 39.0032C104.504 39.0032 105.055 38.8562 105.643 38.5622V39.7748C105.092 40.0871 104.485 40.2341 103.806 40.2341Z" fill="white"/>
<path d="M112.495 40.3079C111.393 40.3079 110.419 40.0324 109.593 39.4628C108.766 38.8933 108.123 38.1217 107.682 37.1296C107.241 36.1559 107.021 35.0352 107.021 33.7859C107.021 32.4632 107.259 31.2874 107.737 30.2953C108.215 29.3032 108.876 28.5499 109.703 27.9988C110.53 27.466 111.467 27.1904 112.532 27.1904C113.634 27.1904 114.608 27.466 115.435 28.0355C116.28 28.5867 116.905 29.3583 117.346 30.3504C117.786 31.3241 118.007 32.4632 118.007 33.7308C118.007 35.0536 117.768 36.2294 117.29 37.2215C116.813 38.2136 116.151 38.9668 115.325 39.518C114.498 40.0507 113.561 40.3079 112.495 40.3079ZM112.532 39.0403C113.763 39.0403 114.755 38.5626 115.472 37.6073C116.206 36.6519 116.574 35.3659 116.574 33.7676C116.574 32.1692 116.206 30.9015 115.472 29.9278C114.737 28.9541 113.745 28.4765 112.514 28.4765C111.283 28.4765 110.291 28.9541 109.574 29.9095C108.839 30.8648 108.472 32.1508 108.472 33.7676C108.472 35.3659 108.839 36.6336 109.574 37.6073C110.309 38.5626 111.283 39.0403 112.532 39.0403Z" fill="white"/>
<path d="M120.727 27.5211H121.976L122.068 29.4501C122.362 28.7703 122.784 28.2376 123.354 27.8518C123.905 27.4659 124.548 27.2822 125.246 27.2822C125.669 27.2822 126.036 27.3373 126.367 27.4476V28.7336C126.036 28.6234 125.669 28.5683 125.228 28.5683C124.309 28.5683 123.556 28.9357 123.005 29.6889C122.454 30.4422 122.16 31.4343 122.16 32.6652V39.9956H120.745L120.727 27.5211Z" fill="white"/>
<path d="M131.951 40.3079C130.757 40.3079 129.82 39.9773 129.104 39.3342C128.387 38.6912 128.038 37.8094 128.038 36.7254C128.038 35.3475 128.626 34.282 129.783 33.5655C130.941 32.8306 132.631 32.4632 134.836 32.4632C135.019 32.4632 135.185 32.4632 135.368 32.4632C135.552 32.4632 135.718 32.4632 135.883 32.4815V32.3897C135.883 31.0669 135.607 30.0748 135.075 29.4318C134.542 28.7888 133.715 28.4765 132.613 28.4765C131.345 28.4765 130.151 28.8623 129.012 29.6155V28.2927C130.132 27.5579 131.382 27.1904 132.741 27.1904C134.211 27.1904 135.332 27.6314 136.122 28.4948C136.912 29.3583 137.298 30.6076 137.298 32.2243V39.9773H136.048L135.956 38.1584C135.589 38.8198 135.038 39.3526 134.321 39.7384C133.586 40.1242 132.796 40.3079 131.951 40.3079ZM132.172 39.1505C132.87 39.1505 133.495 38.9668 134.064 38.6177C134.634 38.2687 135.075 37.8094 135.387 37.2582C135.699 36.7071 135.865 36.1192 135.865 35.4761V33.6757C135.571 33.6573 135.166 33.6573 134.615 33.6573C132.925 33.6573 131.639 33.9145 130.757 34.4106C129.875 34.9066 129.434 35.6599 129.434 36.6336C129.434 37.4052 129.673 38.0115 130.169 38.4708C130.684 38.9117 131.345 39.1505 132.172 39.1505Z" fill="white"/>
</g>
</g>
<path d="M156.828 23.0566V43.431" stroke="#979797" stroke-width="0.5" stroke-miterlimit="10"/>
</g>
<defs>
<clipPath id="clip0_57_95966">
<rect width="234" height="61" fill="white"/>
</clipPath>
</defs>
</svg>
