<svg width="121" height="48" viewBox="0 0 121 48" fill="none" xmlns="http://www.w3.org/2000/svg">
<g clip-path="url(#clip0_57_95927)">
<path fill-rule="evenodd" clip-rule="evenodd" d="M112.015 20.1174H109.107L108.867 21.1736H112.015C114.895 21.1736 115.867 21.9502 115.867 24.251V25.3649C115.153 24.6405 113.889 24.2732 112.105 24.2732C109.258 24.2732 107.874 25.496 107.874 28.0105V28.1935C107.874 30.5511 109.237 31.7469 111.925 31.7469H112.648C115.495 31.7469 116.939 30.5511 116.939 28.1935V24.251C116.939 21.315 115.512 20.1174 112.015 20.1174ZM115.867 28.3459C115.867 30.0332 114.956 30.6907 112.618 30.6907H112.166C109.91 30.6907 108.947 29.9436 108.947 28.1935V28.0105C108.947 26.1096 109.864 25.2992 112.015 25.2992H112.195C114.769 25.2992 115.867 26.0823 115.867 27.9187V28.3459ZM37.3587 22.1896L37.9305 19.3681H33.0076V15.5138L29.5518 16.0425V27.555C29.5518 31.535 31.093 32.7194 35.2947 32.7194H37.1343L37.7065 29.9228H35.5433C33.6292 29.9228 33.0073 29.4448 33.0073 27.3282V22.1896H37.3587ZM13.6153 14.1782V26.5477C13.6153 31.1327 15.7034 33.047 20.2534 33.047C24.9771 33.047 27.0656 31.183 27.0656 26.5726V25.3889C27.0656 21.056 25.126 18.9396 20.8997 18.9396C19.5571 18.9396 18.0901 19.2166 17.0956 19.9974V13.624L13.6153 14.1782ZM20.3775 21.7104C22.7642 21.7104 23.6098 22.6679 23.6098 25.5143V26.5726C23.6098 29.3434 22.7642 30.3012 20.3279 30.3012C17.8915 30.3012 17.0456 29.3434 17.0456 26.5474V25.1116C17.0456 22.5671 17.8915 21.7104 20.3775 21.7104ZM45.7122 18.9396C41.1622 18.9396 39.0738 20.8792 39.0738 25.3129V25.9932C39.0738 30.2001 40.8889 32.2405 45.1648 32.2405C46.5324 32.2405 47.8999 31.989 48.8694 31.2076V31.712C48.8694 34.0802 47.8503 34.8604 45.4633 34.8604H44.0343C43.2174 34.8751 42.8462 35.022 42.354 35.8398L42.3512 35.8386C38.2518 42.4123 31.1347 46.4284 23.3785 46.4284C11.003 46.4284 0.935237 36.2274 0.935237 23.6878C0.935237 11.1485 11.003 0.947596 23.3785 0.947596C32.0712 0.947596 39.979 6.04836 43.6788 13.9862H44.71C40.9394 5.48634 32.5804 0 23.3785 0C10.4877 0 0 10.6264 0 23.6878C0 36.7495 10.4877 47.376 23.3785 47.376C30.9597 47.376 37.956 43.693 42.3176 37.581H45.6622C50.0629 37.581 52.3254 35.8935 52.3254 31.5857V25.0864C52.3254 20.8036 50.1625 18.9396 45.7122 18.9396ZM48.8946 26.4214C48.8946 28.7894 48.0741 29.5198 45.7125 29.5198C43.0518 29.5198 42.5299 28.5878 42.5299 25.8422V25.414C42.5299 22.6928 43.0021 21.7104 45.7122 21.7104C48.3723 21.7104 48.8946 22.6679 48.8946 25.4389V26.4214ZM119.154 31.7469H120.227V15.7476H119.154V31.7469ZM94.9867 21.1739L95.2274 20.1174H90.4295V17.097L89.3268 17.2965V27.6435C89.3268 30.5901 90.4165 31.686 93.3466 31.686H94.931L95.1314 30.6297H93.3466C91.1383 30.6297 90.4295 29.9192 90.4295 27.7041V21.1742L94.9867 21.1739ZM104.919 27.1548C104.919 29.8778 104.078 30.7516 101.459 30.7516C98.9177 30.7516 98.0594 29.8442 98.0594 27.1548V20.1174H96.9568V27.1548C96.9568 30.5034 98.2194 31.8078 101.459 31.8078C104.679 31.8078 105.992 30.4602 105.992 27.1548V20.1174H104.919V27.1548ZM80.6578 26.3908V25.4126C80.6578 22.2829 81.7129 21.1739 84.6907 21.1739H87.2065L87.4464 20.1174H84.691C81.1395 20.1174 79.5548 21.7503 79.5548 25.4123V26.3908C79.5548 30.0527 81.1392 31.686 84.691 31.686H87.236L87.4767 30.6297H84.691C81.7883 30.6297 80.6578 29.4412 80.6578 26.3908ZM72.7178 20.1174H69.8101L69.57 21.1736H72.7178C75.5753 21.1736 76.5393 21.9502 76.5393 24.251V25.3649C75.8257 24.6405 74.5628 24.2732 72.7778 24.2732C69.9312 24.2732 68.5472 25.496 68.5472 28.0105V28.1935C68.5472 30.5511 69.9196 31.7469 72.627 31.7469H73.3509C76.1787 31.7469 77.6123 30.5511 77.6123 28.1935V24.251C77.6123 21.315 76.1941 20.1174 72.7178 20.1174ZM76.5393 28.3459C76.5393 30.0555 75.667 30.6907 73.3209 30.6907H72.8686C70.5918 30.6907 69.62 29.9436 69.62 28.1935V28.0105C69.62 26.1096 70.5373 25.2992 72.6876 25.2992H72.8686C75.4415 25.2992 76.5393 26.0823 76.5393 27.9187V28.3459ZM61.9206 19.9341C58.52 19.9341 56.936 21.6363 56.936 25.2902V35.2306H58.0086V30.1263C58.7849 31.1486 60.2321 31.7469 61.9809 31.7469C65.3661 31.7469 66.8757 30.0948 66.8757 26.3908V25.2599C66.8757 21.5766 65.3473 19.9341 61.9206 19.9341ZM65.7725 26.3905C65.7725 29.5253 64.7451 30.6904 61.9809 30.6904C59.365 30.6904 58.0386 29.398 58.0386 26.8487V25.2902C58.0386 22.2355 59.1634 20.9899 61.9206 20.9899C64.6924 20.9899 65.7725 22.1869 65.7725 25.2599V26.3905Z" fill="white"/>
</g>
<defs>
<clipPath id="clip0_57_95927">
<rect width="120.5" height="47.4098" fill="white"/>
</clipPath>
</defs>
</svg>
