<svg width="57" height="50" viewBox="0 0 57 50" fill="none" xmlns="http://www.w3.org/2000/svg">
<path d="M40.9677 38.5781H47.3387C49.7211 38.5781 51.3784 37.5078 51.3784 35.3168C51.3784 33.1247 49.7211 32.0554 47.3387 32.0554H40.9677V38.5781ZM40.9677 49.9435H49.462C53.9678 49.9435 56.299 47.6497 56.299 43.2152V38.5781H56.1433C54.8476 42.4513 51.4819 43.6234 47.4934 43.6234H41.1756C41.02 43.6234 40.9677 43.6738 40.9677 43.827V49.9426V49.9435ZM29.0042 35.3168L35.5299 41.5331V29.1004L29.0042 35.3168ZM6.83699 49.9435H35.5299V48.5155C35.5299 46.018 36.4107 44.5919 38.4296 43.827V43.6748H30.4034C29.9886 43.6748 29.8339 43.6234 29.5225 43.318L25.3271 39.0367L20.977 43.3684C20.7701 43.572 20.6144 43.6748 20.1996 43.6748H13.7262C13.3636 43.6748 13.3636 43.4702 13.5705 43.2666L21.8569 35.3672L13.4149 27.3155C13.2079 27.1119 13.2602 26.9083 13.6228 26.9083H20.1484C20.51 26.9083 20.6667 26.9587 20.8736 27.2137L25.4316 31.6986L29.7304 27.2137C29.9373 27.0101 30.092 26.9073 30.4034 26.9073H47.4431C51.3794 26.9073 54.8496 28.1823 56.1443 32.0554H56.3V6.72733C56.299 2.29285 53.9688 0 49.462 0H6.83699C2.33022 0 0 2.29285 0 6.72733V43.2666C0 47.6497 2.33022 49.9426 6.83699 49.9426V49.9435Z" fill="white"/>
</svg>
