<svg width="121" height="30" viewBox="0 0 121 30" fill="none" xmlns="http://www.w3.org/2000/svg">
<path d="M104.574 19.0164C104.574 15.7182 106.779 13.4025 109.883 13.4025C112.945 13.4025 115.191 15.7643 115.191 19.1838C115.191 22.4819 112.987 24.7976 109.883 24.7976C106.82 24.7976 104.574 22.4358 104.574 19.0164ZM98.9441 19.0976C98.9441 25.0011 103.066 29.6837 108.495 29.6837C109.69 29.7274 110.876 29.4661 111.941 28.9245C113.005 28.3829 113.914 27.579 114.579 26.5891C114.824 26.2222 115.151 26.3445 115.191 26.6703L115.6 29.2767H120.5V8.91842H115.6L115.191 11.4427C115.15 11.7685 114.823 11.8908 114.579 11.5239C113.912 10.5413 113.001 9.74749 111.935 9.21964C110.869 8.6918 109.684 8.44782 108.495 8.51141C103.187 8.51141 98.9441 12.9905 98.9441 19.0976ZM76.7669 8.91842L83.2186 29.2747H92.1205L98.5721 8.91842H92.9781L88.1592 25.365C88.0365 25.772 87.6283 25.772 87.5057 25.365L82.729 8.91842H76.7669ZM69.2536 29.2747H74.725V8.91842H69.2536V29.2747ZM68.6815 3.25944C68.6698 3.69377 68.7475 4.12588 68.91 4.52903C69.0725 4.93219 69.3162 5.29782 69.626 5.6033C69.9359 5.90879 70.3053 6.14762 70.7115 6.30504C71.1176 6.46246 71.5518 6.53511 71.9873 6.51849C72.4209 6.52847 72.8521 6.45135 73.2552 6.29172C73.6584 6.13209 74.0252 5.89322 74.3338 5.58932C74.6424 5.28543 74.8866 4.92272 75.0517 4.5228C75.2169 4.12288 75.2996 3.69392 75.295 3.26145C75.3068 2.82695 75.229 2.39467 75.0664 1.99137C74.9038 1.58807 74.6599 1.22235 74.3498 0.916834C74.0397 0.611321 73.6701 0.372527 73.2637 0.215235C72.8573 0.0579439 72.4229 -0.0144961 71.9873 0.00240063C71.5536 -0.00757495 71.1224 0.0695472 70.7193 0.229176C70.3161 0.388805 69.9493 0.627676 69.6407 0.931571C69.3321 1.23547 69.0879 1.59817 68.9228 1.99809C68.7577 2.39801 68.6749 2.82698 68.6795 3.25944M55.0844 22.0699C55.0844 26.956 57.9428 29.2767 62.5978 29.2767H66.0685V24.553H63.1287C61.4547 24.553 60.5558 23.6979 60.5558 21.8664V14.1303C60.5533 14.0655 60.5642 14.0009 60.5879 13.9405C60.6116 13.8801 60.6476 13.8253 60.6936 13.7794C60.7396 13.7336 60.7946 13.6977 60.8551 13.6741C60.9157 13.6504 60.9805 13.6395 61.0455 13.6421H66.0725V8.91842H61.0455C60.9805 8.92096 60.9157 8.91007 60.8551 8.88643C60.7946 8.86279 60.7396 8.82692 60.6936 8.78107C60.6476 8.73522 60.6116 8.68038 60.5879 8.62C60.5642 8.55962 60.5533 8.495 60.5558 8.43021V1.22342L55.0844 2.93364V22.0699ZM35.648 19.0164C35.648 15.7182 37.8528 13.4025 40.9565 13.4025C44.0189 13.4025 46.265 15.7643 46.265 19.1838C46.265 22.4819 44.0602 24.7976 40.9565 24.7976C37.894 24.7976 35.648 22.4358 35.648 19.0164ZM30.0177 19.0976C30.0177 25.0011 34.1398 29.6837 39.569 29.6837C40.7635 29.7274 41.9494 29.4661 43.0141 28.9245C44.0788 28.3829 44.9871 27.579 45.6527 26.5891C45.898 26.2222 46.2248 26.3445 46.265 26.6703L46.6732 29.2767H51.5776V8.91842H46.6732L46.265 11.4427C46.2238 11.7685 45.897 11.8908 45.6527 11.5239C44.9853 10.5413 44.0743 9.74749 43.0083 9.21964C41.9423 8.6918 40.7575 8.44782 39.569 8.51141C34.2605 8.51141 30.0177 12.9905 30.0177 19.0976ZM10.535 29.1945L25.3144 23.6167C25.7226 23.4543 25.804 23.2097 25.804 22.7616V14.2115C25.804 13.8045 25.5185 13.6822 25.1103 13.8446L11.475 19.0164C10.9854 19.2169 10.7401 18.7317 11.0668 18.4058L15.1096 14.2957C15.1795 14.2449 15.2303 14.1722 15.2538 14.0892C15.2773 14.0062 15.2722 13.9178 15.2393 13.838C15.2064 13.7583 15.1475 13.6919 15.0722 13.6494C14.9969 13.607 14.9095 13.591 14.824 13.604H0.489993C0.425274 13.6015 0.36073 13.6123 0.300385 13.6357C0.240041 13.6592 0.185189 13.6948 0.13925 13.7403C0.0933107 13.7858 0.0572698 13.8403 0.0333743 13.9003C0.00947878 13.9604 -0.00175907 14.0246 0.000361453 14.0892V19.1377C-0.00218427 19.2024 0.00873886 19.2671 0.0324443 19.3274C0.0561498 19.3878 0.0921251 19.4427 0.138109 19.4885C0.184093 19.5344 0.239092 19.5702 0.299649 19.5939C0.360206 19.6175 0.425011 19.6284 0.489993 19.6259H9.35062C9.4156 19.6233 9.4804 19.6342 9.54096 19.6579C9.60152 19.6815 9.65652 19.7174 9.7025 19.7632C9.74848 19.8091 9.78446 19.8639 9.80816 19.9243C9.83187 19.9847 9.84279 20.0493 9.84025 20.1141V28.8266C9.84025 29.2336 10.1258 29.3559 10.534 29.1935" fill="white"/>
</svg>
