<svg width="147" height="51" viewBox="0 0 147 51" fill="none" xmlns="http://www.w3.org/2000/svg">
<g clip-path="url(#clip0_57_95763)">
<g clip-path="url(#clip1_57_95763)">
<mask id="mask0_57_95763" style="mask-type:luminance" maskUnits="userSpaceOnUse" x="0" y="4" width="36" height="36">
<path d="M5.56322 4.57227H30.2002C33.2105 4.57227 35.6531 7.07056 35.6531 10.1496V33.5543C35.6531 36.6333 33.2105 39.1316 30.2002 39.1316H5.56322C2.5529 39.1316 0.110352 36.6333 0.110352 33.5543V10.1496C0.110352 7.07056 2.5529 4.57227 5.56322 4.57227Z" fill="white"/>
</mask>
<g mask="url(#mask0_57_95763)">
<path d="M35.6531 4.57227H0.110352V39.1316H35.6531V4.57227Z" fill="white" stroke="white" stroke-width="0.219648" stroke-miterlimit="10"/>
</g>
<path d="M5.56419 4.57227H30.2012C33.2115 4.57227 35.654 7.07056 35.654 10.1496V33.5543C35.654 36.6333 33.2115 39.1316 30.2012 39.1316H5.56419C2.55387 39.1316 0.111328 36.6333 0.111328 33.5543V10.1496C0.111328 7.07056 2.55387 4.57227 5.56419 4.57227Z" stroke="white" stroke-width="0.219648" stroke-miterlimit="10"/>
<path d="M25.4203 11.3911L24.4072 13.6275H26.8609L25.8589 11.3911H25.4203Z" fill="#0B0B0B"/>
<mask id="mask1_57_95763" style="mask-type:luminance" maskUnits="userSpaceOnUse" x="24" y="11" width="3" height="3">
<path d="M25.4193 11.3911L24.4062 13.6275H26.8599L25.858 11.3911H25.4193Z" fill="white"/>
</mask>
<g mask="url(#mask1_57_95763)">
<path d="M26.8599 11.3911H24.4062V13.6275H26.8599V11.3911Z" fill="#0B0B0B"/>
</g>
<path d="M24.1732 15.1255L17.7696 30.409L10.4397 16.3667H10.0011L1.51562 32.4108H3.51731L6.12239 27.5509L10.2126 20.343L12.0918 23.5131L12.7553 24.7133L13.4189 25.877L14.5366 27.9882L16.8745 32.4108H16.9302H18.8138H18.9318L21.7306 26.2528L22.55 24.4468L25.5603 16.5124L28.6887 24.4468L28.8223 24.7588L29.0605 25.3327L29.4657 26.2528L32.289 32.4108H34.2284L26.9453 15.1255H24.1732Z" fill="#0B0B0B"/>
<mask id="mask2_57_95763" style="mask-type:luminance" maskUnits="userSpaceOnUse" x="1" y="15" width="34" height="18">
<path d="M24.1722 15.1255L17.7686 30.409L10.4387 16.3667H10.0001L1.51465 32.4108H3.51633L6.12142 27.5509L10.2116 20.343L12.0908 23.5131L12.7544 24.7133L13.4179 25.877L14.5356 27.9882L16.8735 32.4108H16.9292H18.8129H18.9309L21.7297 26.2528L22.549 24.4468L25.5594 16.5124L28.6877 24.4468L28.8213 24.7588L29.0595 25.3327L29.4648 26.2528L32.288 32.4108H34.2274L26.9443 15.1255H24.1722Z" fill="white"/>
</mask>
<g mask="url(#mask2_57_95763)">
<path d="M34.2274 15.1255H1.51465V32.4108H34.2274V15.1255Z" fill="#0B0B0B"/>
</g>
<path d="M101.318 22.5615C100.16 21.6665 99.4763 21.1154 99.2692 20.9036C98.8884 20.5051 98.6257 20.1361 98.481 19.7991C98.3363 19.4597 98.265 19.1113 98.265 18.7492C98.265 18.1548 98.4676 17.656 98.8751 17.2507C99.2803 16.8453 99.8036 16.6426 100.445 16.6426C100.941 16.6426 101.4 16.7747 101.821 17.0366C102.242 17.3008 102.749 17.8451 103.346 18.6718L104.64 17.6447C103.914 16.6062 103.226 15.8956 102.573 15.5085C101.923 15.1213 101.224 14.9277 100.476 14.9277C99.7702 14.9277 99.1178 15.0985 98.5188 15.4401C97.9177 15.7818 97.4523 16.2509 97.1228 16.8453C96.791 17.4397 96.6263 18.0979 96.6263 18.8175C96.6263 19.7262 96.9068 20.5734 97.4679 21.3545C97.7908 21.8214 98.6146 22.5752 99.9372 23.6205C101.253 24.6567 102.159 25.5449 102.656 26.2805C103.017 26.8134 103.195 27.36 103.195 27.9157C103.195 28.4053 103.072 28.8676 102.827 29.3026C102.582 29.7376 102.226 30.086 101.758 30.3456C101.291 30.6053 100.792 30.7351 100.26 30.7351C99.0154 30.7351 97.9199 29.8218 96.9714 27.9954L95.6221 28.8403C96.2834 30.1042 97.007 31.0038 97.7908 31.5413C98.5745 32.0787 99.4473 32.3475 100.411 32.3475C101.663 32.3475 102.725 31.9034 103.598 31.0175C104.47 30.1316 104.909 29.0862 104.909 27.8838C104.909 27.0503 104.653 26.219 104.143 25.3923C103.633 24.5656 102.691 23.6228 101.318 22.5615Z" fill="white"/>
<path d="M85.2103 15.1235L77.542 32.2267H79.3522L81.8793 26.5993L82.6208 24.9482L85.4018 18.7582L88.1694 24.9482L88.2874 25.2351L88.5056 25.7566L88.8708 26.5993L91.4224 32.2267H93.1747L85.6066 15.1235H85.2103Z" fill="white"/>
<path d="M67.1023 15.1714L60.2912 30.3638L53.5715 15.1714H53.1729L45.5068 32.2746H47.317L49.8442 26.6471L50.5856 24.996L53.3666 18.8061L56.132 24.996L56.2523 25.283L56.4682 25.8045L56.8334 26.6471L59.385 32.2746H59.4362H61.1373H61.2442L63.7736 26.6471L64.515 24.996L67.2938 18.8061L70.0614 24.996L70.1817 25.283L70.3976 25.8045L70.7628 26.6471L73.3144 32.2746H75.0668L67.4986 15.1714H67.1023Z" fill="white"/>
<path d="M109.326 16.7676H112.944V32.1969H114.599V16.7676H118.217V15.0938H109.326V16.7676Z" fill="white"/>
<path d="M122.814 32.2218H132.048V30.5479H124.435V23.8274H132.048V22.1535H124.435V16.7925H132.113V15.1187H122.814V32.2218Z" fill="white"/>
<path d="M142.164 24.2625C143.524 24.2557 144.591 24.0712 145.363 23.7091C146.136 23.3493 146.73 22.8141 147.144 22.1081C147.561 21.4021 147.768 20.5823 147.768 19.6531C147.768 18.5349 147.467 17.5943 146.864 16.8291C146.26 16.0639 145.477 15.5652 144.515 15.3329C143.876 15.178 142.653 15.1006 140.852 15.1006H137.619V32.2038H139.24V24.2625H140.157L145.993 32.2038H147.999L142.164 24.2625ZM139.24 22.5886V16.7745H142.101C143.212 16.7745 144.009 16.8747 144.488 17.0774C144.967 17.28 145.354 17.6148 145.648 18.084C145.942 18.5531 146.091 19.0746 146.091 19.6485C146.091 20.2224 145.946 20.7713 145.655 21.2473C145.363 21.7232 144.958 22.0717 144.439 22.288C143.92 22.5044 143.119 22.6137 142.037 22.6137L139.242 22.5909L139.24 22.5886Z" fill="white"/>
<path d="M78.0029 41.0855C78.0029 39.1657 79.4346 37.7104 81.3294 37.7104C82.5028 37.7104 83.5092 38.2866 84.1015 39.1748L83.6028 39.4868C83.1218 38.7489 82.3002 38.2775 81.3294 38.2775C79.7775 38.2775 78.593 39.4777 78.593 41.0855C78.593 42.6934 79.7753 43.8936 81.3294 43.8936C82.3002 43.8936 83.1218 43.4221 83.6028 42.6843L84.1015 42.9963C83.5092 43.8844 82.5028 44.4606 81.3294 44.4606C79.4346 44.4606 78.0029 43.0054 78.0029 41.0855Z" fill="white"/>
<path d="M86.7529 41.0855C86.7529 39.1657 88.1846 37.7104 90.0794 37.7104C91.9742 37.7104 93.4059 39.1657 93.4059 41.0855C93.4059 43.0054 91.9653 44.4606 90.0794 44.4606C88.1935 44.4606 86.7529 43.0054 86.7529 41.0855ZM92.8159 41.0855C92.8159 39.4777 91.6336 38.2775 90.0794 38.2775C88.5253 38.2775 87.343 39.4777 87.343 41.0855C87.343 42.6934 88.5253 43.8936 90.0794 43.8936C91.6336 43.8936 92.8159 42.6934 92.8159 41.0855Z" fill="white"/>
<path d="M98.127 41.584H97.0916V44.3442H96.5283V37.8218H99.0243C100.095 37.8218 100.901 38.6348 100.901 39.712C100.901 40.7892 100.098 41.584 99.0354 41.584H98.8217L101.022 44.3442H100.32L98.1292 41.584H98.127ZM97.0916 41.0739H99.0132C99.7524 41.0739 100.316 40.4977 100.316 39.7211C100.316 38.9445 99.7524 38.3683 99.0132 38.3683H97.0916V41.0716V41.0739Z" fill="white"/>
<path d="M105.63 41.584H104.595V44.3442H104.031V37.8218H106.527C107.598 37.8218 108.402 38.6348 108.402 39.712C108.402 40.7892 107.598 41.584 106.536 41.584H106.325L108.524 44.3442H107.823L105.632 41.584H105.63ZM104.595 41.0739H106.516C107.255 41.0739 107.819 40.4977 107.819 39.7211C107.819 38.9445 107.255 38.3683 106.516 38.3683H104.595V41.0716V41.0739Z" fill="white"/>
<path d="M115.685 43.7978V44.3467H111.537V37.8242H115.641V38.3731H112.1V40.7917H115.336V41.3405H112.1V43.7978H115.685Z" fill="white"/>
<path d="M123.215 38.3706H121.053V44.3442H120.49V38.3706H118.328V37.8218H123.218V38.3706H123.215Z" fill="white"/>
<path d="M125.238 41.0855C125.238 39.1657 126.67 37.7104 128.565 37.7104C130.46 37.7104 131.891 39.1657 131.891 41.0855C131.891 43.0054 130.451 44.4606 128.565 44.4606C126.679 44.4606 125.238 43.0054 125.238 41.0855ZM131.301 41.0855C131.301 39.4777 130.119 38.2775 128.565 38.2775C127.011 38.2775 125.828 39.4777 125.828 41.0855C125.828 42.6934 127.011 43.8936 128.565 43.8936C130.119 43.8936 131.301 42.6934 131.301 41.0855Z" fill="white"/>
<path d="M136.612 41.584H135.577V44.3442H135.014V37.8218H137.51C138.581 37.8218 139.387 38.6348 139.387 39.712C139.387 40.7892 138.583 41.584 137.521 41.584H137.307L139.507 44.3442H138.806L136.615 41.584H136.612ZM135.577 41.0739H137.499C138.238 41.0739 138.801 40.4977 138.801 39.7211C138.801 38.9445 138.238 38.3683 137.499 38.3683H135.577V41.0716V41.0739Z" fill="white"/>
<path d="M146.583 42.5587H143.239L142.509 44.3442H141.89L144.579 37.8218H145.263L147.953 44.3442H147.316L146.585 42.5587H146.583ZM146.37 42.019L144.909 38.4458L143.457 42.019H146.367H146.37Z" fill="white"/>
</g>
</g>
<defs>
<clipPath id="clip0_57_95763">
<rect width="147" height="50.2174" fill="white"/>
</clipPath>
<clipPath id="clip1_57_95763">
<rect width="148" height="40" fill="white" transform="translate(0 4.4585)"/>
</clipPath>
</defs>
</svg>
