<svg width="113" height="30" viewBox="0 0 113 30" fill="none" xmlns="http://www.w3.org/2000/svg">
<path fill-rule="evenodd" clip-rule="evenodd" d="M28.7698 10.1252C28.7896 9.96013 28.8755 9.83464 29.0208 9.73557C29.1198 9.66952 29.318 9.61669 29.5954 9.57045C31.0484 9.38552 32.3561 9.55724 33.4922 10.6933C34.2451 11.4528 34.6017 12.4963 34.5489 13.5135C34.5027 14.5372 34.047 15.5345 33.1883 16.195C31.8344 17.2319 30.3417 17.2451 28.7368 17.2782V10.8055C28.7368 10.581 28.7368 10.3564 28.7698 10.1252ZM39.5751 26.1417V26.4389H35.3679L28.7368 18.3283V24.0084C28.7368 25.5935 30.6455 26.1417 31.7815 26.1417V26.4389H31.5966C30.3021 26.4323 29.0076 26.3332 27.713 26.3266C26.4185 26.3266 25.124 26.4257 23.8295 26.4389H23.704H23.6445V26.1417C24.7739 26.1417 26.6827 25.5935 26.6893 24.015V10.8518C26.6893 9.26664 24.7805 8.71844 23.6445 8.71844V8.42123H27.7395C28.182 8.42123 28.6311 8.42123 29.067 8.40802C29.6086 8.38821 30.137 8.375 30.6785 8.375C32.4618 8.375 33.9083 8.71184 35.282 10.0526C36.1076 10.865 36.57 12.2123 36.5501 13.5135C36.5369 14.7023 36.1208 15.6864 35.2754 16.4988C34.08 17.648 32.6335 18.1037 30.989 18.2094C32.4486 19.9332 33.8752 21.8486 35.3943 23.579C36.2595 24.5631 38.0824 26.1483 39.5949 26.1483" fill="white"/>
<path fill-rule="evenodd" clip-rule="evenodd" d="M52.5724 14.3256L54.0651 11.3931C54.4085 13.2358 55.0161 15.0455 55.7162 16.8288C56.6541 19.0084 57.6052 21.1879 58.5298 23.3741C58.9591 24.3582 59.5734 25.2894 60.5046 25.8706C60.9274 26.082 61.4293 26.2009 62.0369 26.2009V26.4981C60.7887 26.4981 59.5404 26.3924 58.2855 26.3924C56.7796 26.3924 55.2671 26.4981 53.7612 26.4981C53.7612 26.399 53.7612 26.3 53.7612 26.2009C55.703 26.2009 57.2023 25.5734 56.2908 23.3675L52.5724 14.3124V14.3256ZM42.3945 26.2075V26.5047C43.5371 26.5047 44.6798 26.4188 45.8224 26.399C46.9518 26.399 48.0746 26.5047 49.204 26.5047C49.204 26.4056 49.204 26.3066 49.204 26.2075C46.3375 26.2075 46.8197 24.7346 47.5396 22.6806C48.1076 20.9237 48.8143 19.2065 49.5078 17.4959C50.7165 14.4973 51.9383 11.512 53.1008 8.49365L51.4958 8.52007C50.9608 11.4856 49.5672 14.5964 48.3322 17.4959C47.599 19.2131 46.9055 20.9501 46.1988 22.674C45.4327 24.5365 44.6732 26.2075 42.3945 26.2075Z" fill="white"/>
<path fill-rule="evenodd" clip-rule="evenodd" d="M103.535 14.3256L105.028 11.3931C105.371 13.2358 105.979 15.0455 106.679 16.8288C107.617 19.0084 108.568 21.1879 109.493 23.3741C109.922 24.3582 110.536 25.2894 111.468 25.8706C111.89 26.082 112.392 26.2009 113 26.2009V26.4981C111.752 26.4981 110.497 26.3924 109.248 26.3924C107.742 26.3924 106.23 26.4981 104.724 26.4981C104.724 26.399 104.724 26.3 104.724 26.2009C106.666 26.2009 108.165 25.5734 107.254 23.3675L103.535 14.3124V14.3256ZM93.3574 26.2075V26.5047C94.5 26.5047 95.6426 26.4188 96.7853 26.399C97.9147 26.399 99.0375 26.5047 100.167 26.5047V26.2075C97.3004 26.2075 97.7826 24.7346 98.5025 22.6806C99.0705 20.9237 99.7772 19.2065 100.471 17.4959C101.679 14.4973 102.901 11.512 104.064 8.49365L102.459 8.52007C101.924 11.4856 100.53 14.5964 99.2951 17.4959C98.5619 19.2131 97.8684 20.9501 97.1617 22.674C96.3956 24.5365 95.636 26.2075 93.3574 26.2075Z" fill="white"/>
<path fill-rule="evenodd" clip-rule="evenodd" d="M72.1104 12.9851C72.6982 14.0551 73.2992 15.125 73.9069 16.1884C74.7655 17.6876 75.6439 19.1803 76.5355 20.6664C77.2753 21.8948 77.7508 22.6412 77.9622 22.9186C80.2672 19.1737 82.2486 15.2043 84.3225 11.3207C84.8311 10.3564 85.234 9.37892 85.6831 8.39481L87.0238 8.375C87.0767 9.26664 87.1361 10.1649 87.2022 11.0565C87.5786 15.1646 87.9749 19.2794 88.3448 23.3875C88.4967 25.0849 89.4874 26.2407 91.3037 26.2407V26.538C89.9497 26.538 88.8137 26.4257 87.4531 26.4257C86.0926 26.4257 84.9896 26.5313 83.6158 26.538V26.2407C84.3621 26.2407 85.1217 26.0228 85.6567 25.5605C86.3568 24.9462 86.3898 24.2329 86.3105 23.3743C85.9803 19.7021 85.6434 15.9506 85.3132 12.2718C85.016 12.7936 84.5603 13.6257 83.9196 14.775C82.7572 16.8819 81.608 18.9954 80.4587 21.1023C79.6001 22.6874 78.7812 24.2197 78.0084 25.8379C77.8037 26.2672 77.6848 26.5313 77.6319 26.6304C77.5659 26.4983 77.4404 26.2672 77.2555 25.9501C75.4061 22.7799 73.7616 19.4775 71.8594 16.3205C70.7036 14.4183 70.0101 13.2691 69.7921 12.8596C69.6468 14.8212 69.5147 16.7828 69.3694 18.7444C69.2439 20.4814 69.1119 22.093 68.9599 23.7838C68.8213 25.3425 70.1422 26.2473 71.6216 26.2473V26.5446C70.3866 26.5446 69.5213 26.4455 68.2863 26.4389C67.1833 26.4521 66.0737 26.5446 64.9707 26.5446V26.2473C66.6087 26.2473 67.5928 25.3623 67.7447 23.7442C67.9032 22.0732 68.0683 20.4616 68.1542 18.751C68.3193 16.5913 68.3787 14.4249 68.5505 12.2652C68.5835 11.8425 68.6033 11.4462 68.6099 11.0895C68.6429 10.1979 68.6231 9.29966 68.6231 8.40802L70.0365 8.38821C70.0827 8.54672 70.1422 8.73826 70.2148 8.95621C70.6904 10.4357 71.3442 11.6311 72.1038 13.0049" fill="white"/>
<path fill-rule="evenodd" clip-rule="evenodd" d="M5.8125 5.51506L11.7898 0.687012L12.7276 2.58256L5.8125 5.51506Z" fill="white"/>
<path fill-rule="evenodd" clip-rule="evenodd" d="M9.27301 8.16334C4.15436 8.16334 0 12.3111 0 17.4298C0 22.5484 4.15436 26.7028 9.27301 26.7028C14.3917 26.7028 18.546 22.5484 18.546 17.4298C18.546 12.3111 14.3917 8.15674 9.27301 8.15674M9.27301 9.06158C5.43568 9.06158 2.31825 12.8065 2.31825 17.4231C2.31825 22.0398 5.43568 25.7847 9.27301 25.7847C13.1104 25.7847 16.2278 22.0398 16.2278 17.4231C16.2278 12.8065 13.1104 9.06158 9.27301 9.06158Z" fill="white"/>
</svg>
