<svg width="142" height="49" viewBox="0 0 142 49" fill="none" xmlns="http://www.w3.org/2000/svg">
<path d="M61.8834 23.8594L57.8114 28.1697L61.8834 32.3561C64.093 34.6818 67.6998 34.6818 69.9094 32.3561C72.119 30.0303 72.119 26.2007 69.9094 23.8594C67.5835 21.5337 64.093 21.5337 61.8834 23.8594ZM41.1934 15.6728C44.2032 15.6728 47.2269 16.8822 49.5528 19.332L45.2498 23.8594C43.0386 21.5337 39.4334 21.5337 37.2238 23.8594C35.0126 26.2007 35.0126 30.0303 37.2238 32.3561C39.4334 34.6818 43.0386 34.6818 45.2498 32.3561L57.3463 19.5645L57.5788 19.332C62.116 14.448 69.5605 14.448 74.0961 19.332C78.7495 24.2161 78.7495 32.0149 74.2139 36.899C69.5605 41.783 62.116 41.783 57.5788 36.899L57.1137 36.4339L53.5085 32.5887L49.9017 36.4339L49.5528 36.899C44.9009 41.783 37.4564 41.783 32.9193 36.899C28.3837 32.0149 28.3837 24.2161 32.9193 19.332C35.1878 16.8822 38.1836 15.6728 41.1934 15.6728Z" fill="white"/>
<path d="M24.0797 7.93624C26.173 7.93624 27.9175 9.67277 27.9175 11.89C27.9175 13.9831 26.173 15.7197 24.0797 15.7197C21.87 15.7197 20.124 13.9831 20.124 11.89C20.124 9.67277 21.87 7.93624 24.0797 7.93624Z" fill="white"/>
<path d="M20.124 40.4966H26.4053V17.2346H20.124V40.4966Z" fill="white"/>
<path d="M10.8172 17.2393H17.0987V23.3947H10.9335C8.49122 23.3947 6.39788 25.3793 6.39788 27.8291V40.4966H0V27.8291C0 21.9993 4.88602 17.2393 10.8172 17.2393Z" fill="white"/>
</svg>
