<svg width="145" height="49" viewBox="0 0 145 49" fill="none" xmlns="http://www.w3.org/2000/svg">
<g clip-path="url(#clip0_57_95880)">
<path fill-rule="evenodd" clip-rule="evenodd" d="M34.0542 21.1548H41.6584V32.4399H41.7137C44.7163 32.4399 47.1504 29.9853 47.1504 26.9581V21.1548H54.9671V16.4697H34.0542V21.1548ZM70.4624 27.7572H65.2359C63.4131 27.7572 61.8378 26.3492 61.7531 24.5129C61.6626 22.5605 63.2108 20.9424 65.1285 20.9424H70.3551C72.179 20.9424 73.7543 22.3516 73.839 24.1879C73.9294 26.1403 72.3801 27.7572 70.4624 27.7572ZM71.7507 16.2573H63.8346C59.4195 16.2573 55.8078 19.8982 55.8078 24.3498C55.8078 28.8014 59.4195 32.4434 63.8346 32.4434H71.7518C76.1658 32.4434 79.7786 28.8014 79.7786 24.3498C79.7786 19.8982 76.1658 16.2573 71.7518 16.2573H71.7507ZM121.113 27.7572H115.886C114.063 27.7572 112.487 26.3492 112.402 24.5129C112.312 22.5605 113.861 20.9424 115.779 20.9424H121.005C122.828 20.9424 124.403 22.3504 124.488 24.1867C124.579 26.1403 123.029 27.7572 121.113 27.7572ZM122.406 16.2573H114.488C110.073 16.2573 106.462 19.8982 106.462 24.3498C106.462 28.8014 110.073 32.4434 114.488 32.4434H122.406C126.821 32.4434 130.432 28.8014 130.432 24.3498C130.432 19.8982 126.821 16.2573 122.406 16.2573ZM97.6335 22.2355C97.6335 23.0474 96.9747 23.7115 96.169 23.7115H88.7603V20.7301H96.169C96.9747 20.7301 97.6335 21.3942 97.6335 22.2061V22.2355ZM103.198 22.4783C103.196 21.7129 103.045 20.9559 102.755 20.2523C102.464 19.5487 102.041 18.9131 101.508 18.3834C100.421 17.2894 98.9649 16.679 97.4505 16.6821H82.6376V32.2299H88.5512V28.3966H94.8039L96.9984 32.2299H103.198L100.539 27.3594C102.135 26.3269 103.198 24.5211 103.198 22.4783Z" fill="white"/>
<path fill-rule="evenodd" clip-rule="evenodd" d="M12.9304 37.0453V30.687C12.9304 30.6189 12.8536 30.5802 12.7982 30.6201C9.67021 32.9609 6.10939 35.094 2.19487 36.9702C2.11577 37.0089 2.14289 37.1286 2.2299 37.1286H12.8479C12.8931 37.1286 12.9293 37.091 12.9293 37.0453H12.9304Z" fill="white"/>
<mask id="mask0_57_95880" style="mask-type:alpha" maskUnits="userSpaceOnUse" x="0" y="11" width="26" height="18">
<path fill-rule="evenodd" clip-rule="evenodd" d="M0.890137 19.8609V11.5713H25.6192V28.1505H0.890137V19.8609Z" fill="white"/>
</mask>
<g mask="url(#mask0_57_95880)">
<path fill-rule="evenodd" clip-rule="evenodd" d="M25.6045 11.7027C25.6429 11.6476 25.6034 11.5713 25.5367 11.5713H9.41078C4.70521 11.5713 0.890137 15.3846 0.890137 20.0897V28.066C0.890137 28.1235 0.94664 28.1634 0.999752 28.1446C11.9986 24.4111 20.7588 18.5831 25.6045 11.7027Z" fill="white"/>
</g>
<path fill-rule="evenodd" clip-rule="evenodd" d="M17.3647 26.9747V37.0454C17.3647 37.0912 17.402 37.1275 17.4472 37.1275H17.7162C22.4218 37.1275 26.2368 33.3142 26.2368 28.6091V13.9178C26.2368 13.824 26.1069 13.8017 26.0764 13.8909C24.483 18.5326 21.4996 22.9431 17.3896 26.9148C17.3819 26.9224 17.3757 26.9315 17.3714 26.9416C17.3672 26.9516 17.3649 26.9625 17.3647 26.9735V26.9747Z" fill="white"/>
</g>
<defs>
<clipPath id="clip0_57_95880">
<rect width="129.957" height="25.8133" fill="white" transform="translate(0.890137 11.5713)"/>
</clipPath>
</defs>
</svg>
