<svg width="12" height="12" viewBox="0 0 12 12" fill="none" xmlns="http://www.w3.org/2000/svg">
<path d="M3.87726 6.69V10.105C3.87726 10.3092 3.79614 10.5051 3.65173 10.6495C3.50733 10.7939 3.31148 10.875 3.10726 10.875H2.20226C2.10072 10.8757 2.00006 10.8562 1.90606 10.8178C1.81206 10.7794 1.72659 10.7228 1.65456 10.6512C1.58252 10.5797 1.52536 10.4946 1.48635 10.4008C1.44734 10.3071 1.42726 10.2065 1.42726 10.105V6.69C1.4266 6.58804 1.44619 6.48696 1.4849 6.39264C1.52361 6.29831 1.58068 6.21261 1.65277 6.14051C1.72487 6.06841 1.81057 6.01135 1.9049 5.97264C1.99923 5.93393 2.1003 5.91434 2.20226 5.915H3.10726C3.2088 5.915 3.30934 5.93508 3.40309 5.97409C3.49684 6.0131 3.58194 6.07026 3.65351 6.14229C3.72508 6.21432 3.78169 6.2998 3.82009 6.3938C3.85849 6.4878 3.87792 6.58846 3.87726 6.69ZM7.22726 1.9V10.105C7.22726 10.2065 7.20718 10.3071 7.16818 10.4008C7.12917 10.4946 7.072 10.5797 6.99997 10.6512C6.92794 10.7228 6.84246 10.7794 6.74846 10.8178C6.65447 10.8562 6.5538 10.8757 6.45226 10.875H5.54726C5.34258 10.875 5.14621 10.794 5.00102 10.6498C4.85582 10.5055 4.77358 10.3097 4.77226 10.105V1.9C4.77357 1.69486 4.85565 1.4985 5.0007 1.35344C5.14576 1.20838 5.34212 1.12631 5.54726 1.125H6.45226C6.6578 1.125 6.85493 1.20665 7.00027 1.35199C7.14561 1.49733 7.22726 1.69446 7.22726 1.9ZM10.5723 4.49V10.105C10.5723 10.3092 10.4911 10.5051 10.3467 10.6495C10.2023 10.7939 10.0065 10.875 9.80226 10.875H8.89726C8.79572 10.8757 8.69506 10.8562 8.60106 10.8178C8.50706 10.7794 8.42159 10.7228 8.34956 10.6512C8.27752 10.5797 8.22036 10.4946 8.18135 10.4008C8.14234 10.3071 8.12226 10.2065 8.12226 10.105V4.49C8.12226 4.38823 8.14231 4.28745 8.18126 4.19342C8.2202 4.09939 8.27729 4.01396 8.34925 3.94199C8.42122 3.87003 8.50666 3.81294 8.60068 3.77399C8.69471 3.73505 8.79549 3.715 8.89726 3.715H9.82226C10.0234 3.72149 10.2142 3.806 10.3542 3.95064C10.4942 4.09529 10.5724 4.28872 10.5723 4.49Z" fill="#52EA94"/>
</svg>
