<svg width="12" height="12" viewBox="0 0 12 12" fill="none" xmlns="http://www.w3.org/2000/svg">
<path d="M1 7.3V1.5C1 1.36739 1.05268 1.24021 1.14645 1.14645C1.24021 1.05268 1.36739 1 1.5 1C1.63261 1 1.75979 1.05268 1.85355 1.14645C1.94732 1.24021 2 1.36739 2 1.5V7.3L2.0035 8.0335C2.0065 8.2425 2.013 8.4185 2.0255 8.5725C2.0505 8.8755 2.0965 9.0495 2.1635 9.181L2.221 9.284C2.3655 9.519 2.572 9.7105 2.819 9.8365L2.8705 9.861C2.996 9.915 3.1625 9.953 3.427 9.9745C3.7355 10 4.132 10 4.7 10H10.5L10.551 10.0025C10.6743 10.0149 10.7887 10.0726 10.8719 10.1646C10.955 10.2565 11.0011 10.376 11.0011 10.5C11.0011 10.624 10.955 10.7435 10.8719 10.8354C10.7887 10.9274 10.6743 10.9851 10.551 10.9975L10.5 11H4.7C4.1485 11 3.7045 11.0005 3.3455 10.971C3.027 10.945 2.7415 10.894 2.477 10.7805L2.365 10.7275C1.92467 10.5032 1.56068 10.1535 1.319 9.7225L1.2725 9.635C1.1215 9.3385 1.0585 9.0185 1.029 8.6545C1.014 8.475 1.007 8.2745 1.0035 8.0495L1 7.3Z" fill="#52EA94"/>
<path d="M5.875 6.74982C5.875 7.13132 5.6115 7.37732 5.3645 7.50982C5.21045 7.58908 5.04548 7.64502 4.875 7.67582V8.74982C4.875 8.84928 4.83549 8.94466 4.76516 9.01499C4.69484 9.08531 4.59946 9.12482 4.5 9.12482C4.40054 9.12482 4.30516 9.08531 4.23484 9.01499C4.16451 8.94466 4.125 8.84928 4.125 8.74982V7.69082C3.95638 7.66695 3.79265 7.61631 3.64 7.54082C3.37 7.40082 3.125 7.14132 3.125 6.74982V4.74982C3.125 4.36832 3.3885 4.12182 3.6355 3.98982C3.78949 3.91022 3.95446 3.85394 4.125 3.82282V2.74982C4.125 2.65037 4.16451 2.55498 4.23484 2.48466C4.30516 2.41433 4.40054 2.37482 4.5 2.37482C4.59946 2.37482 4.69484 2.41433 4.76516 2.48466C4.83549 2.55498 4.875 2.65037 4.875 2.74982V3.80832C5.045 3.83482 5.2115 3.88282 5.36 3.95932C5.63 4.09882 5.875 4.35782 5.875 4.74982V6.74982ZM8.125 8.74982V7.17582C7.95452 7.14502 7.78955 7.08908 7.6355 7.00982C7.3885 6.87782 7.125 6.63132 7.125 6.24982V3.24982C7.125 2.82232 7.447 2.57382 7.698 2.45382C7.833 2.38982 7.9805 2.34432 8.125 2.31682V1.74982C8.12505 1.65373 8.16197 1.56133 8.22817 1.49168C8.29436 1.42202 8.38476 1.38044 8.48072 1.3755C8.57669 1.37056 8.67088 1.40264 8.74387 1.46513C8.81687 1.52762 8.86309 1.61575 8.873 1.71132L8.875 1.74982V2.33382C9.021 2.36732 9.1705 2.41732 9.306 2.48382C9.532 2.59532 9.875 2.83382 9.875 3.24982V6.24982C9.875 6.64182 9.63 6.90082 9.36 7.04032C9.212 7.11682 9.045 7.16432 8.875 7.19032V8.74982C8.875 8.84928 8.83549 8.94466 8.76517 9.01499C8.69484 9.08531 8.59946 9.12482 8.5 9.12482C8.40054 9.12482 8.30516 9.08531 8.23483 9.01499C8.16451 8.94466 8.125 8.84928 8.125 8.74982Z" fill="#52EA94"/>
</svg>
