<svg width="12" height="12" viewBox="0 0 12 12" fill="none" xmlns="http://www.w3.org/2000/svg">
<path fill-rule="evenodd" clip-rule="evenodd" d="M7.08844 9.08856C7.30176 8.99227 7.54209 8.97384 7.7676 9.0365C7.9931 9.09916 8.18948 9.23893 8.32254 9.43147C8.4556 9.62401 8.51692 9.85713 8.4958 10.0902C8.47468 10.3233 8.37248 10.5416 8.20698 10.7071C8.04149 10.8726 7.82319 10.9748 7.5901 10.9959C7.35701 11.017 7.12389 10.9557 6.93135 10.8227C6.73881 10.6896 6.59904 10.4932 6.53638 10.2677C6.47372 10.0422 6.49214 9.80188 6.58844 9.58856L5.41144 8.41156C5.25914 8.48028 5.09204 8.50975 4.92542 8.49727C4.7588 8.48478 4.59796 8.43074 4.4576 8.34009C4.31724 8.24944 4.20183 8.12506 4.12192 7.97832C4.04201 7.83158 4.00014 7.66715 4.00014 7.50006C4.00014 7.33297 4.04201 7.16855 4.12192 7.0218C4.20183 6.87506 4.31724 6.75068 4.4576 6.66003C4.59796 6.56938 4.7588 6.51534 4.92542 6.50286C5.09204 6.49037 5.25914 6.51984 5.41144 6.58856L6.58844 5.41156C6.53005 5.28223 6.49985 5.14196 6.49985 5.00006C6.49985 4.85816 6.53005 4.71789 6.58844 4.58856L4.91144 2.91156C4.69812 3.00786 4.45778 3.02628 4.23228 2.96362C4.00678 2.90096 3.8104 2.76119 3.67734 2.56865C3.54428 2.37611 3.48296 2.143 3.50408 1.90991C3.5252 1.67681 3.6274 1.45851 3.79289 1.29302C3.95839 1.12752 4.17669 1.02532 4.40978 1.0042C4.64287 0.983086 4.87599 1.0444 5.06853 1.17746C5.26107 1.31052 5.40084 1.5069 5.4635 1.7324C5.52616 1.95791 5.50773 2.19824 5.41144 2.41156L7.08844 4.08856C7.24074 4.01984 7.40784 3.99037 7.57446 4.00286C7.74108 4.01534 7.90192 4.06938 8.04228 4.16003C8.18264 4.25068 8.29805 4.37506 8.37796 4.5218C8.45787 4.66855 8.49974 4.83297 8.49974 5.00006C8.49974 5.16715 8.45787 5.33158 8.37796 5.47832C8.29805 5.62506 8.18264 5.74944 8.04228 5.84009C7.90192 5.93074 7.74108 5.98478 7.57446 5.99727C7.40784 6.00975 7.24074 5.98029 7.08844 5.91156L5.91144 7.08856C5.96983 7.21789 6.00003 7.35816 6.00003 7.50006C6.00003 7.64196 5.96983 7.78223 5.91144 7.91156L7.08844 9.08856Z" fill="#FF7373"/>
</svg>
