<svg width="12" height="12" viewBox="0 0 12 12" fill="none" xmlns="http://www.w3.org/2000/svg">
<path fill-rule="evenodd" clip-rule="evenodd" d="M2.91144 7.08844C3.00773 7.30176 3.02616 7.54209 2.9635 7.7676C2.90084 7.9931 2.76107 8.18948 2.56853 8.32254C2.37599 8.4556 2.14287 8.51691 1.90978 8.4958C1.67669 8.47468 1.45839 8.37248 1.29289 8.20698C1.1274 8.04149 1.02519 7.82319 1.00408 7.5901C0.982964 7.357 1.04428 7.12389 1.17734 6.93135C1.3104 6.73881 1.50678 6.59904 1.73228 6.53638C1.95778 6.47372 2.19812 6.49214 2.41144 6.58844L3.58844 5.41144C3.51972 5.25914 3.49025 5.09204 3.50273 4.92542C3.51522 4.7588 3.56926 4.59796 3.65991 4.4576C3.75056 4.31724 3.87494 4.20183 4.02168 4.12192C4.16842 4.04201 4.33285 4.00014 4.49994 4.00014C4.66703 4.00014 4.83146 4.04201 4.9782 4.12192C5.12494 4.20183 5.24932 4.31724 5.33997 4.4576C5.43062 4.59796 5.48466 4.7588 5.49714 4.92542C5.50963 5.09204 5.48016 5.25914 5.41144 5.41144L6.58844 6.58844C6.71777 6.53005 6.85804 6.49985 6.99994 6.49985C7.14184 6.49985 7.28211 6.53005 7.41144 6.58844L9.08844 4.91144C8.99214 4.69812 8.97372 4.45778 9.03638 4.23228C9.09904 4.00678 9.23881 3.8104 9.43135 3.67734C9.62389 3.54428 9.857 3.48296 10.0901 3.50408C10.3232 3.52519 10.5415 3.6274 10.707 3.79289C10.8725 3.95839 10.9747 4.17669 10.9958 4.40978C11.0169 4.64287 10.9556 4.87599 10.8225 5.06853C10.6895 5.26107 10.4931 5.40084 10.2676 5.4635C10.0421 5.52616 9.80176 5.50773 9.58844 5.41144L7.91144 7.08844C7.98016 7.24074 8.00963 7.40784 7.99714 7.57446C7.98466 7.74108 7.93062 7.90192 7.83997 8.04228C7.74932 8.18264 7.62494 8.29805 7.4782 8.37796C7.33146 8.45787 7.16703 8.49974 6.99994 8.49974C6.83285 8.49974 6.66842 8.45787 6.52168 8.37796C6.37494 8.29805 6.25056 8.18264 6.15991 8.04228C6.06926 7.90192 6.01522 7.74108 6.00273 7.57446C5.99025 7.40784 6.01972 7.24074 6.08844 7.08844L4.91144 5.91144C4.78211 5.96983 4.64184 6.00003 4.49994 6.00003C4.35804 6.00003 4.21777 5.96983 4.08844 5.91144L2.91144 7.08844Z" fill="#52EA94"/>
</svg>
