<svg width="32" height="32" viewBox="0 0 32 32" fill="none" xmlns="http://www.w3.org/2000/svg">
<g clip-path="url(#clip0_84_30508)">
<path d="M25.536 0H6.464C2.892 0 0 2.892 0 6.464V25.54C0 29.108 2.892 32 6.464 32H25.54C29.108 32 32.004 29.108 32.004 25.536V6.464C32 2.892 29.108 0 25.536 0Z" fill="url(#paint0_linear_84_30508)"/>
<path d="M15.864 7.35245L16.512 6.23245C16.912 5.53245 17.804 5.29645 18.504 5.69645C19.204 6.09645 19.44 6.98845 19.04 7.68845L12.796 18.4964H17.312C18.776 18.4964 19.596 20.2164 18.96 21.4084H5.72004C4.91204 21.4084 4.26404 20.7604 4.26404 19.9524C4.26404 19.1444 4.91204 18.4964 5.72004 18.4964H9.43204L14.184 10.2604L12.7 7.68445C12.3 6.98445 12.536 6.10045 13.236 5.69245C13.936 5.29245 14.82 5.52845 15.228 6.22845L15.864 7.35245ZM10.248 22.9084L8.84804 25.3364C8.44804 26.0364 7.55604 26.2724 6.85604 25.8724C6.15604 25.4724 5.92004 24.5804 6.32004 23.8804L7.36004 22.0804C8.53604 21.7164 9.49204 21.9964 10.248 22.9084ZM22.304 18.5044H26.092C26.9 18.5044 27.548 19.1524 27.548 19.9604C27.548 20.7684 26.9 21.4164 26.092 21.4164H23.988L25.408 23.8804C25.808 24.5804 25.572 25.4644 24.872 25.8724C24.172 26.2724 23.288 26.0364 22.88 25.3364C20.488 21.1884 18.692 18.0844 17.5 16.0164C16.28 13.9124 17.152 11.8004 18.012 11.0844C18.968 12.7244 20.396 15.2004 22.304 18.5044Z" fill="white"/>
</g>
<defs>
<linearGradient id="paint0_linear_84_30508" x1="16.002" y1="0" x2="16.002" y2="32" gradientUnits="userSpaceOnUse">
<stop stop-color="#18BFFB"/>
<stop offset="1" stop-color="#2072F3"/>
</linearGradient>
<clipPath id="clip0_84_30508">
<rect width="32" height="32" fill="white"/>
</clipPath>
</defs>
</svg>
