<svg width="32" height="32" viewBox="0 0 32 32" fill="none" xmlns="http://www.w3.org/2000/svg">
<g clip-path="url(#clip0_84_30481)">
<path d="M15.7601 15.3604L3.44006 28.2404C3.84006 29.6004 5.12006 30.6404 6.64006 30.6404C7.28006 30.6404 7.84006 30.4804 8.32006 30.1604L22.2401 22.2404L15.7601 15.3604Z" fill="#EA4335"/>
<path d="M28.2401 13.1207L22.2401 9.68066L15.5201 15.6007L22.3201 22.2407L28.3201 18.8807C29.3601 18.3207 30.0801 17.2007 30.0801 16.0007C30.0001 14.8007 29.2801 13.6807 28.2401 13.1207Z" fill="#FBBC04"/>
<path d="M3.43999 3.76074C3.35999 4.00074 3.35999 4.32074 3.35999 4.64074V27.4407C3.35999 27.7607 3.35999 28.0007 3.43999 28.3207L16.24 15.7607L3.43999 3.76074Z" fill="#4285F4"/>
<path d="M15.8401 16.0004L22.2401 9.68035L8.40006 1.84035C7.92006 1.52035 7.28006 1.36035 6.64006 1.36035C5.12006 1.36035 3.76006 2.40035 3.44006 3.76035L15.8401 16.0004Z" fill="#34A853"/>
</g>
<defs>
<clipPath id="clip0_84_30481">
<rect width="32" height="32" fill="white"/>
</clipPath>
</defs>
</svg>
