<svg width="21" height="20" viewBox="0 0 21 20" fill="none" xmlns="http://www.w3.org/2000/svg">
<path d="M17.6713 0L2.37317 0.00843441L4.29481 3.7656C4.4905 4.14866 4.88486 4.38931 5.31548 4.38931L15.8629 4.38286L17.6713 0Z" fill="url(#paint0_linear_258_5133)"/>
<path d="M20.2828 3.82216L17.6718 0L14.2497 8.274C13.9839 8.91656 13.3571 9.33585 12.6613 9.33634L11.1583 9.33734L9.37329 13.7202L13.7346 13.7222C15.6279 13.7222 17.3325 12.578 18.0487 10.8274L20.4109 5.05024C20.5763 4.64535 20.5281 4.18587 20.2828 3.82216Z" fill="url(#paint1_linear_258_5133)"/>
<path d="M5.63827 6.1662L0 20H4.2133C4.61512 20 4.97719 19.7604 5.12669 19.3942L10.5196 6.1662H5.63827Z" fill="url(#paint2_linear_258_5133)"/>
<defs>
<linearGradient id="paint0_linear_258_5133" x1="2.17682" y1="2.1944" x2="20.1662" y2="2.1944" gradientUnits="userSpaceOnUse">
<stop stop-color="#00C2F4"/>
<stop offset="0.1645" stop-color="#00BEF3"/>
<stop offset="0.322" stop-color="#00B3F0"/>
<stop offset="0.4766" stop-color="#009FEA"/>
<stop offset="0.6296" stop-color="#0084E2"/>
<stop offset="0.7813" stop-color="#0061D9"/>
<stop offset="0.9302" stop-color="#0037CD"/>
<stop offset="0.959" stop-color="#002ECA"/>
</linearGradient>
<linearGradient id="paint1_linear_258_5133" x1="8.82265" y1="16.9857" x2="26.8074" y2="-5.79495" gradientUnits="userSpaceOnUse">
<stop stop-color="#0063D8"/>
<stop offset="0.1651" stop-color="#0074DF"/>
<stop offset="1" stop-color="#00C8FF"/>
</linearGradient>
<linearGradient id="paint2_linear_258_5133" x1="-0.126975" y1="13.083" x2="12.2527" y2="13.083" gradientUnits="userSpaceOnUse">
<stop stop-color="#00A6EC"/>
<stop offset="1" stop-color="#0063D8"/>
</linearGradient>
</defs>
</svg>
