<svg width="360" height="74" viewBox="0 0 360 74" fill="none" xmlns="http://www.w3.org/2000/svg">
<g clip-path="url(#clip0_57_51728)">
<path d="M339.592 59.5537H337.133V69.3206H339.592V59.5537Z" fill="#F2F2F2"/>
<path d="M338.415 55.4331H338.31C337.66 55.4331 337.133 55.9597 337.133 56.6092C337.133 57.2587 337.66 57.7853 338.31 57.7853H338.415C339.065 57.7853 339.592 57.2587 339.592 56.6092C339.592 55.9597 339.065 55.4331 338.415 55.4331Z" fill="#F2F2F2"/>
<path d="M357.543 68.5472C357.54 68.4974 357.481 68.4761 357.447 68.513C357.184 68.793 356.811 69.0446 356.325 69.2677C355.783 69.5179 355.179 69.643 354.513 69.643C354.109 69.643 353.711 69.5804 353.314 69.4553C352.918 69.3303 352.557 69.1398 352.23 68.8826C351.904 68.6253 351.64 68.2956 351.438 67.892C351.236 67.4897 351.137 67.0165 351.137 66.475C351.137 65.9335 351.24 65.4232 351.449 64.9855C351.658 64.5477 351.95 64.181 352.325 63.8812C352.7 63.5827 353.151 63.3567 353.68 63.2046C354.207 63.0526 354.791 62.9758 355.43 62.9758C355.624 62.9758 355.839 62.9787 356.075 62.9858C356.311 62.9929 356.54 63.0028 356.763 63.017C357.013 63.0312 357.27 63.0455 357.533 63.0582V62.8294C357.533 62.3433 357.339 61.961 356.949 61.6839C356.56 61.4067 356.054 61.2675 355.428 61.2675C354.733 61.2675 354.177 61.3584 353.761 61.5375C353.344 61.718 352.976 61.9127 352.656 62.1216L351.532 60.4545C351.727 60.3152 351.948 60.1731 352.198 60.0281C352.449 59.8817 352.74 59.7495 353.074 59.6316C353.408 59.5136 353.793 59.417 354.231 59.3402C354.669 59.2635 355.179 59.2251 355.764 59.2251C356.389 59.2251 356.955 59.3118 357.462 59.4852C357.97 59.6586 358.403 59.9016 358.764 60.2143C359.125 60.527 359.403 60.9022 359.597 61.3385C359.792 61.7763 359.889 62.2524 359.889 62.7655V69.3189H357.597L357.543 68.5443V68.5472ZM357.535 64.913C357.285 64.8988 357.042 64.8846 356.806 64.8718C356.611 64.8576 356.406 64.8476 356.191 64.8405C355.975 64.8334 355.792 64.8306 355.639 64.8306C354.847 64.8306 354.291 64.9869 353.971 65.2996C353.651 65.6123 353.492 65.969 353.492 66.3726C353.492 66.7763 353.641 67.1159 353.94 67.3519C354.295 67.6319 354.851 67.7456 355.609 67.693C356.092 67.6034 356.497 67.4258 356.825 67.1643C357.033 66.998 357.204 66.8033 357.336 66.5816C357.468 66.3598 357.533 66.1225 357.533 65.8723V64.9144L357.535 64.913Z" fill="#F2F2F2"/>
<path d="M284.865 55.4331H287.511L294.241 65.3095V55.4331H296.806V69.3217H294.222L287.428 59.3288V69.3217H284.865V55.4331Z" fill="#F2F2F2"/>
<path d="M308.025 67.9133C307.983 67.9545 307.868 68.0697 307.681 68.2573C307.493 68.4449 307.222 68.6424 306.868 68.8513C306.514 69.0603 306.062 69.2465 305.513 69.4142C304.964 69.5805 304.307 69.6643 303.544 69.6643C302.781 69.6643 302.057 69.5321 301.419 69.2692C300.779 69.0048 300.235 68.641 299.783 68.1748C299.331 67.7101 298.984 67.1501 298.741 66.4977C298.498 65.8454 298.377 65.1234 298.377 64.3303C298.377 63.6083 298.498 62.9375 298.741 62.3206C298.984 61.7024 299.325 61.1637 299.761 60.7061C300.199 60.2485 300.72 59.886 301.324 59.6231C301.928 59.3587 302.599 59.2266 303.335 59.2266C304.224 59.2266 304.978 59.39 305.597 59.7169C306.215 60.0438 306.711 60.4702 307.086 60.9975C307.462 61.5262 307.732 62.1231 307.9 62.7897C308.066 63.4562 308.15 64.137 308.15 64.832V65.1859H300.856C300.856 65.5469 300.936 65.8738 301.096 66.1652C301.255 66.4565 301.464 66.7067 301.722 66.9156C301.979 67.1231 302.27 67.2837 302.597 67.3946C302.924 67.5054 303.247 67.5608 303.567 67.5608C304.039 67.5608 304.452 67.5168 304.806 67.4258C305.16 67.3363 305.463 67.2311 305.713 67.1131C305.963 66.9952 306.168 66.8701 306.327 66.7379C306.487 66.6058 306.609 66.4992 306.693 66.4153L308.026 67.9147L308.025 67.9133ZM305.628 63.4136C305.628 63.1635 305.58 62.9133 305.483 62.6632C305.385 62.413 305.243 62.1871 305.057 61.9852C304.869 61.7848 304.629 61.6171 304.337 61.4849C304.046 61.3528 303.712 61.2874 303.337 61.2874C302.933 61.2874 302.576 61.3542 302.263 61.4849C301.951 61.6171 301.69 61.7834 301.482 61.9852C301.273 62.1871 301.113 62.4116 301.002 62.6632C300.892 62.9133 300.836 63.1635 300.836 63.4136H305.629H305.628Z" fill="#F2F2F2"/>
<path d="M312.139 55.4331H309.68V69.3217H312.139V55.4331Z" fill="#F2F2F2"/>
<path d="M313.676 64.4345C313.676 63.7253 313.804 63.0559 314.061 62.4234C314.318 61.791 314.675 61.2395 315.134 60.7662C315.592 60.2944 316.145 59.9192 316.79 59.642C317.436 59.3635 318.148 59.2256 318.927 59.2256C319.706 59.2256 320.417 59.3649 321.063 59.642C321.709 59.9206 322.262 60.2944 322.721 60.7662C323.18 61.2381 323.537 61.791 323.794 62.4234C324.051 63.0559 324.179 63.7253 324.179 64.4345C324.179 65.1437 324.051 65.8131 323.794 66.4456C323.537 67.0781 323.18 67.6324 322.721 68.1127C322.262 68.5917 321.71 68.9712 321.063 69.2483C320.418 69.5269 319.704 69.6648 318.927 69.6648C318.149 69.6648 317.437 69.5255 316.79 69.2483C316.145 68.9712 315.592 68.5917 315.134 68.1127C314.675 67.6338 314.318 67.0781 314.061 66.4456C313.804 65.8131 313.676 65.1423 313.676 64.4345ZM318.927 67.5386C319.399 67.5386 319.81 67.4447 320.156 67.2571C320.503 67.0695 320.792 66.8222 321.021 66.5167C321.25 66.2111 321.42 65.8785 321.531 65.5161C321.642 65.1551 321.697 64.7941 321.697 64.4331C321.697 64.0721 321.642 63.7281 321.531 63.36C321.42 62.9919 321.25 62.6594 321.021 62.3595C320.792 62.061 320.503 61.818 320.156 61.6304C319.81 61.4428 319.399 61.349 318.927 61.349C318.455 61.349 318.044 61.4428 317.697 61.6304C317.35 61.818 317.062 62.061 316.833 62.3595C316.604 62.6579 316.433 62.9919 316.323 63.36C316.212 63.7281 316.156 64.0863 316.156 64.4331C316.156 64.7799 316.212 65.1551 316.323 65.5161C316.433 65.8771 316.604 66.2111 316.833 66.5167C317.062 66.8222 317.35 67.0695 317.697 67.2571C318.044 67.4447 318.455 67.5386 318.927 67.5386Z" fill="#F2F2F2"/>
<path d="M327.447 70.9135C327.836 71.1778 328.256 71.3683 328.708 71.4863C329.158 71.6042 329.69 71.6639 330.301 71.6639C330.913 71.6639 331.476 71.4692 331.906 71.0798C332.337 70.6903 332.553 70.1488 332.553 69.4553V68.3922C332.219 68.6707 331.855 68.8967 331.458 69.0701C331.063 69.2435 330.537 69.3302 329.885 69.3302C329.177 69.3302 328.547 69.2122 327.999 68.9763C327.45 68.7404 326.981 68.4106 326.593 67.9871C326.203 67.5636 325.908 67.0633 325.707 66.4863C325.505 65.9106 325.404 65.2739 325.404 64.5803C325.404 63.8868 325.532 63.1776 325.79 62.538C326.047 61.8998 326.415 61.3441 326.894 60.8709C327.373 60.399 327.953 60.0266 328.634 59.7566C329.315 59.4851 330.078 59.3501 330.927 59.3501C331.775 59.3501 332.556 59.4197 333.271 59.559C333.986 59.6983 334.566 59.8433 335.011 59.9968V69.4979C335.011 70.1787 334.893 70.7827 334.657 71.31C334.421 71.8387 334.094 72.2822 333.677 72.6432C333.261 73.0042 332.768 73.2785 332.198 73.4661C331.628 73.6537 331.009 73.7475 330.343 73.7475C329.828 73.7475 329.373 73.7233 328.978 73.675C328.583 73.6253 328.227 73.5599 327.915 73.4774C327.602 73.3936 327.318 73.2898 327.06 73.1648C326.803 73.0397 326.564 72.8933 326.341 72.727L327.446 70.9149L327.447 70.9135ZM332.553 61.6838C332.358 61.6142 332.156 61.563 331.949 61.5275C331.741 61.4934 331.414 61.4749 330.969 61.4749C330.469 61.4749 330.031 61.5587 329.656 61.725C329.281 61.8913 328.961 62.1145 328.696 62.3916C328.432 62.6702 328.234 62.9928 328.102 63.3609C327.97 63.729 327.905 64.1142 327.905 64.5178C327.905 65.2682 328.092 65.9007 328.468 66.4138C328.843 66.9283 329.447 67.1841 330.28 67.1841C331.031 67.1841 331.596 67.0249 331.979 66.7051C332.361 66.3853 332.552 65.8794 332.552 65.1844V61.6838H332.553Z" fill="#F2F2F2"/>
<path d="M350.193 68.0383C349.735 68.5244 349.192 68.9138 348.568 69.2052C347.943 69.4966 347.213 69.643 346.38 69.643C345.547 69.643 344.804 69.5179 344.152 69.2677C343.498 69.0176 342.95 68.6637 342.505 68.2046C342.061 67.7456 341.721 67.197 341.485 66.5588C341.249 65.9207 341.131 65.2115 341.131 64.434C341.131 63.7248 341.259 63.0554 341.516 62.4229C341.773 61.7905 342.13 61.239 342.589 60.7657C343.047 60.2939 343.6 59.9187 344.245 59.6415C344.891 59.363 345.603 59.2251 346.382 59.2251C347.161 59.2251 347.896 59.3672 348.55 59.6515C349.202 59.9357 349.758 60.3223 350.217 60.8084L348.653 62.3917C348.375 62.0719 348.049 61.8217 347.674 61.6412C347.299 61.4607 346.868 61.3698 346.382 61.3698C345.896 61.3698 345.499 61.4565 345.152 61.6299C344.805 61.8033 344.517 62.0292 344.288 62.3078C344.059 62.5864 343.889 62.9119 343.778 63.2871C343.667 63.6623 343.611 64.0446 343.611 64.4326C343.611 64.8206 343.667 65.1759 343.778 65.5369C343.889 65.8979 344.059 66.2248 344.288 66.5162C344.517 66.8075 344.805 67.0449 345.152 67.224C345.499 67.4045 345.91 67.494 346.382 67.494C346.854 67.494 347.313 67.4002 347.715 67.2126C348.119 67.025 348.459 66.772 348.736 66.4522L350.194 68.0355L350.193 68.0383Z" fill="#F2F2F2"/>
<path d="M70.5781 11.8869H77.9856L78.1803 15.3306C78.5712 14.8985 79.0574 14.4437 79.643 13.9662C80.2273 13.4901 80.9195 13.0566 81.7227 12.6671C82.5244 12.2763 83.4342 11.9523 84.4519 11.6922C85.4697 11.4321 86.6055 11.3027 87.8635 11.3027C90.2033 11.3027 92.2275 11.7575 93.939 12.6671C95.6505 13.5768 97.0677 14.7791 98.195 16.2729C99.3208 17.7666 100.165 19.4679 100.73 21.3724C101.292 23.2783 101.575 25.2482 101.575 27.2848C101.575 29.6683 101.228 31.7035 100.535 33.392C99.8425 35.0805 98.9754 36.5543 97.9363 37.8093C96.2035 39.8886 94.3072 41.3397 92.2503 42.1626C90.192 42.9855 88.0796 43.3977 85.9147 43.3977C84.9168 43.3977 84.0625 43.3536 83.3475 43.2683C82.6324 43.1802 81.9828 43.0623 81.3986 42.9102C80.8143 42.7581 80.2713 42.5847 79.7738 42.3914C79.2749 42.1967 78.7432 41.9921 78.1817 41.7746V55.3533H70.5795V11.8869H70.5781ZM78.1803 34.8872C79.697 36.1436 81.9928 36.7703 85.0689 36.7703C86.4548 36.7703 87.6901 36.5003 88.7733 35.9588C89.8551 35.4173 90.7762 34.7024 91.5353 33.8141C92.2929 32.9272 92.8672 31.9196 93.2581 30.7925C93.6476 29.6669 93.8424 28.4972 93.8424 27.2834C93.8424 25.9844 93.7016 24.772 93.4202 23.645C93.1387 22.5193 92.6838 21.533 92.0555 20.6888C91.4272 19.8445 90.6142 19.1737 89.6191 18.6748C88.6226 18.1774 87.3873 17.9272 85.9147 17.9272C84.7448 17.9272 83.6829 18.1774 82.7305 18.6748C81.7767 19.1737 80.965 19.8118 80.2941 20.5907C79.6217 21.371 79.1029 22.2266 78.7347 23.1575C78.3665 24.0898 78.1817 24.9881 78.1817 25.8536V34.8843L78.1803 34.8872Z" fill="#F2F2F2"/>
<path d="M107.683 13.1535H115.027L115.221 16.9866C115.568 16.5546 116.01 16.077 116.553 15.5583C117.095 15.0381 117.733 14.5619 118.469 14.1285C119.206 13.6964 120.061 13.3269 121.037 13.0241C122.012 12.7214 123.126 12.5693 124.383 12.5693C125.119 12.5693 125.78 12.6134 126.364 12.6987C126.949 12.7854 127.544 12.9374 128.151 13.1535L126.592 20.365C126.072 20.1489 125.541 19.9969 125 19.9102C124.457 19.8235 123.818 19.7808 123.082 19.7808C122.043 19.7808 121.045 19.9542 120.093 20.2996C119.139 20.6464 118.316 21.1452 117.624 21.7933C116.93 22.4428 116.377 23.2231 115.966 24.1327C115.554 25.0423 115.349 26.0614 115.349 27.1856V43.6239H107.682V13.1535H107.683Z" fill="#F2F2F2"/>
<path d="M129.838 27.9179C129.838 25.7079 130.239 23.6186 131.04 21.6473C131.842 19.6774 132.958 17.9563 134.387 16.4824C135.817 15.01 137.538 13.8417 139.552 12.9734C141.567 12.1078 143.786 11.6743 146.212 11.6743C148.639 11.6743 150.858 12.1078 152.873 12.9734C154.888 13.8403 156.609 15.01 158.039 16.4824C159.468 17.9563 160.583 19.6774 161.385 21.6473C162.187 23.6186 162.588 25.7079 162.588 27.9179C162.588 30.128 162.187 32.2172 161.385 34.1871C160.583 36.1584 159.469 37.8909 158.039 39.3847C156.609 40.8784 154.888 42.0595 152.873 42.9265C150.859 43.792 148.639 44.2255 146.212 44.2255C143.786 44.2255 141.567 43.792 139.552 42.9265C137.538 42.0609 135.817 40.8798 134.387 39.3847C132.958 37.8909 131.842 36.1584 131.04 34.1871C130.239 32.2172 129.838 30.1266 129.838 27.9179ZM146.214 37.5981C147.686 37.5981 148.964 37.3054 150.047 36.7212C151.131 36.1371 152.029 35.3682 152.744 34.4145C153.459 33.4623 153.989 32.4233 154.336 31.2963C154.683 30.1706 154.856 29.045 154.856 27.9179C154.856 26.7909 154.683 25.7207 154.336 24.5723C153.989 23.4253 153.459 22.3864 152.744 21.454C152.029 20.5231 151.129 19.7641 150.047 19.18C148.964 18.5959 147.685 18.3031 146.214 18.3031C144.742 18.3031 143.463 18.5959 142.38 19.18C141.297 19.7641 140.398 20.5231 139.683 21.454C138.968 22.3864 138.438 23.4253 138.091 24.5723C137.744 25.7207 137.572 26.8363 137.572 27.9179C137.572 28.9995 137.746 30.1706 138.091 31.2963C138.438 32.4233 138.968 33.4623 139.683 34.4145C140.398 35.3682 141.297 36.1371 142.38 36.7212C143.463 37.3054 144.741 37.5981 146.214 37.5981Z" fill="#F2F2F2"/>
<path d="M170.97 20.2715H165.771V14.035H170.97V13.7095C170.97 11.0688 171.392 8.86872 172.236 7.11488C173.082 5.36105 174.208 3.954 175.615 2.89231C177.022 1.83205 178.647 1.08447 180.488 0.650982C182.329 0.218918 184.268 0.00146484 186.305 0.00146484C187.084 0.00146484 187.962 0.0668429 188.936 0.196178C189.911 0.325513 190.918 0.521647 191.958 0.780317C192.997 1.04041 194.048 1.37583 195.11 1.78657C196.17 2.19874 197.156 2.68623 198.066 3.24905L194.882 9.03074C193.884 8.42529 192.585 7.86105 190.983 7.34086C189.379 6.8221 187.799 6.56201 186.239 6.56201C183.553 6.56201 181.604 7.01682 180.391 7.92642C179.179 8.83603 178.572 10.3298 178.572 12.4091V14.0336H197.546V43.6243H189.878V20.2701H178.637V43.6243H170.97V20.2701V20.2715Z" fill="#F2F2F2"/>
<path d="M208.009 18.4161H202.811V12.1796H208.009V2.30322H215.677V12.1782H223.864V18.4147H215.677V31.7347C215.677 33.4672 215.969 34.799 216.554 35.7299C217.138 36.6622 218.08 37.127 219.38 37.127C220.592 37.127 221.556 36.9536 222.271 36.6068C222.986 36.26 223.668 35.8493 224.318 35.3717L227.567 40.1145C226.051 41.3709 224.555 42.2691 223.084 42.8106C221.61 43.3521 219.965 43.6236 218.146 43.6236C216.326 43.6236 214.701 43.3521 213.402 42.8106C212.101 42.2691 211.051 41.5016 210.251 40.5039C209.449 39.5076 208.875 38.3066 208.528 36.8982C208.181 35.4911 208.009 33.9419 208.009 32.2535V18.4147V18.4161Z" fill="#F2F2F2"/>
<path d="M47.0908 0L6.66626 0.0241615L12.004 10.4704C12.5484 11.535 13.643 12.2044 14.8385 12.2044L42.0644 12.1873L47.0908 0Z" fill="url(#paint0_linear_57_51728)"/>
<path d="M56.4174 10.6269L49.3241 0.236057C49.2545 0.135148 49.1009 0.150781 49.054 0.264482L39.6579 23.0047C38.9202 24.7912 37.1774 25.9566 35.2442 25.9581L31.0692 25.9609L26.1096 38.1468L38.2251 38.1525C43.4846 38.1525 48.221 34.9717 50.2097 30.1039L56.7728 14.0422C57.2333 12.9151 57.0997 11.6388 56.4174 10.6269Z" fill="url(#paint1_linear_57_51728)"/>
<path d="M15.736 17.1436L0 55.9653H11.7046C12.8219 55.9653 13.8255 55.2988 14.242 54.2811L29.2957 17.1436H15.7346H15.736Z" fill="url(#paint2_linear_57_51728)"/>
<path d="M234.918 30.4692V12.7046H237.041V29.3617C237.041 31.6063 237.292 33.5998 237.793 35.3423C238.324 37.0848 239.253 38.4581 240.58 39.4623C241.908 40.4665 243.78 40.9685 246.199 40.9685C248.647 40.9685 250.519 40.4665 251.817 39.4623C253.144 38.4581 254.058 37.0848 254.56 35.3423C255.091 33.5998 255.356 31.6063 255.356 29.3617V12.7046H257.479V30.4692C257.479 32.8024 257.125 34.9141 256.418 36.8043C255.739 38.6944 254.574 40.2006 252.923 41.3229C251.301 42.4157 249.059 42.9621 246.199 42.9621C243.338 42.9621 241.082 42.4157 239.43 41.3229C237.808 40.2006 236.643 38.6944 235.935 36.8043C235.257 34.9141 234.918 32.8024 234.918 30.4692Z" fill="#F2F2F2"/>
<path d="M264.862 42.2533V12.7046H266.985V40.2597H283.707V42.2533H264.862Z" fill="#F2F2F2"/>
<path d="M290.642 42.2533V14.6095H279.184V12.7046H304.223V14.6095H292.765V42.2533H290.642Z" fill="#F2F2F2"/>
<path d="M309.143 42.2533V12.7046H318.035C320.601 12.7046 322.65 13.0738 324.184 13.8121C325.717 14.5209 326.809 15.5103 327.457 16.7803C328.136 18.0207 328.475 19.4531 328.475 21.0775C328.475 22.9972 327.974 24.7101 326.971 26.2164C325.998 27.693 324.435 28.6824 322.282 29.1845L329.315 42.2533H326.882L320.025 29.4503H311.266V42.2533H309.143ZM311.266 27.4568H318.919C323.786 27.4568 326.219 25.3303 326.219 21.0775C326.219 18.951 325.57 17.3562 324.272 16.293C322.975 15.2297 321.102 14.6981 318.654 14.6981H311.266V27.4568Z" fill="#F2F2F2"/>
<path d="M332.576 42.2533L344.653 12.7046H346.776L358.853 42.2533H356.42L352.572 32.7286H338.681L334.876 42.2533H332.576ZM339.477 30.735H351.775L345.626 15.4069L339.477 30.735Z" fill="#F2F2F2"/>
</g>
<defs>
<linearGradient id="paint0_linear_57_51728" x1="6.14687" y1="6.10198" x2="53.6835" y2="6.10198" gradientUnits="userSpaceOnUse">
<stop stop-color="#00C2F4"/>
<stop offset="0.1645" stop-color="#00BEF3"/>
<stop offset="0.322" stop-color="#00B3F0"/>
<stop offset="0.4766" stop-color="#009FEA"/>
<stop offset="0.6296" stop-color="#0084E2"/>
<stop offset="0.7813" stop-color="#0061D9"/>
<stop offset="0.9302" stop-color="#0037CD"/>
<stop offset="0.959" stop-color="#002ECA"/>
</linearGradient>
<linearGradient id="paint1_linear_57_51728" x1="24.5806" y1="47.1862" x2="74.3206" y2="-16.047" gradientUnits="userSpaceOnUse">
<stop stop-color="#0063D8"/>
<stop offset="0.1651" stop-color="#0074DF"/>
<stop offset="1" stop-color="#00C8FF"/>
</linearGradient>
<linearGradient id="paint2_linear_57_51728" x1="-0.353823" y1="36.5544" x2="34.1229" y2="36.5544" gradientUnits="userSpaceOnUse">
<stop stop-color="#00A6EC"/>
<stop offset="1" stop-color="#0063D8"/>
</linearGradient>
<clipPath id="clip0_57_51728">
<rect width="359.89" height="73.7479" fill="white"/>
</clipPath>
</defs>
</svg>
