<svg width="152" height="32" viewBox="0 0 152 32" fill="none" xmlns="http://www.w3.org/2000/svg">
<path d="M39.6865 6.69168H43.8539L43.9633 8.62686C44.1828 8.38351 44.4567 8.12776 44.7864 7.85961C45.1153 7.59223 45.5047 7.34811 45.9562 7.12956C46.4069 6.91023 46.9189 6.72733 47.4914 6.58163C48.0639 6.43593 48.7032 6.3623 49.4107 6.3623C50.7263 6.3623 51.8659 6.61805 52.8286 7.12956C53.7914 7.64106 54.5888 8.31608 55.2234 9.15618C55.8572 9.99628 56.332 10.9519 56.6493 12.0229C56.9658 13.0947 57.1248 14.2014 57.1248 15.3461C57.1248 16.6853 56.9293 17.8292 56.5399 18.7794C56.1504 19.7287 55.6625 20.5564 55.0776 21.2625C54.1024 22.4312 53.0366 23.2472 51.8791 23.7091C50.7217 24.1718 49.5332 24.4028 48.3153 24.4028C47.7544 24.4028 47.2734 24.378 46.8716 24.3299C46.4698 24.2803 46.1036 24.2145 45.7747 24.1292C45.4458 24.044 45.1409 23.9463 44.8608 23.837C44.58 23.7277 44.2813 23.6123 43.9648 23.4898V31.122H39.6881V6.69168H39.6865ZM43.9633 19.6195C44.8166 20.3263 46.1075 20.6781 47.8382 20.6781C48.6178 20.6781 49.3121 20.5262 49.9219 20.2216C50.5309 19.9171 51.0491 19.5156 51.4749 19.0165C51.9008 18.5174 52.2243 17.9517 52.4439 17.3185C52.6634 16.6853 52.7728 16.0281 52.7728 15.3461C52.7728 14.6161 52.6929 13.9348 52.5354 13.3017C52.3764 12.6685 52.1212 12.1151 51.7674 11.6401C51.4137 11.1658 50.9567 10.7883 50.3966 10.5078C49.8358 10.228 49.1415 10.0877 48.313 10.0877C47.6551 10.0877 47.0578 10.228 46.5217 10.5078C45.9857 10.7876 45.5288 11.1464 45.151 11.585C44.7732 12.0237 44.4807 12.5042 44.2736 13.0273C44.0665 13.5512 43.9625 14.0557 43.9625 14.5432V19.6195H43.9633Z" fill="white"/>
<path d="M60.5586 7.40282H64.6895L64.7989 9.55732C64.9936 9.31397 65.2434 9.04582 65.5483 8.75442C65.8532 8.46224 66.2123 8.19487 66.6266 7.95074C67.0409 7.70739 67.5218 7.50047 68.0703 7.32997C68.6187 7.16024 69.2456 7.07422 69.953 7.07422C70.3673 7.07422 70.7389 7.09902 71.0678 7.14707C71.3967 7.19589 71.7319 7.28114 72.0732 7.40282L71.1958 11.4561C70.9034 11.3344 70.6047 11.2491 70.3006 11.2003C69.9957 11.1515 69.6365 11.1275 69.2223 11.1275C68.6374 11.1275 68.0765 11.2251 67.5404 11.4196C67.0044 11.6149 66.5413 11.8947 66.1518 12.2597C65.7616 12.6248 65.4505 13.0634 65.2194 13.5749C64.9874 14.0864 64.8718 14.6584 64.8718 15.2908V24.5303H60.5586V7.40282Z" fill="white"/>
<path d="M73.0215 15.7016C73.0215 14.46 73.2465 13.2851 73.6979 12.1769C74.1487 11.0694 74.7762 10.1022 75.5807 9.27372C76.3852 8.44602 77.3533 7.78881 78.4867 7.30134C79.6193 6.81464 80.8683 6.57129 82.2336 6.57129C83.5982 6.57129 84.8471 6.81464 85.9805 7.30134C87.1139 7.78881 88.082 8.44602 88.8865 9.27372C89.6902 10.1014 90.3178 11.0694 90.7685 12.1769C91.2192 13.2851 91.445 14.4592 91.445 15.7016C91.445 16.9431 91.2192 18.118 90.7685 19.2255C90.3178 20.3338 89.6902 21.3072 88.8865 22.1473C88.082 22.9874 87.1139 23.6508 85.9805 24.1375C84.8471 24.6242 83.5982 24.8675 82.2336 24.8675C80.8683 24.8675 79.6201 24.6234 78.4867 24.1375C77.3533 23.6508 76.3852 22.9866 75.5807 22.1473C74.777 21.3072 74.1487 20.3338 73.6979 19.2255C73.2472 18.118 73.0215 16.9431 73.0215 15.7016ZM82.2336 21.1429C83.0621 21.1429 83.7812 20.9786 84.3902 20.65C84.9992 20.3214 85.505 19.8897 85.9076 19.3534C86.3094 18.8186 86.6081 18.2343 86.8028 17.6003C86.9975 16.9671 87.0953 16.3347 87.0953 15.7016C87.0953 15.0932 86.9975 14.4662 86.8028 13.8206C86.6081 13.1758 86.3094 12.5915 85.9076 12.0676C85.5058 11.5445 84.9992 11.1182 84.3902 10.7896C83.7812 10.461 83.0613 10.2967 82.2336 10.2967C81.4051 10.2967 80.686 10.461 80.077 10.7896C79.468 11.1182 78.9622 11.5445 78.5596 12.0676C78.1578 12.5915 77.8591 13.1758 77.6636 13.8206C77.4689 14.4662 77.3712 15.0932 77.3712 15.7016C77.3712 16.3347 77.4681 16.9679 77.6636 17.6003C77.8583 18.2335 78.1578 18.8178 78.5596 19.3534C78.9615 19.8897 79.4673 20.3214 80.077 20.65C80.686 20.9786 81.4051 21.1429 82.2336 21.1429Z" fill="white"/>
<path d="M96.1609 11.4038H93.2363V7.8985H96.1609V7.7156C96.1609 6.2307 96.3983 4.99457 96.8739 4.00877C97.3494 3.02297 97.9824 2.23169 98.7752 1.63494C99.5665 1.03897 100.481 0.618916 101.517 0.37479C102.552 0.13144 103.643 0.00976562 104.789 0.00976562C105.227 0.00976562 105.721 0.0461909 106.269 0.119041C106.818 0.191891 107.384 0.30194 107.969 0.447641C108.554 0.593341 109.144 0.782442 109.741 1.01339C110.338 1.24512 110.893 1.51947 111.405 1.83567L109.613 5.08602C109.052 4.7458 108.321 4.42882 107.42 4.13664C106.518 3.84447 105.629 3.69877 104.752 3.69877C103.24 3.69877 102.144 3.95452 101.462 4.46602C100.779 4.97752 100.438 5.81685 100.438 6.98555V7.8985H111.113V24.5316H106.8V11.4038H100.476V24.5308H96.1625V11.4038H96.1609Z" fill="white"/>
<path d="M116.997 10.3615H114.072V6.85622H116.997V1.30566H121.31V6.85622H125.916V10.3615H121.31V17.8481C121.31 18.8222 121.475 19.5709 121.803 20.094C122.132 20.6179 122.662 20.8791 123.394 20.8791C124.076 20.8791 124.618 20.7822 125.021 20.5869C125.422 20.3924 125.806 20.1614 126.172 19.8933L127.999 22.5593C127.146 23.2661 126.305 23.7706 125.477 24.0752C124.649 24.3798 123.723 24.5317 122.699 24.5317C121.651 24.5317 120.762 24.379 120.031 24.0752C119.299 23.7706 118.708 23.3389 118.258 22.7786C117.807 22.2191 117.484 21.5433 117.289 20.752C117.094 19.9615 116.997 19.0904 116.997 18.141V10.3615Z" fill="white"/>
<path d="M27.6002 0L3.70605 0.0131737L6.70746 5.88148C7.01311 6.47978 7.62906 6.85566 8.30164 6.85566L24.7756 6.84558L27.6002 0Z" fill="url(#paint0_linear_258_1245)"/>
<path d="M31.6793 5.96983L27.6011 0L22.2561 12.9231C21.8411 13.9268 20.8621 14.5816 19.7753 14.5824L17.4278 14.584L14.6397 21.4295L21.4517 21.4326C24.4089 21.4326 27.0713 19.6455 28.1899 16.9113L31.8794 7.88796C32.1377 7.25556 32.0625 6.53791 31.6793 5.96983Z" fill="url(#paint1_linear_258_1245)"/>
<path d="M8.8064 9.63086L0 31.2379H6.58075C7.20834 31.2379 7.77387 30.8636 8.00737 30.2916L16.4305 9.63086H8.8064Z" fill="url(#paint2_linear_258_1245)"/>
<defs>
<linearGradient id="paint0_linear_258_1245" x1="3.39937" y1="3.42742" x2="31.497" y2="3.42742" gradientUnits="userSpaceOnUse">
<stop stop-color="#00C2F4"/>
<stop offset="0.1645" stop-color="#00BEF3"/>
<stop offset="0.322" stop-color="#00B3F0"/>
<stop offset="0.4766" stop-color="#009FEA"/>
<stop offset="0.6296" stop-color="#0084E2"/>
<stop offset="0.7813" stop-color="#0061D9"/>
<stop offset="0.9302" stop-color="#0037CD"/>
<stop offset="0.959" stop-color="#002ECA"/>
</linearGradient>
<linearGradient id="paint1_linear_258_1245" x1="13.7797" y1="26.53" x2="41.87" y2="-9.05111" gradientUnits="userSpaceOnUse">
<stop stop-color="#0063D8"/>
<stop offset="0.1651" stop-color="#0074DF"/>
<stop offset="1" stop-color="#00C8FF"/>
</linearGradient>
<linearGradient id="paint2_linear_258_1245" x1="-0.198322" y1="20.4341" x2="19.1375" y2="20.4341" gradientUnits="userSpaceOnUse">
<stop stop-color="#00A6EC"/>
<stop offset="1" stop-color="#0063D8"/>
</linearGradient>
</defs>
</svg>
