<svg width="14" height="14" viewBox="0 0 14 14" fill="none" xmlns="http://www.w3.org/2000/svg">
<g clip-path="url(#clip0_400_99128)">
<path d="M6.61472 1.98438C7.6614 1.98437 8.68459 2.29475 9.55487 2.87626C10.4252 3.45777 11.1035 4.28429 11.504 5.2513C11.9046 6.21832 12.0094 7.28239 11.8052 8.30896C11.601 9.33554 11.0969 10.2785 10.3568 11.0186C9.61671 11.7587 8.67374 12.2628 7.64716 12.467C6.62059 12.6712 5.55651 12.5664 4.5895 12.1658C3.62249 11.7653 2.79597 11.087 2.21446 10.2167C1.63295 9.34639 1.32257 8.3232 1.32257 7.27652H2.29988C2.29988 8.12991 2.55294 8.96414 3.02706 9.67371C3.50118 10.3833 4.17507 10.9363 4.9635 11.2629C5.75193 11.5895 6.6195 11.6749 7.4565 11.5084C8.2935 11.342 9.06233 10.931 9.66577 10.3276C10.2692 9.72413 10.6802 8.9553 10.8466 8.1183C11.0131 7.2813 10.9277 6.41373 10.6011 5.6253C10.2745 4.83687 9.72149 4.16298 9.01191 3.68886C8.30234 3.21474 7.46811 2.96168 6.61472 2.96168V1.98438Z" fill="#878787"/>
<rect x="6.61627" y="0.661133" width="0.661518" height="3.30759" fill="#878787"/>
<rect x="5.95343" y="0.661133" width="0.661518" height="3.30759" fill="#878787"/>
<rect x="5.29102" y="1.32227" width="0.661518" height="1.98455" fill="#878787"/>
<rect x="4.63141" y="1.9834" width="0.661518" height="0.661518" fill="#878787"/>
<path d="M7.89027 9.26208H8.59836L7.21545 7.55556C7.33804 7.53337 7.4565 7.49475 7.56712 7.44091C7.74712 7.34812 7.89409 7.20868 7.99007 7.03964C8.09362 6.85296 8.14585 6.64544 8.14214 6.43552C8.14586 6.22701 8.0936 6.02091 7.99007 5.83581C7.89409 5.66677 7.74712 5.52733 7.56712 5.43454C7.37535 5.33636 7.15874 5.28764 6.93981 5.29343H5.29077V9.26208H5.90857V7.58202H6.56914L7.89027 9.26208ZM5.90857 5.82258H6.98258C7.08701 5.8168 7.19058 5.84315 7.27723 5.89755C7.36394 5.95114 7.43301 6.02591 7.47682 6.11362C7.52432 6.21505 7.54704 6.32498 7.54335 6.43552C7.54743 6.54751 7.52471 6.65896 7.47682 6.76183C7.43301 6.84954 7.36394 6.92431 7.27723 6.9779C7.18869 7.02837 7.08648 7.05437 6.98258 7.05286H5.90857V5.82258Z" fill="#878787"/>
</g>
<defs>
<clipPath id="clip0_400_99128">
<rect width="13.2304" height="13.2304" fill="white"/>
</clipPath>
</defs>
</svg>
