<svg width="14" height="14" viewBox="0 0 14 14" fill="none" xmlns="http://www.w3.org/2000/svg">
<g clip-path="url(#clip0_400_99170)">
<path d="M6.61444 1.98438C5.56775 1.98437 4.54457 2.29475 3.67428 2.87626C2.80399 3.45777 2.12569 4.28429 1.72514 5.2513C1.32459 6.21832 1.21978 7.28239 1.42398 8.30896C1.62818 9.33554 2.13221 10.2785 2.87233 11.0186C3.61245 11.7587 4.55542 12.2628 5.58199 12.467C6.60857 12.6712 7.67264 12.5664 8.63965 12.1658C9.60667 11.7653 10.4332 11.087 11.0147 10.2167C11.5962 9.34639 11.9066 8.3232 11.9066 7.27652H10.9293C10.9293 8.12991 10.6762 8.96414 10.2021 9.67371C9.72798 10.3833 9.05409 10.9363 8.26566 11.2629C7.47722 11.5895 6.60965 11.6749 5.77266 11.5084C4.93566 11.342 4.16683 10.931 3.56339 10.3276C2.95995 9.72413 2.549 8.9553 2.38251 8.1183C2.21602 7.2813 2.30147 6.41373 2.62805 5.6253C2.95463 4.83687 3.50767 4.16298 4.21724 3.68886C4.92681 3.21474 5.76104 2.96168 6.61444 2.96168V1.98438Z" fill="#878787"/>
<rect width="0.661518" height="3.30759" transform="matrix(-1 0 0 1 6.61615 0.662109)" fill="#878787"/>
<rect width="0.661518" height="3.30759" transform="matrix(-1 0 0 1 7.27859 0.662109)" fill="#878787"/>
<rect width="0.661518" height="1.98455" transform="matrix(-1 0 0 1 7.93817 1.32324)" fill="#878787"/>
<rect width="0.661518" height="0.661518" transform="matrix(-1 0 0 1 8.60065 1.98438)" fill="#878787"/>
<path fill-rule="evenodd" clip-rule="evenodd" d="M6.61531 4.63184C5.15409 4.63184 3.96924 5.81661 3.96924 7.27791C3.96924 8.7392 5.15409 9.92398 6.61531 9.92398C8.07675 9.92398 9.26138 8.7392 9.26138 7.27791C9.26138 5.81661 8.07675 4.63184 6.61531 4.63184ZM7.92475 8.51737L7.84756 8.59455C7.78337 8.65872 7.67508 8.6618 7.60759 8.60094L6.0687 7.55354C6.00077 7.4929 5.94938 7.36876 5.95379 7.27791L6.25183 5.67902C6.25668 5.58795 6.33498 5.51386 6.42607 5.51386H6.53481C6.6259 5.51386 6.70398 5.58795 6.70839 5.6788L6.78404 6.98728C6.78867 7.07835 6.84183 7.20779 6.90204 7.27592L7.93181 8.27702C7.99202 8.34516 7.98916 8.4532 7.92475 8.51737Z" fill="#878787"/>
</g>
<defs>
<clipPath id="clip0_400_99170">
<rect width="13.2304" height="13.2304" fill="white"/>
</clipPath>
</defs>
</svg>
