<svg width="14" height="14" viewBox="0 0 14 14" fill="none" xmlns="http://www.w3.org/2000/svg">
<g clip-path="url(#clip0_400_99156)">
<path d="M6.61429 1.98438C5.5676 1.98437 4.54442 2.29475 3.67413 2.87626C2.80384 3.45777 2.12553 4.28429 1.72498 5.2513C1.32443 6.21832 1.21963 7.28239 1.42383 8.30896C1.62803 9.33554 2.13206 10.2785 2.87218 11.0186C3.6123 11.7587 4.55527 12.2628 5.58184 12.467C6.60842 12.6712 7.67249 12.5664 8.6395 12.1658C9.60651 11.7653 10.433 11.087 11.0145 10.2167C11.5961 9.34639 11.9064 8.3232 11.9064 7.27652H10.9291C10.9291 8.12991 10.6761 8.96414 10.2019 9.67371C9.72782 10.3833 9.05394 10.9363 8.2655 11.2629C7.47707 11.5895 6.6095 11.6749 5.7725 11.5084C4.93551 11.342 4.16668 10.931 3.56323 10.3276C2.95979 9.72413 2.54884 8.9553 2.38236 8.1183C2.21587 7.2813 2.30131 6.41373 2.62789 5.6253C2.95447 4.83687 3.50752 4.16298 4.21709 3.68886C4.92666 3.21474 5.76089 2.96168 6.61429 2.96168V1.98438Z" fill="#878787"/>
<rect width="0.661518" height="3.30759" transform="matrix(-1 0 0 1 6.61603 0.662109)" fill="#878787"/>
<rect width="0.661518" height="3.30759" transform="matrix(-1 0 0 1 7.27847 0.662109)" fill="#878787"/>
<rect width="0.661518" height="1.98455" transform="matrix(-1 0 0 1 7.93805 1.32324)" fill="#878787"/>
<rect width="0.661518" height="0.661518" transform="matrix(-1 0 0 1 8.60052 1.98438)" fill="#878787"/>
<rect x="4.62863" y="5.29297" width="4.63063" height="0.661518" fill="#878787"/>
<rect x="6.61307" y="5.9541" width="0.661518" height="3.30759" fill="#878787"/>
</g>
<defs>
<clipPath id="clip0_400_99156">
<rect width="13.2304" height="13.2304" fill="white"/>
</clipPath>
</defs>
</svg>
