<svg width="100" height="100" viewBox="0 0 100 100" fill="none" xmlns="http://www.w3.org/2000/svg">
<g opacity="0.9">
<path d="M79.6933 63.7863C79.698 63.5758 79.6442 63.3683 79.5381 63.1878C79.2277 62.5364 76.023 55.6942 75.5575 54.5584C75.3843 54.1287 75.3134 53.6632 75.3505 53.2C75.4077 52.8953 75.5125 52.6021 75.6609 52.3315C78.2213 48.0379 79.2148 42.9573 78.466 37.9873C77.7171 33.0173 75.2741 28.4779 71.5686 25.1712C67.9108 21.9332 63.2074 20.1989 58.3701 20.3043C53.5328 20.4098 48.906 22.3474 45.3865 25.7418C41.8135 29.1997 39.5502 33.8369 38.9962 38.835C38.4422 43.833 39.6332 48.8704 42.3588 53.058C45.008 57.2034 49.0644 60.1994 53.746 61.4685C58.4277 62.7375 63.4031 62.1898 67.7132 59.9309C67.9786 59.8338 68.2519 59.7612 68.53 59.7138C68.8751 59.7223 69.2127 59.818 69.5129 59.9922C70.602 60.5907 78.1985 64.769 78.302 64.769C78.5124 64.8592 78.7473 64.8705 78.9651 64.8007C79.1829 64.7309 79.3695 64.5845 79.4918 64.3876C79.5662 64.3084 79.6227 64.2136 79.6575 64.1097C79.6923 64.0059 79.7046 63.8955 79.6933 63.7863Z" fill="url(#paint0_linear_265_47842)"/>
<path d="M20.3039 78.6363C20.2992 78.4258 20.353 78.2183 20.459 78.0378C20.7694 77.3864 23.9741 70.5442 24.4397 69.4084C24.6129 68.9787 24.6838 68.5132 24.6467 68.05C24.5895 67.7453 24.4847 67.4521 24.3363 67.1815C21.7759 62.8879 20.7824 57.8073 21.5312 52.8373C22.28 47.8673 24.7231 43.3279 28.4286 40.0212C31.7001 37.1252 37.2559 35.1175 39.7309 35.1498C36.7998 46.6998 42.3588 61.8122 60.2071 62.3748C59.6199 64.3216 58.7588 66.1866 57.6384 67.908C54.9892 72.0534 50.9328 75.0494 46.2511 76.3185C41.5695 77.5875 36.5941 77.0398 32.284 74.7809C32.0186 74.6838 31.7452 74.6112 31.4672 74.5638C31.1221 74.5723 30.7844 74.668 30.4843 74.8422C29.3952 75.4407 21.7986 79.619 21.6952 79.619C21.4847 79.7092 21.2498 79.7205 21.0321 79.6507C20.8143 79.5809 20.6277 79.4345 20.5053 79.2376C20.431 79.1584 20.3744 79.0636 20.3396 78.9597C20.3048 78.8559 20.2926 78.7455 20.3039 78.6363Z" fill="url(#paint1_linear_265_47842)"/>
</g>
<path d="M58.3242 18.21C53.1219 18.3234 48.1471 20.3459 44.3008 23.8867L43.9316 24.2334L43.9297 24.2363C40.0018 28.0376 37.5211 33.1277 36.9141 38.6045C36.3078 44.075 37.6087 49.5918 40.5938 54.1855C43.519 58.7629 48.0051 62.0837 53.1973 63.4912C58.3309 64.8828 63.7824 64.3026 68.5205 61.8711C68.5338 61.8668 68.5472 61.8625 68.5605 61.8584C69.1851 62.2017 71.2864 63.3579 73.2725 64.4434C74.2973 65.0035 75.2949 65.5472 76.0439 65.9512C76.4173 66.1525 76.7347 66.3225 76.9648 66.4434C77.078 66.5028 77.1805 66.5561 77.2617 66.5967C77.2997 66.6156 77.3517 66.6402 77.4043 66.6641C77.4276 66.6747 77.4776 66.698 77.5391 66.7217C77.5566 66.7284 77.5863 66.7365 77.623 66.749C78.2589 66.9838 78.9551 67.004 79.6045 66.7959C80.2329 66.5945 80.7694 66.1958 81.1484 65.6719C81.3667 65.4044 81.5354 65.1009 81.6445 64.7754C81.7621 64.4244 81.8091 64.0545 81.7861 63.6865C81.7748 63.1945 81.651 62.711 81.4229 62.2725C81.0665 61.523 77.9394 54.8418 77.498 53.7676C77.4627 53.6775 77.4432 53.5814 77.4385 53.4834C77.4547 53.4333 77.4732 53.3841 77.498 53.3389H77.499C80.2802 48.6404 81.3549 43.0961 80.5381 37.6748C79.7173 32.2281 77.0387 27.2437 72.9639 23.6074L72.957 23.6025C68.9085 20.0188 63.6944 18.0929 58.3242 18.21Z" fill="url(#paint2_linear_265_47842)" stroke="#18232F" stroke-width="4.19048"/>
<path d="M31.1426 51.833H37.9521" stroke="#18232F" stroke-width="4.19048" stroke-linecap="round"/>
<path d="M31.1426 60.8687L46.8569 60.8687" stroke="#18232F" stroke-width="4.19048" stroke-linecap="round"/>
<path d="M58.0273 48.2222C58.6494 48.2223 59.2486 48.4568 59.6924 48.8784C60.1367 49.3006 60.3887 49.8769 60.3887 50.48C60.3886 51.0829 60.1366 51.6585 59.6924 52.0806C59.2486 52.5022 58.6494 52.7367 58.0273 52.7368C57.4051 52.7368 56.8052 52.5023 56.3613 52.0806C55.9172 51.6585 55.6652 51.0829 55.665 50.48C55.665 49.8769 55.917 49.3006 56.3613 48.8784C56.8052 48.4567 57.4051 48.2222 58.0273 48.2222ZM58.0273 30.7632C59.624 30.7633 61.1581 31.3655 62.291 32.4419C63.4245 33.5189 64.0635 34.983 64.0635 36.5122C64.0635 37.549 63.9024 38.375 63.5273 39.1479C63.1545 39.9162 62.5791 40.6145 61.7793 41.4058L61.7764 41.4077L61.4219 41.7495L61.4199 41.7505C60.7667 42.3711 60.3842 42.7899 60.1592 43.1851C59.9422 43.5662 59.8643 43.9406 59.8643 44.4937C59.8642 44.9644 59.6671 45.4131 59.3213 45.7417C58.976 46.0698 58.5102 46.2514 58.0273 46.2515C57.5444 46.2515 57.0778 46.0699 56.7324 45.7417C56.3867 45.4131 56.1905 44.9643 56.1904 44.4937C56.1904 43.4567 56.3514 42.6299 56.7266 41.8569C57.0995 41.0888 57.6749 40.3912 58.4746 39.6001L58.4775 39.5981L58.832 39.2563L58.834 39.2554C59.4871 38.6347 59.8697 38.2159 60.0947 37.8208C60.3116 37.4399 60.3895 37.0657 60.3896 36.5132L60.3789 36.3013C60.3278 35.8113 60.1057 35.3473 59.7422 34.9849C59.3263 34.5702 58.756 34.3202 58.1484 34.2905C57.541 34.261 56.9465 34.4541 56.4873 34.8267C56.0284 35.1991 55.7398 35.7219 55.6768 36.2856L55.6641 36.5122L55.6543 36.687C55.6119 37.0929 55.4238 37.4726 55.1211 37.7603C54.7757 38.0884 54.3101 38.2709 53.8271 38.271C53.3443 38.271 52.8786 38.0883 52.5332 37.7603C52.1874 37.4317 51.9903 36.983 51.9902 36.5122C51.9902 34.983 52.6292 33.5189 53.7627 32.4419C54.8957 31.3653 56.4305 30.7632 58.0273 30.7632Z" fill="#18232F" stroke="#18232F" stroke-width="0.523809"/>
<defs>
<linearGradient id="paint0_linear_265_47842" x1="49.9392" y1="40.9103" x2="50.1768" y2="74.766" gradientUnits="userSpaceOnUse">
<stop offset="0.034" stop-color="#DDDDDD"/>
<stop offset="1" stop-color="#AEAFAE"/>
</linearGradient>
<linearGradient id="paint1_linear_265_47842" x1="49.9392" y1="40.9103" x2="50.1768" y2="74.766" gradientUnits="userSpaceOnUse">
<stop offset="0.034" stop-color="#DDDDDD"/>
<stop offset="1" stop-color="#AEAFAE"/>
</linearGradient>
<linearGradient id="paint2_linear_265_47842" x1="59.362" y1="35.7573" x2="59.119" y2="61.1037" gradientUnits="userSpaceOnUse">
<stop stop-color="#4AC5F5"/>
<stop offset="0.932" stop-color="#0295CD"/>
</linearGradient>
</defs>
</svg>
