<svg width="100" height="100" viewBox="0 0 100 100" fill="none" xmlns="http://www.w3.org/2000/svg">
<g opacity="0.9" clip-path="url(#clip0_265_47793)">
<path d="M28.5 23.75H39.75V42.5H21V31.25C21 29.2609 21.7902 27.3532 23.1967 25.9467C24.6032 24.5402 26.5109 23.75 28.5 23.75V23.75Z" fill="url(#paint0_linear_265_47793)"/>
<path d="M58.5 61.25H77.25V72.5C77.25 74.4891 76.4598 76.3968 75.0533 77.8033C73.6468 79.2098 71.7391 80 69.75 80H58.5V61.25Z" fill="url(#paint1_linear_265_47793)"/>
<path d="M58.5 42.5H39.75V61.25H58.5V42.5Z" fill="url(#paint2_linear_265_47793)"/>
<path d="M39.75 42.5H21V61.25H39.75V42.5Z" fill="url(#paint3_linear_265_47793)"/>
<path d="M58.5 23.75H39.75V42.5H58.5V23.75Z" fill="url(#paint4_linear_265_47793)"/>
<path d="M77.25 42.5H58.5V61.25H77.25V42.5Z" fill="url(#paint5_linear_265_47793)"/>
<path d="M58.5 23.75H69.75C71.7391 23.75 73.6468 24.5402 75.0533 25.9467C76.4598 27.3532 77.25 29.2609 77.25 31.25V42.5H58.5V23.75Z" fill="url(#paint6_linear_265_47793)"/>
<path d="M58.5 61.25H39.75V80H58.5V61.25Z" fill="url(#paint7_linear_265_47793)"/>
<path d="M21 61.25H39.75V80H28.5C26.5109 80 24.6032 79.2098 23.1967 77.8033C21.7902 76.3968 21 74.4891 21 72.5V61.25Z" fill="url(#paint8_linear_265_47793)"/>
</g>
<defs>
<linearGradient id="paint0_linear_265_47793" x1="30.375" y1="23.75" x2="30.375" y2="42.5" gradientUnits="userSpaceOnUse">
<stop stop-color="#DEDEDE"/>
<stop offset="1" stop-color="#B0B1B1"/>
</linearGradient>
<linearGradient id="paint1_linear_265_47793" x1="67.875" y1="61.25" x2="67.875" y2="80" gradientUnits="userSpaceOnUse">
<stop stop-color="#DEDEDE"/>
<stop offset="1" stop-color="#B0B1B1"/>
</linearGradient>
<linearGradient id="paint2_linear_265_47793" x1="49.125" y1="42.5" x2="49.125" y2="61.25" gradientUnits="userSpaceOnUse">
<stop stop-color="#DEDEDE"/>
<stop offset="1" stop-color="#B0B1B1"/>
</linearGradient>
<linearGradient id="paint3_linear_265_47793" x1="30.375" y1="42.5" x2="30.375" y2="61.25" gradientUnits="userSpaceOnUse">
<stop stop-color="#FC6864"/>
<stop offset="1" stop-color="#FF423E"/>
</linearGradient>
<linearGradient id="paint4_linear_265_47793" x1="49.125" y1="23.75" x2="49.125" y2="42.5" gradientUnits="userSpaceOnUse">
<stop stop-color="#00F1FF"/>
<stop offset="1" stop-color="#00B6D7"/>
</linearGradient>
<linearGradient id="paint5_linear_265_47793" x1="67.875" y1="42.5" x2="67.875" y2="61.25" gradientUnits="userSpaceOnUse">
<stop stop-color="#00F1FF"/>
<stop offset="1" stop-color="#00B6D7"/>
</linearGradient>
<linearGradient id="paint6_linear_265_47793" x1="67.875" y1="23.75" x2="67.875" y2="42.5" gradientUnits="userSpaceOnUse">
<stop stop-color="#12BAC4"/>
<stop offset="1" stop-color="#1292A9"/>
</linearGradient>
<linearGradient id="paint7_linear_265_47793" x1="49.125" y1="61.25" x2="49.125" y2="80" gradientUnits="userSpaceOnUse">
<stop stop-color="#FC6864"/>
<stop offset="1" stop-color="#FF423E"/>
</linearGradient>
<linearGradient id="paint8_linear_265_47793" x1="30.375" y1="61.25" x2="30.375" y2="80" gradientUnits="userSpaceOnUse">
<stop stop-color="#AF5653"/>
<stop offset="1" stop-color="#B03F3D"/>
</linearGradient>
<clipPath id="clip0_265_47793">
<rect width="60" height="60" fill="white" transform="translate(21 20)"/>
</clipPath>
</defs>
</svg>
