<svg width="100" height="100" viewBox="0 0 100 100" fill="none" xmlns="http://www.w3.org/2000/svg">
<g opacity="0.9" clip-path="url(#clip0_265_47788)">
<path d="M76.2555 35H77.7148C78.9793 35 80.0055 36.0686 80.0055 37.3878V66.3622C80.0055 67.6803 78.9803 68.75 77.7148 68.75H76.2555C74.991 68.75 73.9648 67.6814 73.9648 66.3622V37.3867C73.9648 36.0686 74.99 35 76.2555 35Z" fill="#00FFA0"/>
<path d="M51.2311 35H52.3599C53.6049 35 54.6154 36.0686 54.6154 37.3878V52.7641L60.9729 46.1029C61.6807 45.4068 62.6113 45.0196 63.5774 45.0196H65.6664C67.01 45.0196 67.6774 46.7457 66.7192 47.7434L60.9246 53.7744L68.75 66.2829C69.4115 67.3401 68.6948 68.75 67.498 68.75H65.6654C64.3513 68.75 63.1289 68.0351 62.428 66.858L57.0533 57.8204L54.6154 60.3501V66.3622C54.6154 67.6803 53.6059 68.75 52.3599 68.75H51.2311C49.986 68.75 48.9756 67.6814 48.9756 66.3622V37.3867C48.9756 36.0686 49.985 35 51.2311 35Z" fill="#F2F2F2"/>
<path d="M41.714 43.4375H40.671C39.3948 43.4375 38.3638 44.5371 38.3818 45.8814L38.3908 46.612C37.57 45.8202 36.6311 45.1655 35.5711 44.6521C34.2087 43.9942 32.7083 43.6652 31.0687 43.6652C29.4281 43.6652 27.9287 43.9942 26.5664 44.6521C25.205 45.311 24.0409 46.2008 23.075 47.3184C22.108 48.4381 21.3543 49.7475 20.8128 51.2446C20.2703 52.7438 20 54.3305 20 56.0111C20 57.6895 20.2703 59.2784 20.8128 60.7776C21.3543 62.2758 22.108 63.5926 23.075 64.727C24.0409 65.8635 25.205 66.7608 26.5664 67.4186C27.9287 68.0765 29.4281 68.4065 31.0687 68.4065C31.6903 68.4065 32.2919 68.358 32.8735 68.2642C33.8864 68.1335 34.8314 67.8604 35.7052 67.4345C36.9674 66.8219 37.9043 66.124 38.5199 65.3396C38.602 66.6058 39.6 67.5884 40.8041 67.5884H41.713C42.9772 67.5884 44.0032 66.5088 44.0032 65.1761V45.8497C44.0042 44.5171 42.9792 43.4375 41.714 43.4375ZM26.1019 53.4681C26.3521 52.5962 26.7345 51.8055 27.251 51.097C27.7665 50.3906 28.4151 49.8139 29.1969 49.3701C29.9777 48.9251 30.8995 48.7027 31.9626 48.7027C33.0246 48.7027 33.9475 48.9251 34.7283 49.3701C35.51 49.8139 36.1586 50.3906 36.6741 51.097C37.1896 51.8055 37.572 52.5962 37.8223 53.4681C38.0725 54.34 38.1976 55.1887 38.1976 56.0111C38.1976 56.8682 38.0715 57.7233 37.8223 58.5794C37.572 59.4344 37.1896 60.2251 36.6741 60.9495C36.1576 61.6748 35.509 62.2578 34.7283 62.7038C33.9465 63.1477 33.0246 63.3701 31.9626 63.3701C30.8995 63.3701 29.9767 63.1477 29.1969 62.7038C28.4151 62.2589 27.7665 61.6748 27.251 60.9495C26.7345 60.2262 26.3521 59.4344 26.1019 58.5794C25.8517 57.7222 25.7265 56.8672 25.7265 56.0111C25.7265 55.1887 25.8507 54.34 26.1019 53.4681Z" fill="#F2F2F2"/>
</g>
<defs>
<clipPath id="clip0_265_47788">
<rect width="60" height="60" fill="white" transform="translate(20 20)"/>
</clipPath>
</defs>
</svg>
