<svg width="100" height="100" viewBox="0 0 100 100" fill="none" xmlns="http://www.w3.org/2000/svg">
<g opacity="0.9" clip-path="url(#clip0_265_47762)">
<path d="M59.375 46.25C62.4816 46.25 65 43.7316 65 40.625C65 37.5184 62.4816 35 59.375 35C56.2684 35 53.75 37.5184 53.75 40.625C53.75 43.7316 56.2684 46.25 59.375 46.25Z" fill="#00EAAB"/>
<path d="M40.625 65C43.7316 65 46.25 62.4816 46.25 59.375C46.25 56.2684 43.7316 53.75 40.625 53.75C37.5184 53.75 35 56.2684 35 59.375C35 62.4816 37.5184 65 40.625 65Z" fill="#FE5A56"/>
<path d="M72.5 20H27.5C25.5127 20.0059 23.6085 20.798 22.2033 22.2033C20.798 23.6085 20.0059 25.5127 20 27.5V72.5C20.0059 74.4873 20.798 76.3915 22.2033 77.7967C23.6085 79.202 25.5127 79.9941 27.5 80H72.5C74.4873 79.9941 76.3915 79.202 77.7967 77.7967C79.202 76.3915 79.9941 74.4873 80 72.5V27.5C79.9941 25.5127 79.202 23.6085 77.7967 22.2033C76.3915 20.798 74.4873 20.0059 72.5 20V20ZM76.25 57.5H57.5V61.25H76.25V72.5C76.2801 73.0003 76.2037 73.5013 76.0259 73.9699C75.848 74.4385 75.5728 74.864 75.2184 75.2184C74.864 75.5728 74.4385 75.848 73.9699 76.0259C73.5013 76.2037 73.0003 76.2801 72.5 76.25H27.5C26.9997 76.2801 26.4987 76.2037 26.0301 76.0259C25.5615 75.848 25.136 75.5728 24.7816 75.2184C24.4272 74.864 24.152 74.4385 23.9741 73.9699C23.7963 73.5013 23.7199 73.0003 23.75 72.5V42.5H42.5V38.75H23.75V27.5C23.7199 26.9997 23.7963 26.4987 23.9741 26.0301C24.152 25.5615 24.4272 25.136 24.7816 24.7816C25.136 24.4272 25.5615 24.152 26.0301 23.9741C26.4987 23.7963 26.9997 23.7199 27.5 23.75H72.5C73.0003 23.7199 73.5013 23.7963 73.9699 23.9741C74.4385 24.152 74.864 24.4272 75.2184 24.7816C75.5728 25.136 75.848 25.5615 76.0259 26.0301C76.2037 26.4987 76.2801 26.9997 76.25 27.5V57.5Z" fill="#D0D0D0"/>
</g>
<defs>
<clipPath id="clip0_265_47762">
<rect width="60" height="60" fill="white" transform="translate(20 20)"/>
</clipPath>
</defs>
</svg>
