<svg width="100" height="100" viewBox="0 0 100 100" fill="none" xmlns="http://www.w3.org/2000/svg">
<g opacity="0.9" clip-path="url(#clip0_265_47778)">
<path d="M27.5 23.75H57.5V38.75H23.75V27.5C23.75 26.5054 24.1451 25.5516 24.8483 24.8483C25.5516 24.1451 26.5054 23.75 27.5 23.75V23.75Z" fill="#00C5F8"/>
<path d="M23.75 61.25H57.5V76.25H27.5C26.5054 76.25 25.5516 75.8549 24.8483 75.1517C24.1451 74.4484 23.75 73.4946 23.75 72.5V61.25Z" fill="#00FAB9"/>
<path d="M61.25 23.75H72.5C73.4946 23.75 74.4484 24.1451 75.1516 24.8483C75.8549 25.5516 76.25 26.5054 76.25 27.5V38.75H61.25V23.75Z" fill="#FF403A"/>
<path d="M61.25 76.25H72.5C73.4946 76.25 74.4484 75.8549 75.1516 75.1517C75.8549 74.4484 76.25 73.4946 76.25 72.5V61.25H61.25V76.25Z" fill="#FF403A"/>
<path d="M38.75 42.5H23.75V57.5H38.75V42.5Z" fill="#00C5F8"/>
<path d="M76.25 42.5H42.5V57.5H76.25V42.5Z" fill="#FF403A"/>
</g>
<defs>
<clipPath id="clip0_265_47778">
<rect width="60" height="60" fill="white" transform="translate(20 20)"/>
</clipPath>
</defs>
</svg>
