<svg width="100" height="100" viewBox="0 0 100 100" fill="none" xmlns="http://www.w3.org/2000/svg">
<g opacity="0.9">
<path d="M20.0202 78.5824C20.0138 78.2989 20.0879 78.0193 20.234 77.7762C20.6615 76.8987 25.0752 67.6812 25.7165 66.1512C25.9549 65.5723 26.0526 64.9451 26.0015 64.3212C25.9228 63.9107 25.7784 63.5157 25.574 63.1512C22.0476 57.3671 20.6793 50.5228 21.7106 43.8275C22.742 37.1323 26.1067 31.0171 31.2102 26.5624C36.2481 22.2005 42.7259 19.8641 49.3882 20.0061C56.0505 20.1481 62.4228 22.7585 67.2702 27.3312C72.1913 31.9894 75.3085 38.2364 76.0715 44.9695C76.8344 51.7025 75.1942 58.4886 71.4402 64.1299C67.7915 69.7143 62.2048 73.7503 55.7568 75.4599C49.3089 77.1695 42.4564 76.4317 36.5202 73.3887C36.1547 73.2579 35.7782 73.16 35.3952 73.0962C34.92 73.1077 34.4549 73.2365 34.0415 73.4712C32.5415 74.2774 22.079 79.9062 21.9365 79.9062C21.6466 80.0278 21.3231 80.0429 21.0232 79.9489C20.7232 79.8548 20.4663 79.6577 20.2977 79.3924C20.1953 79.2857 20.1174 79.158 20.0695 79.0181C20.0216 78.8782 20.0048 78.7295 20.0202 78.5824V78.5824Z" fill="url(#paint0_linear_265_47729)"/>
<path d="M41.8475 64.5236V50.0861L47.4725 45.2111V53.3823L62.1575 40.7448H70.625L42.6388 64.8911C42.5679 64.9495 42.4818 64.9865 42.3907 64.9977C42.2995 65.009 42.2071 64.9941 42.1241 64.9548C42.0411 64.9155 41.971 64.8533 41.922 64.7756C41.8731 64.698 41.8472 64.6079 41.8475 64.5161V64.5236ZM25.625 55.5273L53.6112 31.3848C53.6987 31.3054 53.8119 31.2601 53.93 31.2573C53.9927 31.2568 54.0548 31.2688 54.1128 31.2926C54.1708 31.3163 54.2236 31.3514 54.2679 31.3957C54.3122 31.44 54.3473 31.4927 54.371 31.5507C54.3948 31.6088 54.4068 31.6709 54.4063 31.7336V46.1711L48.7625 51.0461V42.8598L34.0925 55.5273H25.625Z" fill="url(#paint1_linear_265_47729)"/>
</g>
<defs>
<linearGradient id="paint0_linear_265_47729" x1="57.3015" y1="23.0005" x2="33.0809" y2="77.5134" gradientUnits="userSpaceOnUse">
<stop stop-color="white"/>
<stop offset="0.515" stop-color="#D5D5D6"/>
<stop offset="1" stop-color="#CCCBCD"/>
</linearGradient>
<linearGradient id="paint1_linear_265_47729" x1="139.97" y1="-14.9721" x2="140.195" y2="-14.9721" gradientUnits="userSpaceOnUse">
<stop stop-color="#2799FA"/>
<stop offset="1" stop-color="#2689DF"/>
</linearGradient>
</defs>
</svg>
