<svg width="100" height="100" viewBox="0 0 100 100" fill="none" xmlns="http://www.w3.org/2000/svg">
<g opacity="0.9">
<path opacity="0.9" d="M21.4188 80.305H18.3381C18.2149 80.3075 18.0927 80.2822 17.9806 80.2311C17.8685 80.18 17.7693 80.1042 17.6904 80.0096C17.6115 79.9149 17.5549 79.8037 17.5248 79.6842C17.4948 79.5647 17.492 79.4399 17.5166 79.3192C18.5024 73.6506 25.1567 47.115 36.6989 44.5682C38.6935 44.0605 40.7835 44.0605 42.7781 44.5682C46.0272 46.0114 48.8547 48.2593 50.9932 51.0994C52.601 52.8633 54.3453 54.4977 56.2098 55.9876C57.9424 57.5628 60.1578 58.504 62.4944 58.6576C69.5594 58.5343 74.817 50.1547 74.817 38.7764V20.5794C74.817 20.3506 74.9079 20.1312 75.0697 19.9695C75.2315 19.8077 75.4509 19.7168 75.6796 19.7168H78.7192C78.8325 19.7168 78.9447 19.7391 79.0493 19.7825C79.154 19.8258 79.2491 19.8893 79.3292 19.9695C79.4093 20.0496 79.4728 20.1446 79.5162 20.2493C79.5595 20.354 79.5818 20.4661 79.5818 20.5794V38.7764C79.5818 52.8657 72.5579 63.4225 63.1516 63.4225C59.5112 63.4825 55.98 62.1784 53.2524 59.7666C51.2158 58.0897 49.32 56.2488 47.5839 54.2623C45.9068 52.0636 43.7597 50.2672 41.2994 49.0045V49.0045C40.1607 48.741 38.9739 48.7693 37.849 49.0867C30.1268 50.7708 23.3083 73.7327 22.3225 79.5245C22.2925 79.7423 22.1842 79.9416 22.0179 80.0853C21.8516 80.2289 21.6386 80.3071 21.4188 80.305Z" fill="url(#paint0_linear_265_47619)"/>
<path opacity="0.9" d="M66.0697 26.6572H21.0098V30.8881H66.0697V26.6572Z" fill="#F2433F"/>
<path opacity="0.9" d="M82.5003 71.6792H37.4404V75.9101H82.5003V71.6792Z" fill="#F2433F"/>
</g>
<defs>
<linearGradient id="paint0_linear_265_47619" x1="48.4167" y1="37.0451" x2="48.4167" y2="60.4322" gradientUnits="userSpaceOnUse">
<stop stop-color="#53F0FF"/>
<stop offset="1" stop-color="#4BB5D5"/>
</linearGradient>
</defs>
</svg>
