<svg width="100" height="100" viewBox="0 0 100 100" fill="none" xmlns="http://www.w3.org/2000/svg">
<g opacity="0.9">
<rect x="31.0322" y="31.0264" width="7.49989" height="14.9989" rx="1.12495" fill="url(#paint0_linear_265_47708)"/>
<path d="M47.3833 79.7804C46.4906 79.7934 45.6224 79.4868 44.935 78.9171C44.2478 78.3473 43.7859 77.5506 43.6333 76.671L42.771 72.5431C41.3068 72.0887 39.8882 71.4983 38.5337 70.7804L35.1968 73.3976C34.4831 73.8984 33.6167 74.1349 32.7475 74.0665C31.8784 73.998 31.0605 73.6289 30.4341 73.0226L26.6841 69.2735C26.0692 68.645 25.695 67.82 25.6265 66.9435C25.5579 66.0669 25.7994 65.1941 26.3091 64.4776L28.7837 61.0313C28.0654 59.6913 27.4994 58.2746 27.0962 56.8087L22.8589 56.0968C21.9956 55.9388 21.2147 55.4829 20.6528 54.8087C20.1005 54.1459 19.7955 53.313 19.7856 52.4513L19.7856 49.7833L40.2212 49.7833C40.2212 49.7892 40.2212 49.795 40.2212 49.8009C40.2212 51.6902 40.782 53.5375 41.8315 55.1085C42.881 56.6792 44.3725 57.9037 46.1177 58.627C47.8631 59.3504 49.784 59.54 51.6372 59.172C53.4904 58.8039 55.1932 57.895 56.5298 56.5597C57.8663 55.2242 58.7774 53.5219 59.147 51.669C59.2714 51.0451 59.3307 50.4134 59.3296 49.7833L79.7827 49.7833L79.7827 52.2345C79.7972 53.1224 79.4962 53.9863 78.9331 54.6729C78.37 55.3596 77.582 55.8247 76.7085 55.9845L72.5835 56.6593C72.1382 58.0792 71.5737 59.4594 70.896 60.7843L73.4087 64.2677C73.9135 64.9883 74.1481 65.8637 74.0727 66.7403C73.9973 67.617 73.6162 68.4397 72.9956 69.0636L69.2456 72.8126C68.6192 73.4189 67.8013 73.7881 66.9321 73.8565C66.063 73.925 65.1975 73.6884 64.4839 73.1876L61.0337 70.713C59.7254 71.3671 58.356 71.892 56.9458 72.2804L56.3081 76.671C56.1555 77.5506 55.6945 78.3473 55.0073 78.9171C54.32 79.4868 53.4517 79.7934 52.5591 79.7804L47.3833 79.7804Z" fill="#D9D9D9"/>
<rect x="61.0342" y="31.0264" width="7.49989" height="14.9989" rx="1.12495" fill="url(#paint1_linear_265_47708)"/>
<path d="M46.0381 27.2773H53.538V44.901C53.538 45.5223 53.0343 46.026 52.413 46.026H47.163C46.5417 46.026 46.0381 45.5223 46.0381 44.901V27.2773Z" fill="url(#paint2_linear_265_47708)"/>
<path d="M57.284 27.2788H42.2842L49.7841 19.7793L57.284 27.2788Z" fill="#3EF3FF"/>
<path d="M72.2849 34.7768H57.2852L64.785 27.2773L72.2849 34.7768Z" fill="#2BD6EF"/>
<path d="M42.283 34.7768H27.2832L34.7831 27.2773L42.283 34.7768Z" fill="#2BD6EF"/>
</g>
<defs>
<linearGradient id="paint0_linear_265_47708" x1="34.7822" y1="31.0264" x2="34.7822" y2="46.0253" gradientUnits="userSpaceOnUse">
<stop stop-color="#3EF3FF"/>
<stop offset="1" stop-color="#0FA8D9"/>
</linearGradient>
<linearGradient id="paint1_linear_265_47708" x1="64.7841" y1="31.0264" x2="64.7841" y2="46.0253" gradientUnits="userSpaceOnUse">
<stop stop-color="#3EF3FF"/>
<stop offset="1" stop-color="#0FA8D9"/>
</linearGradient>
<linearGradient id="paint2_linear_265_47708" x1="49.788" y1="27.2773" x2="49.788" y2="46.026" gradientUnits="userSpaceOnUse">
<stop stop-color="#3EF3FF"/>
<stop offset="1" stop-color="#0FA8D9"/>
</linearGradient>
</defs>
</svg>
