<svg width="100" height="100" viewBox="0 0 100 100" fill="none" xmlns="http://www.w3.org/2000/svg">
<g opacity="0.9">
<g opacity="0.9">
<path opacity="0.9" d="M27.9275 20.0469H67.2162C69.6121 20.0469 71.9099 20.9986 73.6041 22.6928C75.2982 24.387 76.25 26.6847 76.25 29.0806V71.0131C76.25 73.409 75.2982 75.7068 73.6041 77.401C71.9099 79.0951 69.6121 80.0469 67.2162 80.0469H27.9275C27.8141 80.0469 27.7054 80.0018 27.6252 79.9217C27.545 79.8415 27.5 79.7328 27.5 79.6194V20.4744C27.5 20.361 27.545 20.2523 27.6252 20.1721C27.7054 20.0919 27.8141 20.0469 27.9275 20.0469V20.0469Z" fill="url(#paint0_linear_265_47657)"/>
<path opacity="0.9" d="M31.25 20.0469H23.75V80.0469H31.25V20.0469Z" fill="#E3E3E3"/>
<path opacity="0.9" d="M65 31.2969H38.75V42.5469H65V31.2969Z" fill="#E3E3E3"/>
</g>
</g>
<defs>
<linearGradient id="paint0_linear_265_47657" x1="51.7775" y1="40.8669" x2="52.1467" y2="75.0055" gradientUnits="userSpaceOnUse">
<stop stop-color="#4AC5F5"/>
<stop offset="0.932" stop-color="#0295CD"/>
</linearGradient>
</defs>
</svg>
