<svg width="100" height="100" viewBox="0 0 100 100" fill="none" xmlns="http://www.w3.org/2000/svg">
<g opacity="0.9">
<path opacity="0.9" d="M53.5632 39.5703H46.1025V54.5303H61.0614V47.0691H53.5632V39.5703Z" fill="url(#paint0_linear_265_47688)"/>
<path opacity="0.9" d="M77.3336 23.6394C76.4938 22.7937 75.495 22.1225 74.3948 21.6645C73.2945 21.2065 72.1145 20.9707 70.9227 20.9707C69.7309 20.9707 68.5509 21.2065 67.4506 21.6645C66.3503 22.1225 65.3515 22.7937 64.5117 23.6394L77.3336 36.4622C78.1793 35.6224 78.8504 34.6235 79.3084 33.5231C79.7663 32.4228 80.0021 31.2427 80.0021 30.0508C80.0021 28.8589 79.7663 27.6788 79.3084 26.5785C78.8504 25.4781 78.1793 24.4792 77.3336 23.6394V23.6394Z" fill="url(#paint1_linear_265_47688)"/>
<path opacity="0.9" d="M22.6704 23.6394C21.8248 24.4792 21.1537 25.4781 20.6957 26.5785C20.2377 27.6788 20.002 28.8589 20.002 30.0508C20.002 31.2427 20.2377 32.4228 20.6957 33.5231C21.1537 34.6235 21.8248 35.6224 22.6704 36.4622L35.4924 23.6394C34.6526 22.7937 33.6538 22.1225 32.5535 21.6645C31.4532 21.2065 30.2732 20.9707 29.0814 20.9707C27.8896 20.9707 26.7096 21.2065 25.6093 21.6645C24.509 22.1225 23.5102 22.7937 22.6704 23.6394V23.6394Z" fill="url(#paint2_linear_265_47688)"/>
<path opacity="0.9" d="M50.414 24.5007C45.4604 24.4928 40.6128 25.9347 36.4687 28.6487C32.3246 31.3627 29.0652 35.2301 27.0922 39.7741C25.1193 44.3182 24.519 49.3403 25.3655 54.2214C26.212 59.1025 28.4682 63.6292 31.856 67.2435L27.0946 72.1177C26.784 72.4277 26.5376 72.7958 26.3695 73.2012C26.2013 73.6065 26.1148 74.041 26.1148 74.4798C26.1148 74.9186 26.2013 75.3531 26.3695 75.7585C26.5376 76.1638 26.784 76.532 27.0946 76.8419L27.657 77.4043C27.9669 77.7149 28.3351 77.9614 28.7404 78.1295C29.1457 78.2977 29.5801 78.3842 30.0189 78.3842C30.4577 78.3842 30.8922 78.2977 31.2975 78.1295C31.7028 77.9614 32.0709 77.7149 32.3808 77.4043L37.7421 72.1177C41.5966 74.3398 45.9649 75.5159 50.414 75.5296C54.5751 75.5328 58.6719 74.5021 62.3362 72.5301L67.285 77.4793C67.5949 77.7899 67.9631 78.0364 68.3684 78.2045C68.7736 78.3727 69.2081 78.4592 69.6469 78.4592C70.0857 78.4592 70.5202 78.3727 70.9255 78.2045C71.3308 78.0364 71.6989 77.7899 72.0088 77.4793L72.5712 76.9169C72.8884 76.6007 73.1387 76.2239 73.3072 75.8089C73.4757 75.3939 73.5589 74.9492 73.5519 74.5014C73.5449 74.0536 73.4478 73.6117 73.2665 73.2022C73.0851 72.7927 72.8231 72.4238 72.4962 72.1177L68.3347 67.9559C71.9253 64.4143 74.3796 59.8832 75.3843 54.9407C76.389 49.9982 75.8987 44.8684 73.9759 40.2058C72.053 35.5432 68.7849 31.5592 64.5884 28.762C60.3918 25.9648 55.4572 24.4813 50.414 24.5007V24.5007ZM32.2684 49.9214C32.2684 46.3323 33.3326 42.8238 35.3265 39.8395C37.3203 36.8553 40.1543 34.5293 43.47 33.1558C46.7857 31.7823 50.4341 31.4229 53.9541 32.1231C57.474 32.8234 60.7072 34.5517 63.2449 37.0896C65.7826 39.6275 67.5108 42.861 68.211 46.3811C68.9112 49.9013 68.5518 53.55 67.1784 56.866C65.805 60.1819 63.4792 63.0161 60.4952 65.0101C57.5112 67.0041 54.0029 68.0684 50.414 68.0684C45.6015 68.0684 40.9861 66.1565 37.5831 62.7533C34.1801 59.35 32.2684 54.7343 32.2684 49.9214V49.9214Z" fill="url(#paint3_linear_265_47688)"/>
</g>
<defs>
<linearGradient id="paint0_linear_265_47688" x1="51.3531" y1="44.7016" x2="53.5224" y2="50.7004" gradientUnits="userSpaceOnUse">
<stop offset="0.1" stop-color="#00EFB1"/>
<stop offset="1" stop-color="#00D091"/>
</linearGradient>
<linearGradient id="paint1_linear_265_47688" x1="72.2414" y1="22.0706" x2="72.2414" y2="67.5382" gradientUnits="userSpaceOnUse">
<stop stop-color="#C5C5C5"/>
<stop offset="1"/>
</linearGradient>
<linearGradient id="paint2_linear_265_47688" x1="27.7626" y1="16.5556" x2="27.7626" y2="62.0387" gradientUnits="userSpaceOnUse">
<stop stop-color="white"/>
<stop offset="1"/>
</linearGradient>
<linearGradient id="paint3_linear_265_47688" x1="50.3918" y1="22.0723" x2="50.3918" y2="67.5596" gradientUnits="userSpaceOnUse">
<stop offset="0.03" stop-color="#C5C5C5"/>
<stop offset="1" stop-color="#A0A0A0"/>
</linearGradient>
</defs>
</svg>
