<svg width="100" height="100" viewBox="0 0 100 100" fill="none" xmlns="http://www.w3.org/2000/svg">
<g opacity="0.9">
<path opacity="0.9" d="M65 20.0469H80V74.0469C80 75.6382 79.3679 77.1643 78.2426 78.2895C77.1174 79.4147 75.5913 80.0469 74 80.0469H65V20.0469Z" fill="url(#paint0_linear_265_47635)"/>
<path opacity="0.9" d="M57.5 46.2969H42.5V80.0469H57.5V46.2969Z" fill="url(#paint1_linear_265_47635)"/>
<path opacity="0.9" d="M35 80.0469H26C24.4087 80.0469 22.8826 79.4147 21.7574 78.2895C20.6321 77.1643 20 75.6382 20 74.0469V61.2969H35V80.0469Z" fill="url(#paint2_linear_265_47635)"/>
<path opacity="0.9" d="M51.8732 20.0469C50.9153 20.0482 49.9737 20.2941 49.1374 20.7613C48.3012 21.2284 47.5982 21.9014 47.0949 22.7164C46.5916 23.5315 46.3048 24.4615 46.2616 25.4184C46.2185 26.3753 46.4204 27.3274 46.8482 28.1844L29.8232 40.7094C28.9516 39.736 27.7665 39.0989 26.4738 38.9088C25.1812 38.7187 23.8628 38.9876 22.7478 39.6687C21.6329 40.3498 20.7919 41.4002 20.371 42.6371C19.9502 43.874 19.9761 45.2193 20.4443 46.4391C20.9125 47.6589 21.7934 48.676 22.9338 49.3137C24.0741 49.9513 25.4019 50.1692 26.6863 49.9294C27.9706 49.6896 29.1303 49.0073 29.9638 48.0011C30.7972 46.9949 31.2517 45.7284 31.2482 44.4219C31.2493 43.6895 31.1093 42.9638 30.8357 42.2844L47.9732 29.7219C48.6362 30.3609 49.4459 30.8274 50.3313 31.0804C51.2167 31.3334 52.1506 31.3652 53.0511 31.1729C53.9517 30.9807 54.7912 30.5703 55.4961 29.9779C56.201 29.3854 56.7496 28.6289 57.0939 27.7749C57.4382 26.9209 57.5675 25.9954 57.4706 25.0797C57.3736 24.164 57.0534 23.2861 56.5379 22.5231C56.0224 21.7601 55.3276 21.1352 54.5142 20.7035C53.7009 20.2718 52.794 20.0463 51.8732 20.0469V20.0469Z" fill="url(#paint3_linear_265_47635)"/>
</g>
<defs>
<linearGradient id="paint0_linear_265_47635" x1="59.33" y1="40.8669" x2="77.7018" y2="45.62" gradientUnits="userSpaceOnUse">
<stop stop-color="#DDDDDD"/>
<stop offset="1" stop-color="#AEAFAE"/>
</linearGradient>
<linearGradient id="paint1_linear_265_47635" x1="36.83" y1="58.0081" x2="53.0089" y2="65.4495" gradientUnits="userSpaceOnUse">
<stop stop-color="#DDDDDD"/>
<stop offset="1" stop-color="#AEAFAE"/>
</linearGradient>
<linearGradient id="paint2_linear_265_47635" x1="40.67" y1="73.5406" x2="29.0399" y2="63.9121" gradientUnits="userSpaceOnUse">
<stop stop-color="#DDDDDD"/>
<stop offset="1" stop-color="#AEAFAE"/>
</linearGradient>
<linearGradient id="paint3_linear_265_47635" x1="38.7501" y1="22.475" x2="38.7501" y2="43.7591" gradientUnits="userSpaceOnUse">
<stop stop-color="#00F6B7"/>
<stop offset="0.93" stop-color="#00CB8D"/>
</linearGradient>
</defs>
</svg>
