<svg width="100" height="100" viewBox="0 0 100 100" fill="none" xmlns="http://www.w3.org/2000/svg">
<g opacity="0.9">
<path d="M61.25 20L61.6357 20.0098C65.4708 20.2041 68.5459 23.2792 68.7402 27.1143L68.75 27.5H65C65 25.4289 63.3211 23.75 61.25 23.75H27.5C25.4289 23.75 23.75 25.4289 23.75 27.5V61.25C23.75 63.3211 25.4289 65 27.5 65V68.75C23.3579 68.75 20 65.3921 20 61.25V27.5L20.0098 27.1143C20.2041 23.2792 23.2792 20.2041 27.1143 20.0098L27.5 20H61.25Z" fill="url(#paint0_linear_265_47850)"/>
<path d="M73.0771 31.25C76.9005 31.2501 79.9999 34.3495 80 38.1729V73.0771C79.9999 76.9005 76.9005 79.9999 73.0771 80H38.1729C34.3495 79.9999 31.2501 76.9005 31.25 73.0771V38.1729C31.2501 34.3495 34.3495 31.2501 38.1729 31.25H73.0771ZM38.7539 63.126L42.5078 59.3789L55.6289 72.5L61.2539 66.875L48.1338 53.7539L51.8789 50.001L38.7539 50V63.126ZM50.0039 44.375L63.125 57.4951L59.3789 61.25H72.5029L72.5039 48.125L68.749 51.8711L55.6279 38.75L50.0039 44.375Z" fill="url(#paint1_linear_265_47850)"/>
</g>
<defs>
<linearGradient id="paint0_linear_265_47850" x1="36.875" y1="55.625" x2="29.375" y2="25.625" gradientUnits="userSpaceOnUse">
<stop offset="0.0748645" stop-color="#B7B7B7"/>
<stop offset="1" stop-color="#D5D5D5"/>
</linearGradient>
<linearGradient id="paint1_linear_265_47850" x1="80" y1="80" x2="31.25" y2="31.25" gradientUnits="userSpaceOnUse">
<stop stop-color="#0F62FE"/>
<stop offset="1" stop-color="#1DAAFB"/>
</linearGradient>
</defs>
</svg>
