<svg width="100" height="100" viewBox="0 0 100 100" fill="none" xmlns="http://www.w3.org/2000/svg">
<g opacity="0.9" clip-path="url(#clip0_265_47875)">
<path d="M68.375 46.2485H79.625C78.8569 39.6516 75.8839 33.5072 71.1876 28.8109C66.4913 24.1147 60.347 21.1416 53.75 20.3735V31.6235C57.3993 32.2533 60.7642 33.9971 63.3828 36.6157C66.0014 39.2343 67.7453 42.5992 68.375 46.2485V46.2485Z" fill="url(#paint0_linear_265_47875)"/>
<path d="M31.623 46.25C32.3015 42.5826 34.0536 39.1991 36.6573 36.5287C39.261 33.8583 42.599 32.021 46.248 31.25V20C39.645 20.9119 33.5283 23.98 28.849 28.7271C24.1696 33.4743 21.1899 39.6345 20.373 46.25H31.623Z" fill="url(#paint1_linear_265_47875)"/>
<path d="M31.623 53.75H20.373C21.2031 60.3228 24.1961 66.4327 28.8807 71.1173C33.5653 75.8019 39.6752 78.795 46.248 79.625V68.375C42.5987 67.7453 39.2338 66.0014 36.6152 63.3828C33.9966 60.7642 32.2528 57.3993 31.623 53.75V53.75Z" fill="url(#paint2_linear_265_47875)"/>
<path d="M53.7501 51.4985L59.3751 40.9985L48.8751 45.8735C48.3409 46.3824 47.7005 46.7666 47.0001 46.9985C46.2735 47.8291 45.873 48.895 45.873 49.9985C45.873 51.102 46.2735 52.168 47.0001 52.9985C47.3898 53.4 47.8562 53.7191 48.3715 53.937C48.8868 54.155 49.4406 54.2673 50.0001 54.2673C50.5596 54.2673 51.1134 54.155 51.6287 53.937C52.144 53.7191 52.6104 53.4 53.0001 52.9985L53.7501 51.4985Z" fill="white"/>
</g>
<defs>
<linearGradient id="paint0_linear_265_47875" x1="66.6875" y1="20.3735" x2="66.6875" y2="46.2485" gradientUnits="userSpaceOnUse">
<stop stop-color="#0095CF"/>
<stop offset="1" stop-color="#00B7F2"/>
</linearGradient>
<linearGradient id="paint1_linear_265_47875" x1="33.3105" y1="20" x2="33.3105" y2="46.25" gradientUnits="userSpaceOnUse">
<stop stop-color="#FEC528"/>
<stop offset="1" stop-color="#FEE337"/>
</linearGradient>
<linearGradient id="paint2_linear_265_47875" x1="33.3105" y1="53.75" x2="33.3105" y2="79.625" gradientUnits="userSpaceOnUse">
<stop stop-color="#FE5653"/>
<stop offset="1" stop-color="#F93935"/>
</linearGradient>
<clipPath id="clip0_265_47875">
<rect width="60" height="60" fill="white" transform="translate(20 20)"/>
</clipPath>
</defs>
</svg>
