<svg width="100" height="100" viewBox="0 0 100 100" fill="none" xmlns="http://www.w3.org/2000/svg">
<g opacity="0.9">
<rect x="20" y="20" width="60" height="60" rx="7.5" fill="#333333"/>
<rect x="20" y="20" width="60" height="60" rx="7.5" fill="url(#paint0_linear_265_47611)"/>
<rect x="20" y="20" width="60" height="60" rx="7.5" fill="url(#paint1_radial_265_47611)"/>
<rect x="20" y="20" width="60" height="60" rx="7.5" fill="url(#paint2_linear_265_47611)"/>
<rect x="20" y="20" width="60" height="60" rx="7.5" fill="black" fill-opacity="0.5"/>
<rect x="20" y="20" width="60" height="60" rx="7.5" fill="black" fill-opacity="0.2"/>
<rect x="20" y="20" width="60" height="60" rx="7.5" fill="url(#paint3_linear_265_47611)"/>
<rect x="20" y="20" width="60" height="60" rx="7.5" fill="black" fill-opacity="0.2"/>
<path d="M37.1008 68.75H32.2756C29.8448 68.75 28.056 66.4728 28.632 64.1113L36.6506 31.25H46.2502L37.1008 68.75ZM50.0002 68.75H40.6252L50.0002 31.25H59.3752L50.0002 68.75ZM63.1252 68.75H53.7502L60.3127 42.5H69.6877L63.1252 68.75ZM70.6252 31.25C71.5776 31.25 72.2761 32.1454 72.0451 33.0693L70.6252 38.75H61.2502L63.1252 31.25H70.6252Z" fill="#D9D9D9"/>
<path d="M37.1008 68.75H32.2756C29.8448 68.75 28.056 66.4728 28.632 64.1113L36.6506 31.25H46.2502L37.1008 68.75ZM50.0002 68.75H40.6252L50.0002 31.25H59.3752L50.0002 68.75ZM63.1252 68.75H53.7502L60.3127 42.5H69.6877L63.1252 68.75ZM70.6252 31.25C71.5776 31.25 72.2761 32.1454 72.0451 33.0693L70.6252 38.75H61.2502L63.1252 31.25H70.6252Z" fill="url(#paint4_linear_265_47611)"/>
<path d="M37.1008 68.75H32.2756C29.8448 68.75 28.056 66.4728 28.632 64.1113L36.6506 31.25H46.2502L37.1008 68.75ZM50.0002 68.75H40.6252L50.0002 31.25H59.3752L50.0002 68.75ZM63.1252 68.75H53.7502L60.3127 42.5H69.6877L63.1252 68.75ZM70.6252 31.25C71.5776 31.25 72.2761 32.1454 72.0451 33.0693L70.6252 38.75H61.2502L63.1252 31.25H70.6252Z" fill="url(#paint5_linear_265_47611)" fill-opacity="0.8"/>
<path d="M37.1008 68.75H32.2756C29.8448 68.75 28.056 66.4728 28.632 64.1113L36.6506 31.25H46.2502L37.1008 68.75ZM50.0002 68.75H40.6252L50.0002 31.25H59.3752L50.0002 68.75ZM63.1252 68.75H53.7502L60.3127 42.5H69.6877L63.1252 68.75ZM70.6252 31.25C71.5776 31.25 72.2761 32.1454 72.0451 33.0693L70.6252 38.75H61.2502L63.1252 31.25H70.6252Z" fill="white"/>
</g>
<defs>
<linearGradient id="paint0_linear_265_47611" x1="29.5516" y1="21.8815" x2="60.9113" y2="79.1488" gradientUnits="userSpaceOnUse">
<stop stop-color="#1F42BF"/>
<stop offset="0.49941" stop-color="#8539B0"/>
</linearGradient>
<radialGradient id="paint1_radial_265_47611" cx="0" cy="0" r="1" gradientUnits="userSpaceOnUse" gradientTransform="translate(66.875 31.25) rotate(123.551) scale(213.734)">
<stop stop-color="white"/>
<stop offset="1" stop-color="#151515" stop-opacity="0"/>
</radialGradient>
<linearGradient id="paint2_linear_265_47611" x1="76.25" y1="18.125" x2="27.5" y2="81.875" gradientUnits="userSpaceOnUse">
<stop stop-color="white"/>
<stop offset="1" stop-color="#A8A8A8"/>
</linearGradient>
<linearGradient id="paint3_linear_265_47611" x1="49.703" y1="80" x2="97.5947" y2="42.4264" gradientUnits="userSpaceOnUse">
<stop stop-color="#0F62FE"/>
<stop offset="1" stop-color="#1DAAFB"/>
</linearGradient>
<linearGradient id="paint4_linear_265_47611" x1="27.4852" y1="16.2485" x2="103.897" y2="22.7667" gradientUnits="userSpaceOnUse">
<stop stop-color="#1F42BF"/>
<stop offset="0.497537" stop-color="#8539B0"/>
</linearGradient>
<linearGradient id="paint5_linear_265_47611" x1="10.3583" y1="40.625" x2="69.24" y2="56.047" gradientUnits="userSpaceOnUse">
<stop/>
<stop offset="0.0001"/>
<stop offset="1" stop-opacity="0"/>
</linearGradient>
</defs>
</svg>
