<svg width="100" height="100" viewBox="0 0 100 100" fill="none" xmlns="http://www.w3.org/2000/svg">
<g opacity="0.9">
<path opacity="0.9" d="M58.4522 79.5468H27.5C26.5143 79.5498 25.5402 79.3587 24.6289 78.9829C23.7177 78.607 22.887 78.0539 22.19 77.3569C21.4929 76.6599 20.9399 75.8329 20.564 74.9216C20.1881 74.0103 19.9971 73.0326 20 72.0468V27.0469C20 25.0577 20.7908 23.1507 22.1973 21.7441C23.6038 20.3376 25.5109 19.5469 27.5 19.5469H72.5C74.4891 19.5469 76.3962 20.3376 77.8027 21.7441C79.2093 23.1507 80 25.0577 80 27.0469V72.0468C80 74.036 79.2093 75.9431 77.8027 77.3496C76.3962 78.7561 74.4891 79.5468 72.5 79.5468H58.4522Z" fill="url(#paint0_linear_265_47625)"/>
<path opacity="0.9" d="M31.671 49.3882V46.7514H50.0801V49.3882H42.3617V71.2969H39.3894V49.3882H31.671ZM55.6741 46.7514L62.961 67.4137H63.2487L70.5356 46.7514H73.6517L64.6389 71.2969H61.5708L52.558 46.7514H55.6741Z" fill="white"/>
</g>
<defs>
<linearGradient id="paint0_linear_265_47625" x1="58.58" y1="75.1069" x2="39.5" y2="21.7669" gradientUnits="userSpaceOnUse">
<stop stop-color="#0015A9"/>
<stop offset="1" stop-color="#0026F8"/>
</linearGradient>
</defs>
</svg>
