<svg width="10" height="10" viewBox="0 0 10 10" fill="none" xmlns="http://www.w3.org/2000/svg">
<path d="M6.63672 0L6.76074 0.00585938C7.32841 0.0636638 7.78008 0.515342 7.83789 1.08301L7.84375 1.20703H7.24023C7.24023 0.873803 6.96995 0.603516 6.63672 0.603516H1.20703C0.873803 0.603516 0.603516 0.873804 0.603516 1.20703V6.63672C0.603529 6.92809 0.810261 7.17105 1.08496 7.22754L1.20703 7.24023V7.84375L1.08301 7.83789C0.474661 7.77596 1.44919e-05 7.26141 0 6.63672V1.20703C0 0.58233 0.474651 0.0677916 1.08301 0.00585938L1.20703 0H6.63672Z" fill="url(#paint0_linear_400_96407)"/>
<path d="M8.53955 1.81055C9.15474 1.81055 9.65381 2.30961 9.65381 2.9248V8.54004C9.65381 9.15523 9.15474 9.6543 8.53955 9.6543H2.92432C2.30913 9.6543 1.81006 9.15523 1.81006 8.54004V2.9248C1.81006 2.30961 2.30913 1.81055 2.92432 1.81055H8.53955ZM3.01807 4.82715V6.93848L3.62158 6.33691L5.73193 8.44727L6.63721 7.54199L4.52686 5.43164L5.12939 4.82715H3.01807ZM4.82764 3.92188L6.93896 6.0332L6.33545 6.63672L8.44775 6.6377V4.52539L7.84326 5.12793L5.73193 3.01758L4.82764 3.92188Z" fill="url(#paint1_linear_400_96407)"/>
<defs>
<linearGradient id="paint0_linear_400_96407" x1="2.71513" y1="5.73194" x2="1.50841" y2="0.905043" gradientUnits="userSpaceOnUse">
<stop offset="0.0748645" stop-color="#B7B7B7"/>
<stop offset="1" stop-color="#D5D5D5"/>
</linearGradient>
<linearGradient id="paint1_linear_400_96407" x1="9.65378" y1="9.65425" x2="1.81007" y2="1.81053" gradientUnits="userSpaceOnUse">
<stop stop-color="#0F62FE"/>
<stop offset="1" stop-color="#1DAAFB"/>
</linearGradient>
</defs>
</svg>
